{
.appVersion = "1141";
DisplayStrings = (
"/brevecomb/brevecomb_acutecomb/brevecomb_gravecomb/brevecomb_hookabovecomb/brevecomb_tildecomb/circumflexcomb_acutecomb/circumflexcomb_gravecomb/circumflexcomb_hookabovecomb/circumflexcomb_tildecomb/brevecomb_acutecomb.case/brevecomb_gravecomb.case/brevecomb_hookabovecomb.case/brevecomb_tildecomb.case/circumflexcomb_acutecomb.case/circumflexcomb_gravecomb.case/circumflexcomb_hookabovecomb.case/circumflexcomb_tildecomb.case",
"O/Ohorn",
"E/hookabovecomb.case/Ehookabove",
"U/Uhorn",
"o/ohorn",
"y/ydotbelow",
"/hookabovecomb/ohookabove.sc",
"/o.sc/ohorn.sc",
"/ohorntilde.sc",
"/horncomb.case OO/Ohorn UU/Uhorn \012/horncomb o/ohorn uu/uhorn/horncomb.case/o.sc/o.sc/o.sc/ohorn.sc/u.sc/uhorn.sc \012/u.sc/uhorn.sc/uhorndotbelow.sc",
"/hookabovecomb.case/Ihookabove",
"/ehookabove.sc",
"/hookabovecomb  /acutecomb/horncomb/ahookabove",
"u/uhorn",
"/o.sc/ohorn.sc/u.sc/uhorn.sc/uhorndotbelow.sc",
"/o.sc/ohorn.sc/horncomb.case U/Uhorn/u.sc/uhorn.sc/uhorndotbelow.sc",
"/brevecomb_acutecomb/brevecomb_gravecomb/brevecomb_hookabovecomb/brevecomb_tildecomb/circumflexcomb_acutecomb/circumflexcomb_gravecomb/circumflexcomb_hookabovecomb/circumflexcomb_tildecomb/brevecomb_acutecomb.case/brevecomb_gravecomb.case/brevecomb_hookabovecomb.case/brevecomb_tildecomb.case/circumflexcomb_acutecomb.case/circumflexcomb_gravecomb.case/circumflexcomb_hookabovecomb.case/circumflexcomb_tildecomb.case",
"/hookabovecomb/horncomb",
"/brevecomb_acutecomb/brevecomb_gravecomb/brevecomb_hookabovecomb/brevecomb_tildecomb/circumflexcomb_acutecomb/circumflexcomb_gravecomb/circumflexcomb_hookabovecomb/circumflexcomb_tildecomb/brevecomb_acutecomb.case/brevecomb_gravecomb.case/brevecomb_hookabovecomb.case/brevecomb_tildecomb.case/circumflexcomb_acutecomb.case/circumflexcomb_gravecomb.case/circumflexcomb_hookabovecomb.case/circumflexcomb_tildecomb.case",
"/ecircumflexacute",
"/ydotbelow.sc"
);
classes = (
{
automatic = 1;

glyphs = (
{
color = 4;
glyphname = A;
lastChange = "2018-12-17 20:58:09 +0000";
layers = (
{
anchors = (
{
name = bottom;
position = "{368, 0}";
},
{
name = ogonek;
position = "{668, 0}";
},
{
name = top;
position = "{410, 720}";
}
);
background = {
paths = (
{
closed = 1;
nodes = (
"456 0 LINE",
"668 0 LINE",
"668 536 LINE SMOOTH",
"668 576 OFFCURVE",
"668 660 OFFCURVE",
"676 696 CURVE",
"674 708 LINE",
"620 720 OFFCURVE",
"540 728 OFFCURVE",
"480 728 CURVE SMOOTH",
"288 728 OFFCURVE",
"147 697 OFFCURVE",
"108 468 CURVE SMOOTH",
"28 0 LINE",
"240 0 LINE",
"268 168 LINE",
"456 168 LINE"
);
},
{
closed = 1;
nodes = (
"316 460 LINE SMOOTH",
"326 523 OFFCURVE",
"356 552 OFFCURVE",
"432 552 CURVE SMOOTH",
"438 552 OFFCURVE",
"448 551 OFFCURVE",
"459 551 CURVE",
"457 532 OFFCURVE",
"456 511 OFFCURVE",
"456 488 CURVE SMOOTH",
"456 336 LINE",
"295 336 LINE"
);
}
);
};
hints = (
{
horizontal = 1;
place = "{0, 21}";
target = up;
type = BottomGhost;
},
{
horizontal = 1;
place = "{168, 168}";
type = Stem;
},
{
horizontal = 1;
place = "{552, 176}";
type = Stem;
},
{
place = "{456, 212}";
type = Stem;
}
);
layerId = "F2028F70-0529-41D4-9F63-024EA79743CD";
paths = (
{
closed = 1;
nodes = (
"240 0 LINE",
"316 460 LINE SMOOTH",
"326 523 OFFCURVE",
"356 552 OFFCURVE",
"432 552 CURVE SMOOTH",
"451 552 OFFCURVE",
"480 550 OFFCURVE",
"493 548 CURVE",
"467 598 LINE",
"460 569 OFFCURVE",
"456 532 OFFCURVE",
"456 488 CURVE SMOOTH",
"456 0 LINE",
"668 0 LINE",
"668 536 LINE SMOOTH",
"668 576 OFFCURVE",
"668 660 OFFCURVE",
"676 696 CURVE",
"674 708 LINE",
"620 720 OFFCURVE",
"540 728 OFFCURVE",
"480 728 CURVE SMOOTH",
"288 728 OFFCURVE",
"147 697 OFFCURVE",
"108 468 CURVE SMOOTH",
"28 0 LINE"
);
},
{
closed = 1;
nodes = (
"556 168 LINE",
"556 336 LINE",
"168 336 LINE",
"168 168 LINE"
);
}
);
width = 736;
},
{
anchors = (
{
name = bottom;
position = "{331, 0}";
},
{
name = ogonek;
position = "{566, 0}";
},
{
name = top;
position = "{377, 720}";
}
);
background = {
paths = (
{
closed = 1;
nodes = (
"470 0 LINE",
"566 0 LINE",
"566 540 LINE SMOOTH",
"566 580 OFFCURVE",
"566 660 OFFCURVE",
"572 700 CURVE",
"570 712 LINE",
"518 724 OFFCURVE",
"470 728 OFFCURVE",
"422 728 CURVE SMOOTH",
"222 728 OFFCURVE",
"155 640 OFFCURVE",
"128 480 CURVE SMOOTH",
"48 0 LINE",
"146 0 LINE",
"182 220 LINE",
"470 220 LINE"
);
},
{
closed = 1;
nodes = (
"226 480 LINE SMOOTH",
"245 591 OFFCURVE",
"286 644 OFFCURVE",
"418 644 CURVE SMOOTH",
"438 644 OFFCURVE",
"456 643 OFFCURVE",
"471 640 CURVE",
"470 625 OFFCURVE",
"470 609 OFFCURVE",
"470 592 CURVE SMOOTH",
"470 304 LINE",
"196 304 LINE"
);
}
);
};
hints = (
{
horizontal = 1;
place = "{0, 21}";
target = up;
type = BottomGhost;
},
{
horizontal = 1;
place = "{220, 84}";
type = Stem;
},
{
horizontal = 1;
place = "{644, 84}";
type = Stem;
},
{
place = "{470, 96}";
type = Stem;
}
);
layerId = "3E005A84-7828-4122-B6E8-61930BD9836F";
paths = (
{
closed = 1;
nodes = (
"146 0 LINE",
"226 480 LINE SMOOTH",
"245 591 OFFCURVE",
"286 644 OFFCURVE",
"418 644 CURVE SMOOTH",
"447 644 OFFCURVE",
"473 642 OFFCURVE",
"490 634 CURVE",
"474 663 LINE",
"470 642 OFFCURVE",
"470 618 OFFCURVE",
"470 592 CURVE SMOOTH",
"470 0 LINE",
"566 0 LINE",
"566 540 LINE SMOOTH",
"566 580 OFFCURVE",
"566 660 OFFCURVE",
"572 700 CURVE",
"570 712 LINE",
"518 724 OFFCURVE",
"470 728 OFFCURVE",
"422 728 CURVE SMOOTH",
"222 728 OFFCURVE",
"155 640 OFFCURVE",
"128 480 CURVE SMOOTH",
"48 0 LINE"
);
},
{
closed = 1;
nodes = (
"510 220 LINE",
"510 304 LINE",
"148 304 LINE",
"148 220 LINE"
);
}
);
width = 662;
}
);
leftKerningGroup = A;
note = A;
rightKerningGroup = A;
unicode = 0041;
},
{
color = 4;
glyphname = B;
lastChange = "2018-12-17 16:05:59 +0000";
layers = (
{
anchors = (
{
name = bottom;
position = "{352, 0}";
},
{
name = top;
position = "{352, 720}";
}
);
background = {
paths = (
{
closed = 1;
nodes = (
"68 0 LINE",
"408 0 LINE SMOOTH",
"568 0 OFFCURVE",
"664 64 OFFCURVE",
"664 192 CURVE SMOOTH",
"664 261 OFFCURVE",
"626 318 OFFCURVE",
"555 343 CURVE",
"619 384 OFFCURVE",
"652 450 OFFCURVE",
"652 516 CURVE SMOOTH",
"652 648 OFFCURVE",
"564 720 OFFCURVE",
"382 720 CURVE SMOOTH",
"68 720 LINE"
);
},
{
closed = 1;
nodes = (
"364 548 LINE SMOOTH",
"404 548 OFFCURVE",
"440 536 OFFCURVE",
"440 484 CURVE SMOOTH",
"440 440 OFFCURVE",
"412 404 OFFCURVE",
"356 404 CURVE SMOOTH",
"280 404 LINE",
"280 548 LINE"
);
},
{
closed = 1;
nodes = (
"400 256 LINE SMOOTH",
"432 256 OFFCURVE",
"452 240 OFFCURVE",
"452 212 CURVE SMOOTH",
"452 180 OFFCURVE",
"432 164 OFFCURVE",
"400 164 CURVE SMOOTH",
"280 164 LINE",
"280 256 LINE"
);
}
);
};
hints = (
{
horizontal = 1;
place = "{0, 164}";
type = Stem;
},
{
horizontal = 1;
place = "{256, 148}";
type = Stem;
},
{
horizontal = 1;
place = "{548, 172}";
type = Stem;
},
{
place = "{68, 212}";
type = Stem;
},
{
place = "{452, 212}";
type = Stem;
},
{
place = "{440, 212}";
type = Stem;
}
);
layerId = "F2028F70-0529-41D4-9F63-024EA79743CD";
paths = (
{
closed = 1;
nodes = (
"408 0 LINE SMOOTH",
"568 0 OFFCURVE",
"664 64 OFFCURVE",
"664 192 CURVE SMOOTH",
"664 281 OFFCURVE",
"601 350 OFFCURVE",
"485 356 CURVE",
"494 315 LINE",
"598 347 OFFCURVE",
"652 432 OFFCURVE",
"652 516 CURVE SMOOTH",
"652 648 OFFCURVE",
"564 720 OFFCURVE",
"382 720 CURVE SMOOTH",
"180 720 LINE",
"180 548 LINE",
"364 548 LINE SMOOTH",
"404 548 OFFCURVE",
"440 536 OFFCURVE",
"440 484 CURVE SMOOTH",
"440 440 OFFCURVE",
"412 404 OFFCURVE",
"356 404 CURVE SMOOTH",
"180 404 LINE",
"180 256 LINE",
"400 256 LINE SMOOTH",
"432 256 OFFCURVE",
"452 240 OFFCURVE",
"452 212 CURVE SMOOTH",
"452 180 OFFCURVE",
"432 164 OFFCURVE",
"400 164 CURVE SMOOTH",
"180 164 LINE",
"180 0 LINE"
);
},
{
closed = 1;
nodes = (
"280 0 LINE",
"280 720 LINE",
"68 720 LINE",
"68 0 LINE"
);
}
);
width = 704;
},
{
anchors = (
{
name = bottom;
position = "{320, 0}";
},
{
name = top;
position = "{320, 720}";
}
);
background = {
paths = (
{
closed = 1;
nodes = (
"96 0 LINE",
"380 0 LINE SMOOTH",
"528 0 OFFCURVE",
"584 92 OFFCURVE",
"584 184 CURVE SMOOTH",
"584 257 OFFCURVE",
"546 311 OFFCURVE",
"477 333 CURVE",
"540 376 OFFCURVE",
"572 451 OFFCURVE",
"572 524 CURVE SMOOTH",
"572 656 OFFCURVE",
"496 720 OFFCURVE",
"348 720 CURVE SMOOTH",
"96 720 LINE"
);
},
{
closed = 1;
nodes = (
"348 636 LINE SMOOTH",
"428 636 OFFCURVE",
"476 608 OFFCURVE",
"476 524 CURVE SMOOTH",
"476 440 OFFCURVE",
"432 364 OFFCURVE",
"340 364 CURVE SMOOTH",
"192 364 LINE",
"192 636 LINE"
);
},
{
closed = 1;
nodes = (
"376 280 LINE SMOOTH",
"440 280 OFFCURVE",
"488 256 OFFCURVE",
"488 184 CURVE SMOOTH",
"488 108 OFFCURVE",
"436 84 OFFCURVE",
"376 84 CURVE SMOOTH",
"192 84 LINE",
"192 280 LINE"
);
}
);
};
hints = (
{
horizontal = 1;
place = "{0, 84}";
type = Stem;
},
{
horizontal = 1;
place = "{280, 84}";
type = Stem;
},
{
horizontal = 1;
place = "{636, 84}";
type = Stem;
},
{
place = "{96, 96}";
type = Stem;
},
{
place = "{476, 96}";
type = Stem;
},
{
place = "{488, 96}";
type = Stem;
}
);
layerId = "3E005A84-7828-4122-B6E8-61930BD9836F";
paths = (
{
closed = 1;
nodes = (
"380 0 LINE SMOOTH",
"528 0 OFFCURVE",
"584 92 OFFCURVE",
"584 184 CURVE SMOOTH",
"584 266 OFFCURVE",
"536 324 OFFCURVE",
"449 340 CURVE",
"454 320 LINE",
"532 359 OFFCURVE",
"572 443 OFFCURVE",
"572 524 CURVE SMOOTH",
"572 656 OFFCURVE",
"496 720 OFFCURVE",
"348 720 CURVE SMOOTH",
"152 720 LINE",
"152 636 LINE",
"348 636 LINE SMOOTH",
"428 636 OFFCURVE",
"476 608 OFFCURVE",
"476 524 CURVE SMOOTH",
"476 440 OFFCURVE",
"432 364 OFFCURVE",
"340 364 CURVE SMOOTH",
"152 364 LINE",
"152 280 LINE",
"376 280 LINE SMOOTH",
"440 280 OFFCURVE",
"488 256 OFFCURVE",
"488 184 CURVE SMOOTH",
"488 108 OFFCURVE",
"436 84 OFFCURVE",
"376 84 CURVE SMOOTH",
"152 84 LINE",
"152 0 LINE"
);
},
{
closed = 1;
nodes = (
"192 0 LINE",
"192 720 LINE",
"96 720 LINE",
"96 0 LINE"
);
}
);
width = 640;
}
);
leftKerningGroup = B;
note = B;
rightKerningGroup = B;
unicode = 0042;
},
{
color = 4;
glyphname = C;
lastChange = "2018-12-17 22:15:04 +0000";
layers = (
{
anchors = (
{
name = bottom;
position = "{388, 0}";
},
{
name = top;
position = "{388, 720}";
}
);
hints = (
{
horizontal = 1;
place = "{-12, 176}";
type = Stem;
},
{
horizontal = 1;
place = "{556, 176}";
type = Stem;
},
{
place = "{36, 216}";
type = Stem;
}
);
layerId = "F2028F70-0529-41D4-9F63-024EA79743CD";
paths = (
{
closed = 1;
nodes = (
"36 132 OFFCURVE",
"172 -12 OFFCURVE",
"448 -12 CURVE SMOOTH",
"516 -12 OFFCURVE",
"576 0 OFFCURVE",
"604 12 CURVE",
"604 190 LINE",
"592 190 LINE",
"564 176 OFFCURVE",
"516 164 OFFCURVE",
"464 164 CURVE SMOOTH",
"308 164 OFFCURVE",
"252 248 OFFCURVE",
"252 360 CURVE SMOOTH",
"252 472 OFFCURVE",
"308 556 OFFCURVE",
"464 556 CURVE SMOOTH",
"516 556 OFFCURVE",
"564 544 OFFCURVE",
"592 530 CURVE",
"604 530 LINE",
"604 708 LINE",
"576 720 OFFCURVE",
"516 732 OFFCURVE",
"448 732 CURVE SMOOTH",
"172 732 OFFCURVE",
"36 588 OFFCURVE",
"36 360 CURVE SMOOTH"
);
}
);
width = 648;
},
{
anchors = (
{
name = bottom;
position = "{384, 0}";
},
{
name = top;
position = "{384, 720}";
}
);
hints = (
{
horizontal = 1;
place = "{-12, 88}";
type = Stem;
},
{
horizontal = 1;
place = "{644, 88}";
type = Stem;
},
{
place = "{56, 100}";
type = Stem;
}
);
layerId = "3E005A84-7828-4122-B6E8-61930BD9836F";
paths = (
{
closed = 1;
nodes = (
"56 128 OFFCURVE",
"188 -12 OFFCURVE",
"420 -12 CURVE SMOOTH",
"488 -12 OFFCURVE",
"540 0 OFFCURVE",
"580 20 CURVE",
"580 112 LINE",
"572 112 LINE",
"532 88 OFFCURVE",
"480 76 OFFCURVE",
"420 76 CURVE SMOOTH",
"260 76 OFFCURVE",
"156 168 OFFCURVE",
"156 360 CURVE SMOOTH",
"156 552 OFFCURVE",
"260 644 OFFCURVE",
"420 644 CURVE SMOOTH",
"480 644 OFFCURVE",
"532 632 OFFCURVE",
"572 608 CURVE",
"580 608 LINE",
"580 700 LINE",
"540 720 OFFCURVE",
"488 732 OFFCURVE",
"420 732 CURVE SMOOTH",
"188 732 OFFCURVE",
"56 584 OFFCURVE",
"56 360 CURVE SMOOTH"
);
}
);
width = 648;
}
);
leftKerningGroup = C;
note = C;
rightKerningGroup = C;
unicode = 0043;
},
{
color = 4;
glyphname = D;
lastChange = "2018-12-17 21:30:27 +0000";
layers = (
{
anchors = (
{
name = bottom;
position = "{390, 0}";
},
{
name = center;
position = "{182, 366}";
},
{
name = top;
position = "{390, 720}";
}
);
background = {
paths = (
{
closed = 1;
nodes = (
"68 0 LINE",
"328 0 LINE SMOOTH",
"620 0 OFFCURVE",
"744 176 OFFCURVE",
"744 392 CURVE SMOOTH",
"744 600 OFFCURVE",
"616 720 OFFCURVE",
"360 720 CURVE SMOOTH",
"68 720 LINE"
);
},
{
closed = 1;
nodes = (
"360 536 LINE SMOOTH",
"484 536 OFFCURVE",
"528 480 OFFCURVE",
"528 388 CURVE SMOOTH",
"528 264 OFFCURVE",
"464 184 OFFCURVE",
"340 184 CURVE SMOOTH",
"280 184 LINE",
"280 536 LINE"
);
}
);
};
hints = (
{
horizontal = 1;
place = "{0, 184}";
type = Stem;
},
{
horizontal = 1;
place = "{536, 184}";
type = Stem;
},
{
place = "{68, 212}";
type = Stem;
},
{
place = "{528, 216}";
type = Stem;
}
);
layerId = "F2028F70-0529-41D4-9F63-024EA79743CD";
paths = (
{
closed = 1;
nodes = (
"328 0 LINE SMOOTH",
"620 0 OFFCURVE",
"744 176 OFFCURVE",
"744 392 CURVE SMOOTH",
"744 600 OFFCURVE",
"616 720 OFFCURVE",
"360 720 CURVE SMOOTH",
"180 720 LINE",
"180 536 LINE",
"360 536 LINE SMOOTH",
"484 536 OFFCURVE",
"528 480 OFFCURVE",
"528 388 CURVE SMOOTH",
"528 264 OFFCURVE",
"464 184 OFFCURVE",
"340 184 CURVE SMOOTH",
"180 184 LINE",
"180 0 LINE"
);
},
{
closed = 1;
nodes = (
"280 0 LINE",
"280 720 LINE",
"68 720 LINE",
"68 0 LINE"
);
}
);
width = 780;
},
{
anchors = (
{
name = bottom;
position = "{360, 0}";
},
{
name = center;
position = "{160, 372}";
},
{
name = top;
position = "{360, 720}";
}
);
background = {
paths = (
{
closed = 1;
nodes = (
"96 0 LINE",
"312 0 LINE SMOOTH",
"572 0 OFFCURVE",
"664 200 OFFCURVE",
"664 400 CURVE SMOOTH",
"664 612 OFFCURVE",
"548 720 OFFCURVE",
"336 720 CURVE SMOOTH",
"96 720 LINE"
);
},
{
closed = 1;
nodes = (
"336 636 LINE SMOOTH",
"488 636 OFFCURVE",
"564 556 OFFCURVE",
"564 400 CURVE SMOOTH",
"564 256 OFFCURVE",
"508 84 OFFCURVE",
"312 84 CURVE SMOOTH",
"154 84 LINE",
"192 46 LINE",
"192 674 LINE",
"154 636 LINE"
);
}
);
};
hints = (
{
horizontal = 1;
place = "{0, 84}";
type = Stem;
},
{
horizontal = 1;
place = "{636, 84}";
type = Stem;
},
{
place = "{96, 96}";
type = Stem;
},
{
place = "{564, 100}";
type = Stem;
}
);
layerId = "3E005A84-7828-4122-B6E8-61930BD9836F";
paths = (
{
closed = 1;
nodes = (
"312 0 LINE SMOOTH",
"572 0 OFFCURVE",
"664 200 OFFCURVE",
"664 400 CURVE SMOOTH",
"664 612 OFFCURVE",
"548 720 OFFCURVE",
"336 720 CURVE SMOOTH",
"152 720 LINE",
"152 636 LINE",
"336 636 LINE SMOOTH",
"488 636 OFFCURVE",
"564 556 OFFCURVE",
"564 400 CURVE SMOOTH",
"564 256 OFFCURVE",
"508 84 OFFCURVE",
"312 84 CURVE SMOOTH",
"152 84 LINE",
"152 0 LINE"
);
},
{
closed = 1;
nodes = (
"192 0 LINE",
"192 720 LINE",
"96 720 LINE",
"96 0 LINE"
);
}
);
width = 720;
}
);
leftKerningGroup = B;
note = D;
rightKerningGroup = D;
unicode = 0044;
},
{
color = 4;
glyphname = E;
lastChange = "2018-12-17 19:09:43 +0000";
layers = (
{
anchors = (
{
name = bottom;
position = "{306, 0}";
},
{
name = ogonek;
position = "{564, 0}";
},
{
name = top;
position = "{306, 720}";
},
{
name = topleft;
position = "{20, 720}";
}
);
background = {
paths = (
{
closed = 1;
nodes = (
"68 0 LINE",
"564 0 LINE",
"564 184 LINE",
"280 184 LINE",
"280 268 LINE",
"508 268 LINE",
"508 440 LINE",
"280 440 LINE",
"280 536 LINE",
"556 536 LINE",
"556 720 LINE",
"68 720 LINE"
);
}
);
};
hints = (
{
horizontal = 1;
place = "{0, 184}";
type = Stem;
},
{
horizontal = 1;
place = "{268, 172}";
type = Stem;
},
{
horizontal = 1;
place = "{536, 184}";
type = Stem;
},
{
place = "{68, 212}";
type = Stem;
}
);
layerId = "F2028F70-0529-41D4-9F63-024EA79743CD";
paths = (
{
closed = 1;
nodes = (
"280 0 LINE",
"280 720 LINE",
"68 720 LINE",
"68 0 LINE"
);
},
{
closed = 1;
nodes = (
"564 0 LINE",
"564 184 LINE",
"180 184 LINE",
"180 0 LINE"
);
},
{
closed = 1;
nodes = (
"508 268 LINE",
"508 440 LINE",
"180 440 LINE",
"180 268 LINE"
);
},
{
closed = 1;
nodes = (
"556 536 LINE",
"556 720 LINE",
"180 720 LINE",
"180 536 LINE"
);
}
);
width = 612;
},
{
anchors = (
{
name = bottom;
position = "{308, 0}";
},
{
name = ogonek;
position = "{564, 0}";
},
{
name = top;
position = "{308, 720}";
},
{
name = topleft;
position = "{20, 720}";
}
);
background = {
paths = (
{
closed = 1;
nodes = (
"96 0 LINE",
"564 0 LINE",
"564 84 LINE",
"192 84 LINE",
"192 336 LINE",
"496 336 LINE",
"496 420 LINE",
"192 420 LINE",
"192 636 LINE",
"552 636 LINE",
"552 720 LINE",
"96 720 LINE"
);
}
);
};
hints = (
{
horizontal = 1;
place = "{0, 84}";
type = Stem;
},
{
horizontal = 1;
place = "{336, 84}";
type = Stem;
},
{
horizontal = 1;
place = "{636, 84}";
type = Stem;
},
{
place = "{96, 96}";
type = Stem;
}
);
layerId = "3E005A84-7828-4122-B6E8-61930BD9836F";
paths = (
{
closed = 1;
nodes = (
"192 0 LINE",
"192 720 LINE",
"96 720 LINE",
"96 0 LINE"
);
},
{
closed = 1;
nodes = (
"564 0 LINE",
"564 84 LINE",
"152 84 LINE",
"152 0 LINE"
);
},
{
closed = 1;
nodes = (
"496 336 LINE",
"496 420 LINE",
"152 420 LINE",
"152 336 LINE"
);
},
{
closed = 1;
nodes = (
"552 636 LINE",
"552 720 LINE",
"152 720 LINE",
"152 636 LINE"
);
}
);
width = 616;
}
);
leftKerningGroup = B;
note = E;
rightKerningGroup = E;
unicode = 0045;
},
{
color = 4;
glyphname = F;
lastChange = "2018-12-17 16:05:59 +0000";
layers = (
{
anchors = (
{
name = bottom;
position = "{294, 0}";
},
{
name = top;
position = "{294, 720}";
}
);
background = {
paths = (
{
closed = 1;
nodes = (
"68 0 LINE",
"280 0 LINE",
"280 216 LINE",
"508 216 LINE",
"508 388 LINE",
"280 388 LINE",
"280 536 LINE",
"556 536 LINE",
"556 720 LINE",
"68 720 LINE"
);
}
);
};
hints = (
{
horizontal = 1;
place = "{0, 21}";
target = up;
type = BottomGhost;
},
{
horizontal = 1;
place = "{216, 172}";
type = Stem;
},
{
horizontal = 1;
place = "{536, 184}";
type = Stem;
},
{
place = "{68, 212}";
type = Stem;
}
);
layerId = "F2028F70-0529-41D4-9F63-024EA79743CD";
paths = (
{
closed = 1;
nodes = (
"280 0 LINE",
"280 720 LINE",
"68 720 LINE",
"68 0 LINE"
);
},
{
closed = 1;
nodes = (
"508 216 LINE",
"508 388 LINE",
"180 388 LINE",
"180 216 LINE"
);
},
{
closed = 1;
nodes = (
"556 536 LINE",
"556 720 LINE",
"180 720 LINE",
"180 536 LINE"
);
}
);
width = 588;
},
{
anchors = (
{
name = bottom;
position = "{286, 0}";
},
{
name = top;
position = "{286, 720}";
}
);
background = {
paths = (
{
closed = 1;
nodes = (
"96 0 LINE",
"192 0 LINE",
"192 280 LINE",
"484 280 LINE",
"484 364 LINE",
"192 364 LINE",
"192 636 LINE",
"540 636 LINE",
"540 720 LINE",
"96 720 LINE"
);
}
);
};
hints = (
{
horizontal = 1;
place = "{0, 21}";
target = up;
type = BottomGhost;
},
{
horizontal = 1;
place = "{280, 84}";
type = Stem;
},
{
horizontal = 1;
place = "{636, 84}";
type = Stem;
},
{
place = "{96, 96}";
type = Stem;
}
);
layerId = "3E005A84-7828-4122-B6E8-61930BD9836F";
paths = (
{
closed = 1;
nodes = (
"192 0 LINE",
"192 720 LINE",
"96 720 LINE",
"96 0 LINE"
);
},
{
closed = 1;
nodes = (
"484 280 LINE",
"484 364 LINE",
"152 364 LINE",
"152 280 LINE"
);
},
{
closed = 1;
nodes = (
"540 636 LINE",
"540 720 LINE",
"152 720 LINE",
"152 636 LINE"
);
}
);
width = 572;
}
);
leftKerningGroup = B;
note = F;
rightKerningGroup = F;
unicode = 0046;
},
{
color = 4;
glyphname = G;
lastChange = "2018-12-17 16:05:59 +0000";
layers = (
{
anchors = (
{
name = bottom;
position = "{364, 0}";
},
{
name = top;
position = "{364, 720}";
}
);
background = {
paths = (
{
closed = 1;
nodes = (
"36 136 OFFCURVE",
"168 -12 OFFCURVE",
"428 -12 CURVE SMOOTH",
"526 -12 OFFCURVE",
"608 4 OFFCURVE",
"664 28 CURVE",
"664 370 LINE",
"472 370 LINE",
"472 164 LINE",
"461 161 OFFCURVE",
"448 160 OFFCURVE",
"432 160 CURVE SMOOTH",
"322 160 OFFCURVE",
"252 240 OFFCURVE",
"252 352 CURVE SMOOTH",
"252 480 OFFCURVE",
"320 556 OFFCURVE",
"476 556 CURVE SMOOTH",
"534 556 OFFCURVE",
"592 544 OFFCURVE",
"620 530 CURVE",
"632 530 LINE",
"632 708 LINE",
"604 720 OFFCURVE",
"540 732 OFFCURVE",
"466 732 CURVE SMOOTH",
"184 732 OFFCURVE",
"36 576 OFFCURVE",
"36 356 CURVE SMOOTH"
);
}
);
};
hints = (
{
horizontal = 1;
place = "{-12, 172}";
type = Stem;
},
{
horizontal = 1;
place = "{556, 176}";
type = Stem;
},
{
place = "{36, 216}";
type = Stem;
},
{
place = "{472, 192}";
type = Stem;
}
);
layerId = "F2028F70-0529-41D4-9F63-024EA79743CD";
paths = (
{
closed = 1;
nodes = (
"36 136 OFFCURVE",
"168 -12 OFFCURVE",
"428 -12 CURVE SMOOTH",
"526 -12 OFFCURVE",
"608 4 OFFCURVE",
"664 28 CURVE",
"664 370 LINE",
"472 370 LINE",
"472 78 LINE",
"510 192 LINE",
"492 166 OFFCURVE",
"471 160 OFFCURVE",
"432 160 CURVE SMOOTH",
"322 160 OFFCURVE",
"252 240 OFFCURVE",
"252 352 CURVE SMOOTH",
"252 480 OFFCURVE",
"320 556 OFFCURVE",
"476 556 CURVE SMOOTH",
"534 556 OFFCURVE",
"592 544 OFFCURVE",
"620 530 CURVE",
"632 530 LINE",
"632 708 LINE",
"604 720 OFFCURVE",
"540 732 OFFCURVE",
"466 732 CURVE SMOOTH",
"184 732 OFFCURVE",
"36 576 OFFCURVE",
"36 356 CURVE SMOOTH"
);
}
);
width = 728;
},
{
anchors = (
{
name = bottom;
position = "{342, 0}";
},
{
name = top;
position = "{342, 720}";
}
);
hints = (
{
horizontal = 1;
place = "{-12, 84}";
type = Stem;
},
{
horizontal = 1;
place = "{644, 88}";
type = Stem;
},
{
place = "{56, 100}";
type = Stem;
},
{
place = "{508, 96}";
type = Stem;
}
);
layerId = "3E005A84-7828-4122-B6E8-61930BD9836F";
paths = (
{
closed = 1;
nodes = (
"56 136 OFFCURVE",
"176 -12 OFFCURVE",
"420 -12 CURVE SMOOTH",
"492 -12 OFFCURVE",
"560 4 OFFCURVE",
"604 28 CURVE",
"604 364 LINE",
"508 364 LINE",
"508 46 LINE",
"530 90 LINE",
"498 80 OFFCURVE",
"460 72 OFFCURVE",
"420 72 CURVE SMOOTH",
"256 72 OFFCURVE",
"156 160 OFFCURVE",
"156 360 CURVE SMOOTH",
"156 556 OFFCURVE",
"260 644 OFFCURVE",
"428 644 CURVE SMOOTH",
"496 644 OFFCURVE",
"552 626 OFFCURVE",
"588 608 CURVE",
"596 608 LINE",
"596 700 LINE",
"556 720 OFFCURVE",
"500 732 OFFCURVE",
"428 732 CURVE SMOOTH",
"192 732 OFFCURVE",
"56 584 OFFCURVE",
"56 360 CURVE SMOOTH"
);
}
);
width = 684;
}
);
leftKerningGroup = C;
note = G;
rightKerningGroup = G;
unicode = 0047;
},
{
color = 4;
glyphname = H;
lastChange = "2018-12-17 21:04:34 +0000";
layers = (
{
anchors = (
{
name = bottom;
position = "{392, 0}";
},
{
name = center;
position = "{392, 574}";
},
{
name = top;
position = "{392, 720}";
},
{
name = topleft;
position = "{20, 720}";
}
);
background = {
paths = (
{
closed = 1;
nodes = (
"68 0 LINE",
"280 0 LINE",
"280 264 LINE",
"504 264 LINE",
"504 0 LINE",
"716 0 LINE",
"716 720 LINE",
"504 720 LINE",
"504 448 LINE",
"280 448 LINE",
"280 720 LINE",
"68 720 LINE"
);
}
);
};
hints = (
{
horizontal = 1;
place = "{0, 21}";
target = up;
type = BottomGhost;
},
{
horizontal = 1;
place = "{264, 184}";
type = Stem;
},
{
horizontal = 1;
place = "{720, -20}";
target = down;
type = TopGhost;
},
{
place = "{68, 212}";
type = Stem;
},
{
place = "{504, 212}";
type = Stem;
}
);
layerId = "F2028F70-0529-41D4-9F63-024EA79743CD";
paths = (
{
closed = 1;
nodes = (
"716 0 LINE",
"716 720 LINE",
"504 720 LINE",
"504 0 LINE"
);
},
{
closed = 1;
nodes = (
"280 0 LINE",
"280 720 LINE",
"68 720 LINE",
"68 0 LINE"
);
},
{
closed = 1;
nodes = (
"604 264 LINE",
"604 448 LINE",
"180 448 LINE",
"180 264 LINE"
);
}
);
width = 784;
},
{
anchors = (
{
name = bottom;
position = "{368, 0}";
},
{
name = center;
position = "{368, 580}";
},
{
name = top;
position = "{368, 720}";
},
{
name = topleft;
position = "{20, 720}";
}
);
background = {
paths = (
{
closed = 1;
nodes = (
"96 0 LINE",
"192 0 LINE",
"192 332 LINE",
"544 332 LINE",
"544 0 LINE",
"640 0 LINE",
"640 720 LINE",
"544 720 LINE",
"544 416 LINE",
"192 416 LINE",
"192 720 LINE",
"96 720 LINE"
);
}
);
};
hints = (
{
horizontal = 1;
place = "{0, 21}";
target = up;
type = BottomGhost;
},
{
horizontal = 1;
place = "{332, 84}";
type = Stem;
},
{
horizontal = 1;
place = "{720, -20}";
target = down;
type = TopGhost;
},
{
place = "{96, 96}";
type = Stem;
},
{
place = "{544, 96}";
type = Stem;
}
);
layerId = "3E005A84-7828-4122-B6E8-61930BD9836F";
paths = (
{
closed = 1;
nodes = (
"640 0 LINE",
"640 720 LINE",
"544 720 LINE",
"544 0 LINE"
);
},
{
closed = 1;
nodes = (
"192 0 LINE",
"192 720 LINE",
"96 720 LINE",
"96 0 LINE"
);
},
{
closed = 1;
nodes = (
"584 332 LINE",
"584 416 LINE",
"152 416 LINE",
"152 332 LINE"
);
}
);
width = 736;
}
);
leftKerningGroup = B;
note = H;
rightKerningGroup = A;
unicode = 0048;
},
{
color = 4;
glyphname = I;
lastChange = "2018-12-17 19:15:21 +0000";
layers = (
{
anchors = (
{
name = bottom;
position = "{174, 0}";
},
{
name = ogonek;
position = "{280, 0}";
},
{
name = top;
position = "{174, 720}";
},
{
name = topleft;
position = "{20, 720}";
}
);
hints = (
{
horizontal = 1;
place = "{0, 21}";
target = up;
type = BottomGhost;
},
{
horizontal = 1;
place = "{720, -20}";
target = down;
type = TopGhost;
},
{
place = "{68, 212}";
type = Stem;
}
);
layerId = "F2028F70-0529-41D4-9F63-024EA79743CD";
paths = (
{
closed = 1;
nodes = (
"68 0 LINE",
"280 0 LINE",
"280 720 LINE",
"68 720 LINE"
);
}
);
width = 348;
},
{
anchors = (
{
name = bottom;
position = "{144, 0}";
},
{
name = ogonek;
position = "{192, 0}";
},
{
name = top;
position = "{144, 720}";
},
{
name = topleft;
position = "{20, 720}";
}
);
hints = (
{
horizontal = 1;
place = "{0, 21}";
target = up;
type = BottomGhost;
},
{
horizontal = 1;
place = "{720, -20}";
target = down;
type = TopGhost;
},
{
place = "{96, 96}";
type = Stem;
}
);
layerId = "3E005A84-7828-4122-B6E8-61930BD9836F";
paths = (
{
closed = 1;
nodes = (
"96 0 LINE",
"192 0 LINE",
"192 720 LINE",
"96 720 LINE"
);
}
);
width = 288;
}
);
leftKerningGroup = B;
note = I;
rightKerningGroup = A;
unicode = 0049;
},
{
color = 4;
glyphname = J;
lastChange = "2018-12-17 19:17:21 +0000";
layers = (
{
anchors = (
{
name = bottom;
position = "{242, 0}";
},
{
name = top;
position = "{314, 720}";
}
);
hints = (
{
horizontal = 1;
place = "{0, 21}";
target = up;
type = BottomGhost;
},
{
horizontal = 1;
place = "{720, -20}";
target = down;
type = TopGhost;
},
{
place = "{208, 212}";
type = Stem;
},
{
horizontal = 1;
place = "{-12, 172}";
type = Stem;
}
);
layerId = "F2028F70-0529-41D4-9F63-024EA79743CD";
paths = (
{
closed = 1;
nodes = (
"24 0 LINE",
"52 -8 OFFCURVE",
"96 -12 OFFCURVE",
"136 -12 CURVE SMOOTH",
"292 -12 OFFCURVE",
"420 56 OFFCURVE",
"420 244 CURVE SMOOTH",
"420 720 LINE",
"208 720 LINE",
"208 260 LINE SMOOTH",
"208 188 OFFCURVE",
"172 160 OFFCURVE",
"100 160 CURVE SMOOTH",
"72 160 OFFCURVE",
"56 164 OFFCURVE",
"36 172 CURVE",
"24 172 LINE"
);
}
);
width = 484;
},
{
anchors = (
{
name = bottom;
position = "{206, 0}";
},
{
name = top;
position = "{284, 720}";
}
);
hints = (
{
horizontal = 1;
place = "{0, 21}";
target = up;
type = BottomGhost;
},
{
horizontal = 1;
place = "{720, -20}";
target = down;
type = TopGhost;
},
{
place = "{236, 96}";
type = Stem;
},
{
horizontal = 1;
place = "{-12, 84}";
type = Stem;
}
);
layerId = "3E005A84-7828-4122-B6E8-61930BD9836F";
paths = (
{
closed = 1;
nodes = (
"12 0 LINE",
"36 -6 OFFCURVE",
"76 -12 OFFCURVE",
"112 -12 CURVE SMOOTH",
"256 -12 OFFCURVE",
"332 72 OFFCURVE",
"332 204 CURVE SMOOTH",
"332 720 LINE",
"236 720 LINE",
"236 192 LINE SMOOTH",
"236 116 OFFCURVE",
"192 72 OFFCURVE",
"112 72 CURVE SMOOTH",
"84 72 OFFCURVE",
"36 78 OFFCURVE",
"20 84 CURVE",
"12 84 LINE"
);
}
);
width = 412;
}
);
leftKerningGroup = J;
note = J;
rightKerningGroup = J;
unicode = 004A;
},
{
color = 4;
glyphname = K;
lastChange = "2018-12-17 16:05:59 +0000";
layers = (
{
anchors = (
{
name = bottom;
position = "{362, 0}";
},
{
name = top;
position = "{362, 720}";
}
);
background = {
paths = (
{
closed = 1;
nodes = (
"68 0 LINE",
"280 0 LINE",
"280 232 LINE",
"312 232 LINE SMOOTH",
"322 232 OFFCURVE",
"332 232 OFFCURVE",
"342 233 CURVE",
"480 0 LINE",
"704 0 LINE",
"704 12 LINE",
"518 304 LINE",
"564 346 OFFCURVE",
"588 398 OFFCURVE",
"600 436 CURVE SMOOTH",
"688 708 LINE",
"688 720 LINE",
"480 720 LINE",
"412 488 LINE SMOOTH",
"397 436 OFFCURVE",
"364 412 OFFCURVE",
"300 412 CURVE SMOOTH",
"280 412 LINE",
"280 720 LINE",
"68 720 LINE"
);
}
);
};
hints = (
{
horizontal = 1;
place = "{0, 21}";
target = up;
type = BottomGhost;
},
{
horizontal = 1;
place = "{232, 180}";
type = Stem;
},
{
horizontal = 1;
place = "{720, -20}";
target = down;
type = TopGhost;
},
{
place = "{68, 212}";
type = Stem;
}
);
layerId = "F2028F70-0529-41D4-9F63-024EA79743CD";
paths = (
{
closed = 1;
nodes = (
"454 232 OFFCURVE",
"562 319 OFFCURVE",
"600 436 CURVE SMOOTH",
"688 708 LINE",
"688 720 LINE",
"480 720 LINE",
"412 488 LINE SMOOTH",
"397 436 OFFCURVE",
"364 412 OFFCURVE",
"300 412 CURVE SMOOTH",
"180 412 LINE",
"180 232 LINE",
"312 232 LINE"
);
},
{
closed = 1;
nodes = (
"280 0 LINE",
"280 720 LINE",
"68 720 LINE",
"68 0 LINE"
);
},
{
closed = 1;
nodes = (
"324 264 LINE",
"480 0 LINE",
"704 0 LINE",
"704 12 LINE",
"496 336 LINE"
);
}
);
width = 724;
},
{
anchors = (
{
name = bottom;
position = "{325, 0}";
},
{
name = top;
position = "{325, 720}";
}
);
background = {
paths = (
{
closed = 1;
nodes = (
"114 0 LINE",
"210 0 LINE",
"210 280 LINE",
"290 280 LINE SMOOTH",
"311 280 OFFCURVE",
"330 283 OFFCURVE",
"349 289 CURVE",
"526 0 LINE",
"634 0 LINE",
"634 8 LINE",
"428 335 LINE",
"456 359 OFFCURVE",
"477 390 OFFCURVE",
"492 420 CURVE SMOOTH",
"632 712 LINE",
"632 720 LINE",
"532 720 LINE",
"404 448 LINE SMOOTH",
"382 400 OFFCURVE",
"352 364 OFFCURVE",
"284 364 CURVE SMOOTH",
"210 364 LINE",
"210 720 LINE",
"114 720 LINE"
);
}
);
};
hints = (
{
horizontal = 1;
place = "{0, 21}";
target = up;
type = BottomGhost;
},
{
horizontal = 1;
place = "{280, 84}";
type = Stem;
},
{
horizontal = 1;
place = "{720, -20}";
target = down;
type = TopGhost;
},
{
place = "{114, 96}";
type = Stem;
}
);
layerId = "3E005A84-7828-4122-B6E8-61930BD9836F";
paths = (
{
closed = 1;
nodes = (
"377 280 OFFCURVE",
"435 342 OFFCURVE",
"472 420 CURVE SMOOTH",
"612 712 LINE",
"612 720 LINE",
"512 720 LINE",
"384 448 LINE SMOOTH",
"362 400 OFFCURVE",
"332 364 OFFCURVE",
"264 364 CURVE SMOOTH",
"150 364 LINE",
"150 280 LINE",
"268 280 LINE SMOOTH"
);
},
{
closed = 1;
nodes = (
"192 0 LINE",
"192 720 LINE",
"96 720 LINE",
"96 0 LINE"
);
},
{
closed = 1;
nodes = (
"324 296 LINE",
"506 0 LINE",
"614 0 LINE",
"614 8 LINE",
"400 344 LINE"
);
}
);
width = 650;
}
);
leftKerningGroup = B;
note = K;
rightKerningGroup = K;
unicode = 004B;
},
{
color = 4;
glyphname = L;
lastChange = "2018-12-17 19:12:13 +0000";
layers = (
{
anchors = (
{
name = bottom;
position = "{286, 0}";
},
{
name = center;
position = "{232, 394}";
},
{
name = periodCAT;
position = "{420, 432}";
},
{
name = top;
position = "{286, 720}";
},
{
name = topright;
position = "{552, 720}";
}
);
hints = (
{
horizontal = 1;
place = "{0, 184}";
type = Stem;
},
{
horizontal = 1;
place = "{720, -20}";
target = down;
type = TopGhost;
},
{
place = "{68, 212}";
type = Stem;
}
);
layerId = "F2028F70-0529-41D4-9F63-024EA79743CD";
paths = (
{
closed = 1;
nodes = (
"68 0 LINE",
"540 0 LINE",
"540 184 LINE",
"280 184 LINE",
"280 720 LINE",
"68 720 LINE"
);
}
);
width = 572;
},
{
anchors = (
{
name = bottom;
position = "{266, 0}";
},
{
name = center;
position = "{188, 382}";
},
{
name = periodCAT;
position = "{368, 392}";
},
{
name = top;
position = "{266, 720}";
},
{
name = topright;
position = "{512, 720}";
}
);
hints = (
{
horizontal = 1;
place = "{0, 84}";
type = Stem;
},
{
horizontal = 1;
place = "{720, -20}";
target = down;
type = TopGhost;
},
{
place = "{96, 96}";
type = Stem;
}
);
layerId = "3E005A84-7828-4122-B6E8-61930BD9836F";
paths = (
{
closed = 1;
nodes = (
"96 0 LINE",
"500 0 LINE",
"500 84 LINE",
"192 84 LINE",
"192 720 LINE",
"96 720 LINE"
);
}
);
width = 532;
}
);
leftKerningGroup = B;
note = L;
rightKerningGroup = L;
unicode = 004C;
},
{
color = 4;
glyphname = M;
lastChange = "2018-12-17 16:05:59 +0000";
layers = (
{
anchors = (
{
name = bottom;
position = "{448, 0}";
},
{
name = top;
position = "{448, 720}";
}
);
hints = (
{
horizontal = 1;
place = "{0, 21}";
target = up;
type = BottomGhost;
},
{
horizontal = 1;
place = "{720, -20}";
target = down;
type = TopGhost;
},
{
place = "{68, 212}";
type = Stem;
},
{
place = "{616, 212}";
type = Stem;
}
);
layerId = "F2028F70-0529-41D4-9F63-024EA79743CD";
paths = (
{
closed = 1;
nodes = (
"280 0 LINE",
"280 418 LINE",
"236 406 LINE",
"404 124 LINE",
"492 124 LINE",
"659 412 LINE",
"616 423 LINE",
"616 0 LINE",
"828 0 LINE",
"828 720 LINE",
"648 720 LINE",
"407 304 LINE",
"494 305 LINE",
"248 720 LINE",
"68 720 LINE",
"68 0 LINE"
);
}
);
width = 896;
},
{
anchors = (
{
name = bottom;
position = "{410, 0}";
},
{
name = top;
position = "{410, 720}";
}
);
background = {
paths = (
{
closed = 1;
nodes = (
"96 0 LINE",
"192 0 LINE",
"192 525 LINE",
"372 248 LINE",
"448 248 LINE",
"628 525 LINE",
"628 0 LINE",
"724 0 LINE",
"724 720 LINE",
"644 720 LINE",
"410 356 LINE",
"176 720 LINE",
"96 720 LINE"
);
}
);
};
hints = (
{
horizontal = 1;
place = "{0, 21}";
target = up;
type = BottomGhost;
},
{
horizontal = 1;
place = "{720, -20}";
target = down;
type = TopGhost;
},
{
place = "{96, 96}";
type = Stem;
},
{
place = "{628, 96}";
type = Stem;
}
);
layerId = "3E005A84-7828-4122-B6E8-61930BD9836F";
paths = (
{
closed = 1;
nodes = (
"192 0 LINE",
"192 563 LINE",
"171 557 LINE",
"372 248 LINE",
"448 248 LINE",
"649 557 LINE",
"628 563 LINE",
"628 0 LINE",
"724 0 LINE",
"724 720 LINE",
"644 720 LINE",
"390 324 LINE",
"430 324 LINE",
"176 720 LINE",
"96 720 LINE",
"96 0 LINE"
);
}
);
width = 820;
}
);
note = M;
unicode = 004D;
},
{
color = 4;
glyphname = N;
lastChange = "2018-12-17 16:05:59 +0000";
layers = (
{
anchors = (
{
name = bottom;
position = "{392, 0}";
},
{
name = top;
position = "{392, 720}";
}
);
background = {
paths = (
{
closed = 1;
nodes = (
"68 0 LINE",
"280 0 LINE",
"280 401 LINE",
"508 175 LINE",
"508 0 LINE",
"720 0 LINE",
"720 720 LINE",
"508 720 LINE",
"508 451 LINE",
"236 720 LINE",
"68 720 LINE"
);
}
);
};
hints = (
{
horizontal = 1;
place = "{0, 21}";
target = up;
type = BottomGhost;
},
{
horizontal = 1;
place = "{720, -20}";
target = down;
type = TopGhost;
},
{
place = "{68, 212}";
type = Stem;
},
{
place = "{508, 212}";
type = Stem;
}
);
layerId = "F2028F70-0529-41D4-9F63-024EA79743CD";
paths = (
{
closed = 1;
nodes = (
"280 0 LINE",
"280 487 LINE",
"219 462 LINE",
"568 116 LINE",
"568 392 LINE",
"236 720 LINE",
"68 720 LINE",
"68 0 LINE"
);
},
{
closed = 1;
nodes = (
"716 0 LINE",
"716 720 LINE",
"504 720 LINE",
"504 0 LINE"
);
}
);
width = 784;
},
{
anchors = (
{
name = bottom;
position = "{368, 0}";
},
{
name = top;
position = "{368, 720}";
}
);
background = {
paths = (
{
closed = 1;
nodes = (
"96 0 LINE",
"192 0 LINE",
"192 568 LINE",
"544 196 LINE",
"544 0 LINE",
"640 0 LINE",
"640 720 LINE",
"544 720 LINE",
"544 331 LINE",
"176 720 LINE",
"96 720 LINE"
);
}
);
};
hints = (
{
horizontal = 1;
place = "{0, 21}";
target = up;
type = BottomGhost;
},
{
horizontal = 1;
place = "{720, -20}";
target = down;
type = TopGhost;
},
{
place = "{96, 96}";
type = Stem;
},
{
place = "{544, 96}";
type = Stem;
}
);
layerId = "3E005A84-7828-4122-B6E8-61930BD9836F";
paths = (
{
closed = 1;
nodes = (
"192 0 LINE",
"192 606 LINE",
"166 595 LINE",
"590 148 LINE",
"590 283 LINE",
"176 720 LINE",
"96 720 LINE",
"96 0 LINE"
);
},
{
closed = 1;
nodes = (
"640 0 LINE",
"640 720 LINE",
"544 720 LINE",
"544 0 LINE"
);
}
);
width = 736;
}
);
leftKerningGroup = B;
note = N;
rightKerningGroup = A;
unicode = 004E;
},
{
color = 4;
glyphname = O;
lastChange = "2018-12-20 13:59:35 +0000";
layers = (
{
anchors = (
{
name = bottom;
position = "{416, 0}";
},
{
name = center;
position = "{416, 360}";
},
{
name = ogonek;
position = "{749, 10}";
},
{
name = top;
position = "{416, 720}";
},
{
name = topleft;
position = "{20, 720}";
},
{
name = topright;
position = "{525, 720}";
}
);
hints = (
{
horizontal = 1;
place = "{-12, 176}";
type = Stem;
},
{
horizontal = 1;
place = "{556, 176}";
type = Stem;
},
{
place = "{36, 216}";
type = Stem;
},
{
place = "{580, 216}";
type = Stem;
}
);
layerId = "F2028F70-0529-41D4-9F63-024EA79743CD";
paths = (
{
closed = 1;
nodes = (
"36 136 OFFCURVE",
"172 -12 OFFCURVE",
"416 -12 CURVE SMOOTH",
"660 -12 OFFCURVE",
"796 140 OFFCURVE",
"796 360 CURVE SMOOTH",
"796 580 OFFCURVE",
"660 732 OFFCURVE",
"416 732 CURVE SMOOTH",
"172 732 OFFCURVE",
"36 580 OFFCURVE",
"36 360 CURVE SMOOTH"
);
},
{
closed = 1;
nodes = (
"252 468 OFFCURVE",
"300 556 OFFCURVE",
"416 556 CURVE SMOOTH",
"532 556 OFFCURVE",
"580 468 OFFCURVE",
"580 360 CURVE SMOOTH",
"580 252 OFFCURVE",
"532 164 OFFCURVE",
"416 164 CURVE SMOOTH",
"300 164 OFFCURVE",
"252 252 OFFCURVE",
"252 360 CURVE SMOOTH"
);
}
);
width = 832;
},
{
anchors = (
{
name = bottom;
position = "{392, 0}";
},
{
name = center;
position = "{392, 360}";
},
{
name = ogonek;
position = "{706, 10}";
},
{
name = top;
position = "{392, 720}";
},
{
name = topleft;
position = "{20, 720}";
},
{
name = topright;
position = "{469, 720}";
}
);
hints = (
{
horizontal = 1;
place = "{-12, 88}";
type = Stem;
},
{
horizontal = 1;
place = "{644, 88}";
type = Stem;
},
{
place = "{56, 100}";
type = Stem;
},
{
place = "{628, 100}";
type = Stem;
}
);
layerId = "3E005A84-7828-4122-B6E8-61930BD9836F";
paths = (
{
closed = 1;
nodes = (
"56 140 OFFCURVE",
"182 -12 OFFCURVE",
"392 -12 CURVE SMOOTH",
"600 -12 OFFCURVE",
"728 140 OFFCURVE",
"728 360 CURVE SMOOTH",
"728 580 OFFCURVE",
"600 732 OFFCURVE",
"392 732 CURVE SMOOTH",
"184 732 OFFCURVE",
"56 580 OFFCURVE",
"56 360 CURVE SMOOTH"
);
},
{
closed = 1;
nodes = (
"156 544 OFFCURVE",
"248 644 OFFCURVE",
"392 644 CURVE SMOOTH",
"536 644 OFFCURVE",
"628 544 OFFCURVE",
"628 360 CURVE SMOOTH",
"628 176 OFFCURVE",
"536 76 OFFCURVE",
"392 76 CURVE SMOOTH",
"248 76 OFFCURVE",
"156 176 OFFCURVE",
"156 360 CURVE SMOOTH"
);
}
);
width = 784;
}
);
leftKerningGroup = C;
note = O;
rightKerningGroup = D;
unicode = 004F;
},
{
color = 4;
glyphname = P;
lastChange = "2018-12-17 16:05:59 +0000";
layers = (
{
anchors = (
{
name = bottom;
position = "{356, 0}";
},
{
name = top;
position = "{356, 720}";
}
);
background = {
paths = (
{
closed = 1;
nodes = (
"68 0 LINE",
"280 0 LINE",
"280 160 LINE",
"356 160 LINE SMOOTH",
"564 160 OFFCURVE",
"680 284 OFFCURVE",
"680 464 CURVE SMOOTH",
"680 620 OFFCURVE",
"580 720 OFFCURVE",
"372 720 CURVE SMOOTH",
"68 720 LINE"
);
},
{
closed = 1;
nodes = (
"376 544 LINE SMOOTH",
"432 544 OFFCURVE",
"472 516 OFFCURVE",
"472 456 CURVE SMOOTH",
"472 388 OFFCURVE",
"440 328 OFFCURVE",
"348 328 CURVE SMOOTH",
"280 328 LINE",
"280 544 LINE"
);
}
);
};
hints = (
{
horizontal = 1;
place = "{0, 21}";
target = up;
type = BottomGhost;
},
{
horizontal = 1;
place = "{160, 168}";
type = Stem;
},
{
horizontal = 1;
place = "{544, 176}";
type = Stem;
},
{
place = "{68, 212}";
type = Stem;
},
{
place = "{472, 208}";
type = Stem;
}
);
layerId = "F2028F70-0529-41D4-9F63-024EA79743CD";
paths = (
{
closed = 1;
nodes = (
"356 160 LINE SMOOTH",
"564 160 OFFCURVE",
"680 284 OFFCURVE",
"680 464 CURVE SMOOTH",
"680 620 OFFCURVE",
"580 720 OFFCURVE",
"372 720 CURVE SMOOTH",
"180 720 LINE",
"180 544 LINE",
"376 544 LINE SMOOTH",
"432 544 OFFCURVE",
"472 516 OFFCURVE",
"472 456 CURVE SMOOTH",
"472 388 OFFCURVE",
"440 328 OFFCURVE",
"348 328 CURVE SMOOTH",
"180 328 LINE",
"180 160 LINE"
);
},
{
closed = 1;
nodes = (
"280 0 LINE",
"280 720 LINE",
"68 720 LINE",
"68 0 LINE"
);
}
);
width = 712;
},
{
anchors = (
{
name = bottom;
position = "{310, 0}";
},
{
name = top;
position = "{310, 720}";
}
);
background = {
paths = (
{
closed = 1;
nodes = (
"96 0 LINE",
"192 0 LINE",
"192 240 LINE",
"308 240 LINE SMOOTH",
"500 240 OFFCURVE",
"580 380 OFFCURVE",
"580 512 CURVE SMOOTH",
"580 652 OFFCURVE",
"488 720 OFFCURVE",
"352 720 CURVE SMOOTH",
"96 720 LINE"
);
},
{
closed = 1;
nodes = (
"348 636 LINE SMOOTH",
"428 636 OFFCURVE",
"480 604 OFFCURVE",
"480 512 CURVE SMOOTH",
"480 408 OFFCURVE",
"428 324 OFFCURVE",
"308 324 CURVE SMOOTH",
"192 324 LINE",
"192 636 LINE"
);
}
);
};
hints = (
{
horizontal = 1;
place = "{0, 21}";
target = up;
type = BottomGhost;
},
{
horizontal = 1;
place = "{240, 84}";
type = Stem;
},
{
horizontal = 1;
place = "{636, 84}";
type = Stem;
},
{
place = "{96, 96}";
type = Stem;
},
{
place = "{480, 100}";
type = Stem;
}
);
layerId = "3E005A84-7828-4122-B6E8-61930BD9836F";
paths = (
{
closed = 1;
nodes = (
"308 240 LINE SMOOTH",
"500 240 OFFCURVE",
"580 380 OFFCURVE",
"580 512 CURVE SMOOTH",
"580 652 OFFCURVE",
"488 720 OFFCURVE",
"352 720 CURVE SMOOTH",
"152 720 LINE",
"152 636 LINE",
"348 636 LINE SMOOTH",
"428 636 OFFCURVE",
"480 604 OFFCURVE",
"480 512 CURVE SMOOTH",
"480 408 OFFCURVE",
"428 324 OFFCURVE",
"308 324 CURVE SMOOTH",
"152 324 LINE",
"152 240 LINE"
);
},
{
closed = 1;
nodes = (
"192 0 LINE",
"192 720 LINE",
"96 720 LINE",
"96 0 LINE"
);
}
);
width = 620;
}
);
leftKerningGroup = B;
note = P;
rightKerningGroup = P;
unicode = 0050;
},
{
color = 4;
glyphname = Q;
lastChange = "2018-12-17 16:05:59 +0000";
layers = (
{
anchors = (
{
name = bottom;
position = "{416, 0}";
},
{
name = top;
position = "{416, 720}";
}
);
background = {
paths = (
{
closed = 1;
nodes = (
"798 -160 LINE",
"798 -148 LINE",
"613 31 LINE",
"732 91 OFFCURVE",
"796 209 OFFCURVE",
"796 360 CURVE SMOOTH",
"796 580 OFFCURVE",
"660 732 OFFCURVE",
"416 732 CURVE SMOOTH",
"172 732 OFFCURVE",
"36 580 OFFCURVE",
"36 360 CURVE SMOOTH",
"36 136 OFFCURVE",
"171 -11 OFFCURVE",
"414 -11 CURVE SMOOTH",
"434 -11 OFFCURVE",
"455 -10 OFFCURVE",
"477 -8 CURVE",
"343 49 LINE",
"560 -160 LINE"
);
},
{
closed = 1;
nodes = (
"300 164 OFFCURVE",
"252 252 OFFCURVE",
"252 360 CURVE SMOOTH",
"252 468 OFFCURVE",
"300 556 OFFCURVE",
"416 556 CURVE SMOOTH",
"532 556 OFFCURVE",
"580 468 OFFCURVE",
"580 360 CURVE SMOOTH",
"580 252 OFFCURVE",
"532 164 OFFCURVE",
"416 164 CURVE SMOOTH"
);
}
);
};
components = (
{
name = O;
}
);
hints = (
{
horizontal = 1;
place = "{-160, 12}";
type = Stem;
},
{
horizontal = 1;
place = "{556, 176}";
type = Stem;
},
{
place = "{36, 216}";
type = Stem;
},
{
place = "{580, 216}";
type = Stem;
}
);
layerId = "F2028F70-0529-41D4-9F63-024EA79743CD";
paths = (
{
closed = 1;
nodes = (
"798 -160 LINE",
"798 -148 LINE",
"560 82 LINE",
"343 49 LINE",
"560 -160 LINE"
);
}
);
width = 832;
},
{
anchors = (
{
name = bottom;
position = "{392, 0}";
},
{
name = top;
position = "{392, 720}";
}
);
background = {
paths = (
{
closed = 1;
nodes = (
"764 -158 LINE",
"764 -150 LINE",
"552 25 LINE",
"664 83 OFFCURVE",
"728 204 OFFCURVE",
"728 360 CURVE SMOOTH",
"728 580 OFFCURVE",
"600 732 OFFCURVE",
"392 732 CURVE SMOOTH",
"184 732 OFFCURVE",
"56 580 OFFCURVE",
"56 360 CURVE SMOOTH",
"56 140 OFFCURVE",
"182 -12 OFFCURVE",
"392 -12 CURVE SMOOTH",
"422 -12 OFFCURVE",
"451 -8 OFFCURVE",
"475 -3 CURVE",
"424 17 LINE",
"632 -158 LINE"
);
},
{
closed = 1;
nodes = (
"248 76 OFFCURVE",
"156 176 OFFCURVE",
"156 360 CURVE SMOOTH",
"156 544 OFFCURVE",
"248 644 OFFCURVE",
"392 644 CURVE SMOOTH",
"536 644 OFFCURVE",
"628 544 OFFCURVE",
"628 360 CURVE SMOOTH",
"628 176 OFFCURVE",
"536 76 OFFCURVE",
"392 76 CURVE SMOOTH"
);
}
);
};
components = (
{
name = O;
}
);
hints = (
{
horizontal = 1;
place = "{-158, 8}";
type = Stem;
},
{
horizontal = 1;
place = "{-12, 88}";
type = Stem;
},
{
horizontal = 1;
place = "{644, 88}";
type = Stem;
},
{
place = "{56, 100}";
type = Stem;
},
{
place = "{628, 100}";
type = Stem;
}
);
layerId = "3E005A84-7828-4122-B6E8-61930BD9836F";
paths = (
{
closed = 1;
nodes = (
"764 -158 LINE",
"764 -150 LINE",
"520 48 LINE",
"424 20 LINE",
"632 -158 LINE"
);
}
);
width = 784;
}
);
leftKerningGroup = C;
note = Q;
rightKerningGroup = D;
unicode = 0051;
},
{
color = 4;
glyphname = R;
lastChange = "2018-12-17 16:05:59 +0000";
layers = (
{
anchors = (
{
name = bottom;
position = "{372, 0}";
},
{
name = top;
position = "{372, 720}";
}
);
background = {
paths = (
{
closed = 1;
nodes = (
"68 0 LINE",
"280 0 LINE",
"280 152 LINE",
"340 152 LINE SMOOTH",
"351 152 OFFCURVE",
"362 152 OFFCURVE",
"373 153 CURVE",
"472 0 LINE",
"704 0 LINE",
"704 12 LINE",
"557 208 LINE",
"642 262 OFFCURVE",
"692 350 OFFCURVE",
"692 460 CURVE SMOOTH",
"692 616 OFFCURVE",
"593 720 OFFCURVE",
"376 720 CURVE SMOOTH",
"68 720 LINE"
);
},
{
closed = 1;
nodes = (
"376 544 LINE SMOOTH",
"438 544 OFFCURVE",
"480 516 OFFCURVE",
"480 452 CURVE SMOOTH",
"480 384 OFFCURVE",
"444 320 OFFCURVE",
"348 320 CURVE SMOOTH",
"280 320 LINE",
"280 544 LINE"
);
}
);
};
hints = (
{
horizontal = 1;
place = "{0, 21}";
target = up;
type = BottomGhost;
},
{
horizontal = 1;
place = "{152, 168}";
type = Stem;
},
{
horizontal = 1;
place = "{544, 176}";
type = Stem;
},
{
place = "{68, 212}";
type = Stem;
},
{
place = "{480, 212}";
type = Stem;
}
);
layerId = "F2028F70-0529-41D4-9F63-024EA79743CD";
paths = (
{
closed = 1;
nodes = (
"356 152 LINE SMOOTH",
"532 152 OFFCURVE",
"692 270 OFFCURVE",
"692 460 CURVE SMOOTH",
"692 616 OFFCURVE",
"593 720 OFFCURVE",
"376 720 CURVE SMOOTH",
"180 720 LINE",
"180 544 LINE",
"376 544 LINE SMOOTH",
"438 544 OFFCURVE",
"480 516 OFFCURVE",
"480 452 CURVE SMOOTH",
"480 384 OFFCURVE",
"444 320 OFFCURVE",
"348 320 CURVE SMOOTH",
"180 320 LINE",
"180 152 LINE"
);
},
{
closed = 1;
nodes = (
"280 0 LINE",
"280 720 LINE",
"68 720 LINE",
"68 0 LINE"
);
},
{
closed = 1;
nodes = (
"704 0 LINE",
"704 12 LINE",
"541 228 LINE",
"348 192 LINE",
"472 0 LINE"
);
}
);
width = 744;
},
{
anchors = (
{
name = bottom;
position = "{330, 0}";
},
{
name = top;
position = "{330, 720}";
}
);
background = {
paths = (
{
closed = 1;
nodes = (
"96 0 LINE",
"192 0 LINE",
"192 216 LINE",
"320 216 LINE SMOOTH",
"332 216 OFFCURVE",
"343 217 OFFCURVE",
"355 218 CURVE",
"524 0 LINE",
"636 0 LINE",
"636 4 LINE",
"447 244 LINE",
"546 294 OFFCURVE",
"592 401 OFFCURVE",
"592 496 CURVE SMOOTH",
"592 640 OFFCURVE",
"500 720 OFFCURVE",
"356 720 CURVE SMOOTH",
"96 720 LINE"
);
},
{
closed = 1;
nodes = (
"352 636 LINE SMOOTH",
"436 636 OFFCURVE",
"492 592 OFFCURVE",
"492 496 CURVE SMOOTH",
"492 396 OFFCURVE",
"436 304 OFFCURVE",
"324 304 CURVE SMOOTH",
"192 304 LINE",
"192 636 LINE"
);
}
);
};
hints = (
{
horizontal = 1;
place = "{0, 21}";
target = up;
type = BottomGhost;
},
{
horizontal = 1;
place = "{216, 88}";
type = Stem;
},
{
horizontal = 1;
place = "{636, 84}";
type = Stem;
},
{
place = "{96, 96}";
type = Stem;
},
{
place = "{492, 100}";
type = Stem;
}
);
layerId = "3E005A84-7828-4122-B6E8-61930BD9836F";
paths = (
{
closed = 1;
nodes = (
"320 216 LINE SMOOTH",
"460 216 OFFCURVE",
"592 316 OFFCURVE",
"592 496 CURVE SMOOTH",
"592 640 OFFCURVE",
"500 720 OFFCURVE",
"356 720 CURVE SMOOTH",
"152 720 LINE",
"152 636 LINE",
"352 636 LINE SMOOTH",
"436 636 OFFCURVE",
"492 592 OFFCURVE",
"492 496 CURVE SMOOTH",
"492 396 OFFCURVE",
"436 304 OFFCURVE",
"324 304 CURVE SMOOTH",
"152 304 LINE",
"152 216 LINE"
);
},
{
closed = 1;
nodes = (
"192 0 LINE",
"192 720 LINE",
"96 720 LINE",
"96 0 LINE"
);
},
{
closed = 1;
nodes = (
"636 0 LINE",
"636 4 LINE",
"436 256 LINE",
"336 244 LINE",
"524 0 LINE"
);
}
);
width = 660;
}
);
leftKerningGroup = B;
note = R;
rightKerningGroup = R;
unicode = 0052;
},
{
color = 4;
glyphname = S;
lastChange = "2018-12-17 16:05:59 +0000";
layers = (
{
anchors = (
{
name = bottom;
position = "{324, 0}";
},
{
name = top;
position = "{324, 720}";
}
);
hints = (
{
horizontal = 1;
place = "{-12, 168}";
type = Stem;
},
{
horizontal = 1;
place = "{564, 168}";
type = Stem;
},
{
place = "{28, 204}";
type = Stem;
},
{
place = "{412, 208}";
type = Stem;
}
);
layerId = "F2028F70-0529-41D4-9F63-024EA79743CD";
paths = (
{
closed = 1;
nodes = (
"52 28 LINE",
"100 8 OFFCURVE",
"200 -12 OFFCURVE",
"292 -12 CURVE SMOOTH",
"468 -12 OFFCURVE",
"620 40 OFFCURVE",
"620 204 CURVE SMOOTH",
"620 348 OFFCURVE",
"512 399 OFFCURVE",
"388 418 CURVE SMOOTH",
"336 426 LINE SMOOTH",
"259 438 OFFCURVE",
"232 452 OFFCURVE",
"232 492 CURVE SMOOTH",
"232 540 OFFCURVE",
"272 564 OFFCURVE",
"368 564 CURVE SMOOTH",
"448 564 OFFCURVE",
"520 544 OFFCURVE",
"564 524 CURVE",
"576 524 LINE",
"576 700 LINE",
"532 718 OFFCURVE",
"460 732 OFFCURVE",
"384 732 CURVE SMOOTH",
"128 732 OFFCURVE",
"28 632 OFFCURVE",
"28 480 CURVE SMOOTH",
"28 356 OFFCURVE",
"106 282 OFFCURVE",
"276 258 CURVE SMOOTH",
"332 250 LINE SMOOTH",
"396 241 OFFCURVE",
"412 228 OFFCURVE",
"412 200 CURVE SMOOTH",
"412 168 OFFCURVE",
"376 156 OFFCURVE",
"292 156 CURVE SMOOTH",
"207 156 OFFCURVE",
"114 186 OFFCURVE",
"64 212 CURVE",
"52 212 LINE"
);
}
);
width = 648;
},
{
anchors = (
{
name = bottom;
position = "{292, 0}";
},
{
name = top;
position = "{292, 720}";
}
);
hints = (
{
horizontal = 1;
place = "{-12, 88}";
type = Stem;
},
{
horizontal = 1;
place = "{644, 88}";
type = Stem;
},
{
place = "{56, 96}";
type = Stem;
},
{
place = "{438, 96}";
type = Stem;
}
);
layerId = "3E005A84-7828-4122-B6E8-61930BD9836F";
paths = (
{
closed = 1;
nodes = (
"64 24 LINE",
"116 4 OFFCURVE",
"188 -12 OFFCURVE",
"272 -12 CURVE SMOOTH",
"428 -12 OFFCURVE",
"534 52 OFFCURVE",
"534 184 CURVE SMOOTH",
"534 292 OFFCURVE",
"465 346 OFFCURVE",
"364 364 CURVE SMOOTH",
"276 380 LINE SMOOTH",
"199 394 OFFCURVE",
"152 420 OFFCURVE",
"152 504 CURVE SMOOTH",
"152 604 OFFCURVE",
"240 644 OFFCURVE",
"352 644 CURVE SMOOTH",
"420 644 OFFCURVE",
"468 628 OFFCURVE",
"500 612 CURVE",
"508 612 LINE",
"508 704 LINE",
"472 720 OFFCURVE",
"412 732 OFFCURVE",
"356 732 CURVE SMOOTH",
"176 732 OFFCURVE",
"56 660 OFFCURVE",
"56 500 CURVE SMOOTH",
"56 372 OFFCURVE",
"139 314 OFFCURVE",
"240 296 CURVE SMOOTH",
"328 280 LINE SMOOTH",
"401 267 OFFCURVE",
"438 244 OFFCURVE",
"438 180 CURVE SMOOTH",
"438 100 OFFCURVE",
"368 76 OFFCURVE",
"272 76 CURVE SMOOTH",
"188 76 OFFCURVE",
"120 92 OFFCURVE",
"72 118 CURVE",
"64 118 LINE"
);
}
);
width = 584;
}
);
leftKerningGroup = S;
note = S;
rightKerningGroup = S;
unicode = 0053;
},
{
color = 4;
glyphname = T;
lastChange = "2018-12-17 16:05:59 +0000";
layers = (
{
anchors = (
{
name = bottom;
position = "{326, 0}";
},
{
name = center;
position = "{326, 360}";
},
{
name = top;
position = "{326, 720}";
}
);
hints = (
{
horizontal = 1;
place = "{0, 21}";
target = up;
type = BottomGhost;
},
{
horizontal = 1;
place = "{536, 184}";
type = Stem;
},
{
place = "{224, 212}";
type = Stem;
}
);
layerId = "F2028F70-0529-41D4-9F63-024EA79743CD";
paths = (
{
closed = 1;
nodes = (
"20 536 LINE",
"220 536 LINE",
"220 0 LINE",
"432 0 LINE",
"432 536 LINE",
"632 536 LINE",
"632 720 LINE",
"20 720 LINE"
);
}
);
width = 652;
},
{
anchors = (
{
name = bottom;
position = "{292, 0}";
},
{
name = center;
position = "{292, 360}";
},
{
name = top;
position = "{292, 720}";
}
);
hints = (
{
horizontal = 1;
place = "{0, 21}";
target = up;
type = BottomGhost;
},
{
horizontal = 1;
place = "{636, 84}";
type = Stem;
},
{
place = "{244, 96}";
type = Stem;
}
);
layerId = "3E005A84-7828-4122-B6E8-61930BD9836F";
paths = (
{
closed = 1;
nodes = (
"12 636 LINE",
"244 636 LINE",
"244 0 LINE",
"340 0 LINE",
"340 636 LINE",
"572 636 LINE",
"572 720 LINE",
"12 720 LINE"
);
}
);
width = 584;
}
);
leftKerningGroup = T;
note = T;
rightKerningGroup = T;
unicode = 0054;
},
{
color = 4;
glyphname = U;
lastChange = "2018-12-20 13:59:49 +0000";
layers = (
{
anchors = (
{
name = bottom;
position = "{386, 0}";
},
{
name = ogonek;
position = "{695, 10}";
},
{
name = top;
position = "{386, 720}";
},
{
name = topright;
position = "{648, 720}";
}
);
hints = (
{
horizontal = 1;
place = "{-12, 176}";
type = Stem;
},
{
horizontal = 1;
place = "{720, -20}";
target = down;
type = TopGhost;
},
{
place = "{64, 212}";
type = Stem;
},
{
place = "{496, 212}";
type = Stem;
}
);
layerId = "F2028F70-0529-41D4-9F63-024EA79743CD";
paths = (
{
closed = 1;
nodes = (
"64 312 LINE SMOOTH",
"64 100 OFFCURVE",
"156 -12 OFFCURVE",
"384 -12 CURVE SMOOTH",
"608 -12 OFFCURVE",
"708 100 OFFCURVE",
"708 312 CURVE SMOOTH",
"708 720 LINE",
"496 720 LINE",
"496 300 LINE SMOOTH",
"496 216 OFFCURVE",
"468 164 OFFCURVE",
"384 164 CURVE SMOOTH",
"300 164 OFFCURVE",
"276 216 OFFCURVE",
"276 300 CURVE SMOOTH",
"276 720 LINE",
"64 720 LINE"
);
}
);
width = 772;
},
{
anchors = (
{
name = bottom;
position = "{352, 0}";
},
{
name = ogonek;
position = "{634, 10}";
},
{
name = top;
position = "{352, 720}";
},
{
name = topright;
position = "{604, 720}";
}
);
hints = (
{
horizontal = 1;
place = "{-12, 88}";
type = Stem;
},
{
horizontal = 1;
place = "{720, -20}";
target = down;
type = TopGhost;
},
{
place = "{88, 96}";
type = Stem;
},
{
place = "{520, 96}";
type = Stem;
}
);
layerId = "3E005A84-7828-4122-B6E8-61930BD9836F";
paths = (
{
closed = 1;
nodes = (
"88 268 LINE SMOOTH",
"88 84 OFFCURVE",
"176 -12 OFFCURVE",
"352 -12 CURVE SMOOTH",
"524 -12 OFFCURVE",
"616 84 OFFCURVE",
"616 268 CURVE SMOOTH",
"616 720 LINE",
"520 720 LINE",
"520 268 LINE SMOOTH",
"520 128 OFFCURVE",
"464 76 OFFCURVE",
"352 76 CURVE SMOOTH",
"240 76 OFFCURVE",
"184 128 OFFCURVE",
"184 268 CURVE SMOOTH",
"184 720 LINE",
"88 720 LINE"
);
}
);
width = 704;
}
);
leftKerningGroup = U;
note = U;
rightKerningGroup = U;
unicode = 0055;
},
{
color = 4;
glyphname = V;
lastChange = "2018-12-17 16:05:59 +0000";
layers = (
{
anchors = (
{
name = bottom;
position = "{354, 0}";
},
{
name = top;
position = "{354, 720}";
}
);
background = {
paths = (
{
closed = 1;
nodes = (
"60 12 LINE",
"115 0 OFFCURVE",
"177 -8 OFFCURVE",
"236 -8 CURVE SMOOTH",
"432 -8 OFFCURVE",
"567 23 OFFCURVE",
"600 228 CURVE SMOOTH",
"680 720 LINE",
"468 720 LINE",
"396 260 LINE SMOOTH",
"386 197 OFFCURVE",
"360 168 OFFCURVE",
"284 168 CURVE SMOOTH",
"281 168 OFFCURVE",
"277 168 OFFCURVE",
"274 168 CURVE",
"277 186 OFFCURVE",
"280 208 OFFCURVE",
"280 232 CURVE SMOOTH",
"280 720 LINE",
"68 720 LINE",
"68 184 LINE SMOOTH",
"68 144 OFFCURVE",
"64 60 OFFCURVE",
"56 24 CURVE"
);
}
);
};
hints = (
{
horizontal = 1;
place = "{-8, 176}";
type = Stem;
},
{
horizontal = 1;
place = "{720, -20}";
target = down;
type = TopGhost;
},
{
place = "{68, 212}";
type = Stem;
}
);
layerId = "F2028F70-0529-41D4-9F63-024EA79743CD";
paths = (
{
closed = 1;
nodes = (
"60 12 LINE",
"115 0 OFFCURVE",
"177 -8 OFFCURVE",
"236 -8 CURVE SMOOTH",
"432 -8 OFFCURVE",
"567 23 OFFCURVE",
"600 228 CURVE SMOOTH",
"680 720 LINE",
"468 720 LINE",
"396 260 LINE SMOOTH",
"386 197 OFFCURVE",
"360 168 OFFCURVE",
"284 168 CURVE SMOOTH",
"271 168 OFFCURVE",
"256 170 OFFCURVE",
"244 172 CURVE",
"264 131 LINE",
"270 148 OFFCURVE",
"280 187 OFFCURVE",
"280 232 CURVE SMOOTH",
"280 720 LINE",
"68 720 LINE",
"68 184 LINE SMOOTH",
"68 144 OFFCURVE",
"64 60 OFFCURVE",
"56 24 CURVE"
);
}
);
width = 708;
},
{
anchors = (
{
name = bottom;
position = "{323, 0}";
},
{
name = top;
position = "{323, 720}";
}
);
background = {
paths = (
{
closed = 1;
nodes = (
"92 4 LINE",
"144 -8 OFFCURVE",
"188 -12 OFFCURVE",
"236 -12 CURVE SMOOTH",
"436 -12 OFFCURVE",
"502 76 OFFCURVE",
"526 236 CURVE SMOOTH",
"598 720 LINE",
"500 720 LINE",
"428 232 LINE SMOOTH",
"413 133 OFFCURVE",
"372 72 OFFCURVE",
"240 72 CURVE SMOOTH",
"220 72 OFFCURVE",
"204 73 OFFCURVE",
"190 75 CURVE",
"191 90 OFFCURVE",
"192 107 OFFCURVE",
"192 124 CURVE SMOOTH",
"192 720 LINE",
"96 720 LINE",
"96 176 LINE SMOOTH",
"96 136 OFFCURVE",
"96 56 OFFCURVE",
"90 16 CURVE"
);
}
);
};
hints = (
{
horizontal = 1;
place = "{-12, 84}";
type = Stem;
},
{
horizontal = 1;
place = "{720, -20}";
target = down;
type = TopGhost;
},
{
place = "{96, 96}";
type = Stem;
}
);
layerId = "3E005A84-7828-4122-B6E8-61930BD9836F";
paths = (
{
closed = 1;
nodes = (
"92 4 LINE",
"144 -8 OFFCURVE",
"188 -12 OFFCURVE",
"236 -12 CURVE SMOOTH",
"436 -12 OFFCURVE",
"502 76 OFFCURVE",
"526 236 CURVE SMOOTH",
"598 720 LINE",
"500 720 LINE",
"428 232 LINE SMOOTH",
"413 133 OFFCURVE",
"372 72 OFFCURVE",
"240 72 CURVE SMOOTH",
"210 72 OFFCURVE",
"189 74 OFFCURVE",
"170 79 CURVE",
"189 54 LINE",
"190 73 OFFCURVE",
"192 98 OFFCURVE",
"192 124 CURVE SMOOTH",
"192 720 LINE",
"96 720 LINE",
"96 176 LINE SMOOTH",
"96 136 OFFCURVE",
"96 56 OFFCURVE",
"90 16 CURVE"
);
}
);
width = 646;
}
);
leftKerningGroup = B;
note = V;
rightKerningGroup = V;
unicode = 0056;
},
{
color = 4;
glyphname = W;
lastChange = "2018-12-17 16:05:59 +0000";
layers = (
{
anchors = (
{
name = bottom;
position = "{562, 0}";
},
{
name = top;
position = "{562, 720}";
}
);
background = {
paths = (
{
closed = 1;
nodes = (
"369 -8 OFFCURVE",
"485 58 OFFCURVE",
"533 170 CURVE SMOOTH",
"561 235 LINE",
"508 248 LINE",
"512 179 LINE SMOOTH",
"516 123 OFFCURVE",
"516 75 OFFCURVE",
"512 24 CURVE",
"514 12 LINE",
"569 0 OFFCURVE",
"633 -8 OFFCURVE",
"692 -8 CURVE SMOOTH",
"865 -8 OFFCURVE",
"1000 63 OFFCURVE",
"1028 240 CURVE SMOOTH",
"1104 720 LINE",
"892 720 LINE",
"824 260 LINE SMOOTH",
"815 198 OFFCURVE",
"770 168 OFFCURVE",
"690 168 CURVE SMOOTH",
"669 168 OFFCURVE",
"645 170 OFFCURVE",
"619 174 CURVE",
"701 125 LINE",
"704 157 OFFCURVE",
"703 203 OFFCURVE",
"700 260 CURVE SMOOTH",
"664 720 LINE",
"464 720 LINE",
"485 458 LINE",
"420 272 LINE SMOOTH",
"399 213 OFFCURVE",
"372 168 OFFCURVE",
"292 168 CURVE",
"290 168 OFFCURVE",
"289 168 OFFCURVE",
"287 168 CURVE",
"287 194 OFFCURVE",
"286 225 OFFCURVE",
"284 260 CURVE SMOOTH",
"248 720 LINE",
"36 720 LINE",
"80 184 LINE SMOOTH",
"83 144 OFFCURVE",
"88 68 OFFCURVE",
"84 24 CURVE",
"88 12 LINE",
"137 -2 OFFCURVE",
"173 -8 OFFCURVE",
"220 -8 CURVE SMOOTH"
);
}
);
};
hints = (
{
horizontal = 1;
place = "{-8, 176}";
type = Stem;
},
{
horizontal = 1;
place = "{720, -20}";
target = down;
type = TopGhost;
},
{
place = "{84, 203}";
type = Stem;
},
{
place = "{512, 192}";
type = Stem;
}
);
layerId = "F2028F70-0529-41D4-9F63-024EA79743CD";
paths = (
{
closed = 1;
nodes = (
"865 -8 OFFCURVE",
"1000 63 OFFCURVE",
"1028 240 CURVE SMOOTH",
"1104 720 LINE",
"892 720 LINE",
"824 260 LINE SMOOTH",
"815 198 OFFCURVE",
"770 168 OFFCURVE",
"690 168 CURVE SMOOTH",
"669 168 OFFCURVE",
"645 170 OFFCURVE",
"619 174 CURVE",
"701 125 LINE",
"704 157 OFFCURVE",
"704 203 OFFCURVE",
"700 260 CURVE SMOOTH",
"664 720 LINE",
"464 720 LINE",
"512 179 LINE SMOOTH",
"515 123 OFFCURVE",
"516 75 OFFCURVE",
"512 24 CURVE",
"514 12 LINE",
"569 0 OFFCURVE",
"633 -8 OFFCURVE",
"692 -8 CURVE SMOOTH"
);
},
{
closed = 1;
nodes = (
"369 -8 OFFCURVE",
"485 58 OFFCURVE",
"533 170 CURVE SMOOTH",
"561 235 LINE",
"525 573 LINE",
"420 272 LINE SMOOTH",
"399 213 OFFCURVE",
"372 168 OFFCURVE",
"292 168 CURVE SMOOTH",
"280 168 OFFCURVE",
"263 169 OFFCURVE",
"248 172 CURVE",
"288 125 LINE",
"286 157 OFFCURVE",
"289 203 OFFCURVE",
"284 260 CURVE SMOOTH",
"248 720 LINE",
"36 720 LINE",
"80 184 LINE SMOOTH",
"83 144 OFFCURVE",
"88 68 OFFCURVE",
"84 24 CURVE",
"88 12 LINE",
"137 -2 OFFCURVE",
"173 -8 OFFCURVE",
"220 -8 CURVE SMOOTH"
);
}
);
width = 1124;
},
{
anchors = (
{
name = bottom;
position = "{522, 0}";
},
{
name = top;
position = "{522, 720}";
}
);
background = {
paths = (
{
closed = 1;
nodes = (
"418 -12 OFFCURVE",
"462 77 OFFCURVE",
"496 236 CURVE SMOOTH",
"514 320 LINE",
"502 321 LINE",
"518 176 LINE SMOOTH",
"522 136 OFFCURVE",
"526 56 OFFCURVE",
"524 16 CURVE",
"526 4 LINE",
"578 -8 OFFCURVE",
"614 -12 OFFCURVE",
"662 -12 CURVE SMOOTH",
"826 -12 OFFCURVE",
"880 77 OFFCURVE",
"912 236 CURVE SMOOTH",
"1008 720 LINE",
"910 720 LINE",
"814 232 LINE SMOOTH",
"795 134 OFFCURVE",
"762 72 OFFCURVE",
"666 72 CURVE SMOOTH",
"630 72 OFFCURVE",
"619 75 OFFCURVE",
"595 82 CURVE",
"616 53 LINE",
"616 90 OFFCURVE",
"615 145 OFFCURVE",
"612 176 CURVE SMOOTH",
"554 720 LINE",
"456 720 LINE",
"477 535 LINE",
"414 232 LINE SMOOTH",
"394 134 OFFCURVE",
"362 72 OFFCURVE",
"266 72 CURVE SMOOTH",
"230 72 OFFCURVE",
"219 77 OFFCURVE",
"195 82 CURVE",
"216 53 LINE",
"216 90 OFFCURVE",
"216 145 OFFCURVE",
"212 176 CURVE SMOOTH",
"154 720 LINE",
"56 720 LINE",
"118 176 LINE SMOOTH",
"123 136 OFFCURVE",
"126 56 OFFCURVE",
"124 16 CURVE",
"126 4 LINE",
"178 -8 OFFCURVE",
"214 -12 OFFCURVE",
"262 -12 CURVE SMOOTH"
);
}
);
};
hints = (
{
horizontal = 1;
place = "{-12, 84}";
type = Stem;
},
{
horizontal = 1;
place = "{720, -20}";
target = down;
type = TopGhost;
},
{
place = "{121, 95}";
type = Stem;
},
{
place = "{521, 95}";
type = Stem;
}
);
layerId = "3E005A84-7828-4122-B6E8-61930BD9836F";
paths = (
{
closed = 1;
nodes = (
"826 -12 OFFCURVE",
"880 77 OFFCURVE",
"912 236 CURVE SMOOTH",
"1008 720 LINE",
"910 720 LINE",
"814 232 LINE SMOOTH",
"795 134 OFFCURVE",
"762 72 OFFCURVE",
"666 72 CURVE SMOOTH",
"630 72 OFFCURVE",
"619 75 OFFCURVE",
"595 82 CURVE",
"616 53 LINE",
"616 90 OFFCURVE",
"615 145 OFFCURVE",
"612 176 CURVE SMOOTH",
"554 720 LINE",
"456 720 LINE",
"518 176 LINE SMOOTH",
"522 136 OFFCURVE",
"526 56 OFFCURVE",
"524 16 CURVE",
"526 4 LINE",
"578 -8 OFFCURVE",
"614 -12 OFFCURVE",
"662 -12 CURVE SMOOTH"
);
},
{
closed = 1;
nodes = (
"418 -12 OFFCURVE",
"462 77 OFFCURVE",
"496 236 CURVE SMOOTH",
"514 320 LINE",
"488 584 LINE",
"414 232 LINE SMOOTH",
"394 135 OFFCURVE",
"362 72 OFFCURVE",
"266 72 CURVE SMOOTH",
"230 72 OFFCURVE",
"219 77 OFFCURVE",
"195 82 CURVE",
"216 53 LINE",
"216 90 OFFCURVE",
"216 145 OFFCURVE",
"212 176 CURVE SMOOTH",
"154 720 LINE",
"56 720 LINE",
"118 176 LINE SMOOTH",
"123 136 OFFCURVE",
"126 56 OFFCURVE",
"124 16 CURVE",
"126 4 LINE",
"178 -8 OFFCURVE",
"214 -12 OFFCURVE",
"262 -12 CURVE SMOOTH"
);
}
);
width = 1044;
}
);
leftKerningGroup = W;
note = W;
rightKerningGroup = W;
unicode = 0057;
},
{
color = 4;
glyphname = X;
lastChange = "2018-12-17 16:05:59 +0000";
layers = (
{
anchors = (
{
name = bottom;
position = "{362, 0}";
},
{
name = top;
position = "{362, 720}";
}
);
background = {
paths = (
{
closed = 1;
nodes = (
"8 0 LINE",
"240 0 LINE",
"357 191 LINE",
"488 0 LINE",
"720 0 LINE",
"720 12 LINE",
"475 369 LINE",
"716 708 LINE",
"716 720 LINE",
"488 720 LINE",
"367 528 LINE",
"236 720 LINE",
"4 720 LINE",
"4 708 LINE",
"248 350 LINE",
"8 12 LINE"
);
}
);
};
hints = (
{
horizontal = 1;
place = "{0, 21}";
target = up;
type = BottomGhost;
},
{
horizontal = 1;
place = "{720, -20}";
target = down;
type = TopGhost;
},
{
place = "{4, 716}";
type = Stem;
}
);
layerId = "F2028F70-0529-41D4-9F63-024EA79743CD";
paths = (
{
closed = 1;
nodes = (
"720 0 LINE",
"720 12 LINE",
"432 428 LINE",
"236 720 LINE",
"4 720 LINE",
"4 708 LINE",
"292 292 LINE",
"488 0 LINE"
);
},
{
closed = 1;
nodes = (
"236 0 LINE",
"424 296 LINE",
"716 708 LINE",
"716 720 LINE",
"488 720 LINE",
"300 424 LINE",
"8 12 LINE",
"8 0 LINE"
);
}
);
width = 724;
},
{
anchors = (
{
name = bottom;
position = "{328, 0}";
},
{
name = top;
position = "{328, 720}";
}
);
background = {
paths = (
{
closed = 1;
nodes = (
"32 0 LINE",
"136 0 LINE",
"324 280 LINE",
"516 0 LINE",
"624 0 LINE",
"624 8 LINE",
"380 363 LINE",
"620 712 LINE",
"620 720 LINE",
"516 720 LINE",
"328 440 LINE",
"136 720 LINE",
"28 720 LINE",
"28 712 LINE",
"271 357 LINE",
"32 8 LINE"
);
}
);
};
hints = (
{
horizontal = 1;
place = "{0, 21}";
target = up;
type = BottomGhost;
},
{
horizontal = 1;
place = "{720, -20}";
target = down;
type = TopGhost;
},
{
place = "{28, 596}";
type = Stem;
}
);
layerId = "3E005A84-7828-4122-B6E8-61930BD9836F";
paths = (
{
closed = 1;
nodes = (
"628 0 LINE",
"628 8 LINE",
"356 399 LINE",
"140 720 LINE",
"28 720 LINE",
"28 712 LINE",
"300 321 LINE",
"516 0 LINE"
);
},
{
closed = 1;
nodes = (
"136 0 LINE",
"352 321 LINE",
"620 712 LINE",
"620 720 LINE",
"516 720 LINE",
"300 399 LINE",
"32 8 LINE",
"32 0 LINE"
);
}
);
width = 656;
}
);
leftKerningGroup = X;
note = X;
rightKerningGroup = X;
unicode = 0058;
},
{
color = 4;
glyphname = Y;
lastChange = "2018-12-17 19:24:26 +0000";
layers = (
{
anchors = (
{
name = bottom;
position = "{334, 0}";
},
{
name = top;
position = "{338, 720}";
},
{
name = topleft;
position = "{20, 720}";
}
);
background = {
paths = (
{
closed = 1;
nodes = (
"228 0 LINE",
"440 0 LINE",
"440 298 LINE",
"676 708 LINE",
"676 720 LINE",
"456 720 LINE",
"344 480 LINE",
"220 720 LINE",
"0 720 LINE",
"0 708 LINE",
"228 298 LINE"
);
}
);
};
hints = (
{
horizontal = 1;
place = "{0, 21}";
target = up;
type = BottomGhost;
},
{
horizontal = 1;
place = "{720, -20}";
target = down;
type = TopGhost;
},
{
place = "{228, 212}";
type = Stem;
}
);
layerId = "F2028F70-0529-41D4-9F63-024EA79743CD";
paths = (
{
closed = 1;
nodes = (
"440 0 LINE",
"440 298 LINE",
"676 708 LINE",
"676 720 LINE",
"456 720 LINE",
"307 402 LINE",
"384 403 LINE",
"220 720 LINE",
"0 720 LINE",
"0 708 LINE",
"228 298 LINE",
"228 0 LINE"
);
}
);
width = 676;
},
{
anchors = (
{
name = bottom;
position = "{308, 0}";
},
{
name = top;
position = "{306, 720}";
},
{
name = topleft;
position = "{20, 720}";
}
);
background = {
paths = (
{
closed = 1;
nodes = (
"260 0 LINE",
"356 0 LINE",
"356 306 LINE",
"604 712 LINE",
"604 720 LINE",
"500 720 LINE",
"309 395 LINE",
"116 720 LINE",
"8 720 LINE",
"8 712 LINE",
"260 300 LINE"
);
}
);
};
hints = (
{
horizontal = 1;
place = "{0, 21}";
target = up;
type = BottomGhost;
},
{
horizontal = 1;
place = "{720, -20}";
target = down;
type = TopGhost;
},
{
place = "{260, 96}";
type = Stem;
}
);
layerId = "3E005A84-7828-4122-B6E8-61930BD9836F";
paths = (
{
closed = 1;
nodes = (
"356 0 LINE",
"356 306 LINE",
"604 712 LINE",
"604 720 LINE",
"500 720 LINE",
"290 362 LINE",
"328 362 LINE",
"116 720 LINE",
"8 720 LINE",
"8 712 LINE",
"260 300 LINE",
"260 0 LINE"
);
}
);
width = 612;
}
);
leftKerningGroup = Y;
note = Y;
rightKerningGroup = Y;
unicode = 0059;
},
{
color = 4;
glyphname = Z;
lastChange = "2018-12-17 16:05:59 +0000";
layers = (
{
anchors = (
{
name = bottom;
position = "{332, 0}";
},
{
name = top;
position = "{332, 720}";
}
);
background = {
paths = (
{
closed = 1;
nodes = (
"48 0 LINE",
"626 0 LINE",
"626 184 LINE",
"320 184 LINE",
"588 564 LINE SMOOTH",
"610 596 OFFCURVE",
"624 624 OFFCURVE",
"624 664 CURVE SMOOTH",
"624 676 OFFCURVE",
"621 696 OFFCURVE",
"618 708 CURVE",
"606 720 LINE",
"44 720 LINE",
"44 536 LINE",
"334 536 LINE",
"66 156 LINE SMOOTH",
"44 124 OFFCURVE",
"30 96 OFFCURVE",
"30 56 CURVE SMOOTH",
"30 44 OFFCURVE",
"32 26 OFFCURVE",
"36 12 CURVE"
);
}
);
};
hints = (
{
horizontal = 1;
place = "{0, 184}";
type = Stem;
},
{
horizontal = 1;
place = "{536, 184}";
type = Stem;
},
{
place = "{30, 596}";
type = Stem;
}
);
layerId = "F2028F70-0529-41D4-9F63-024EA79743CD";
paths = (
{
closed = 1;
nodes = (
"626 0 LINE",
"626 184 LINE",
"234 184 LINE",
"270 113 LINE",
"588 564 LINE SMOOTH",
"610 596 OFFCURVE",
"624 624 OFFCURVE",
"624 664 CURVE SMOOTH",
"624 676 OFFCURVE",
"621 696 OFFCURVE",
"618 708 CURVE",
"606 720 LINE",
"44 720 LINE",
"44 536 LINE",
"420 536 LINE",
"384 607 LINE",
"66 156 LINE SMOOTH",
"44 124 OFFCURVE",
"30 96 OFFCURVE",
"30 56 CURVE SMOOTH",
"30 44 OFFCURVE",
"32 26 OFFCURVE",
"36 12 CURVE",
"48 0 LINE"
);
}
);
width = 664;
},
{
anchors = (
{
name = bottom;
position = "{293, 0}";
},
{
name = top;
position = "{293, 720}";
}
);
background = {
paths = (
{
closed = 1;
nodes = (
"54 0 LINE",
"546 0 LINE",
"546 84 LINE",
"173 84 LINE",
"510 632 LINE SMOOTH",
"524 655 OFFCURVE",
"531 671 OFFCURVE",
"534 683 CURVE SMOOTH",
"537 696 OFFCURVE",
"536 705 OFFCURVE",
"534 712 CURVE",
"526 720 LINE",
"50 720 LINE",
"50 636 LINE",
"406 636 LINE",
"70 88 LINE SMOOTH",
"56 66 OFFCURVE",
"49 49 OFFCURVE",
"46 37 CURVE",
"44 24 OFFCURVE",
"45 16 OFFCURVE",
"46 8 CURVE"
);
}
);
};
hints = (
{
horizontal = 1;
place = "{0, 84}";
type = Stem;
},
{
horizontal = 1;
place = "{636, 84}";
type = Stem;
},
{
place = "{45, 501}";
type = Stem;
}
);
layerId = "3E005A84-7828-4122-B6E8-61930BD9836F";
paths = (
{
closed = 1;
nodes = (
"546 0 LINE",
"546 84 LINE",
"135 84 LINE",
"153 48 LINE",
"510 632 LINE SMOOTH",
"524 655 OFFCURVE",
"536 678 OFFCURVE",
"536 699 CURVE SMOOTH",
"536 703 OFFCURVE",
"535 708 OFFCURVE",
"534 712 CURVE",
"526 720 LINE",
"50 720 LINE",
"50 636 LINE",
"444 636 LINE",
"426 672 LINE",
"70 88 LINE SMOOTH",
"54 62 OFFCURVE",
"45 44 OFFCURVE",
"45 21 CURVE SMOOTH",
"45 17 OFFCURVE",
"45 13 OFFCURVE",
"46 8 CURVE",
"54 0 LINE"
);
}
);
width = 586;
}
);
leftKerningGroup = Z;
note = Z;
rightKerningGroup = Z;
unicode = 005A;
},
{
color = 4;
glyphname = a;
lastChange = "2018-12-17 20:58:16 +0000";
layers = (
{
anchors = (
{
name = bottom;
position = "{308, 0}";
},
{
name = ogonek;
position = "{564, 32}";
},
{
name = top;
position = "{308, 548}";
}
);
background = {
paths = (
{
closed = 1;
nodes = (
"36 32 OFFCURVE",
"132 -12 OFFCURVE",
"316 -12 CURVE SMOOTH",
"412 -12 OFFCURVE",
"500 4 OFFCURVE",
"564 20 CURVE",
"568 28 LINE",
"558 64 OFFCURVE",
"556 144 OFFCURVE",
"556 188 CURVE SMOOTH",
"556 316 LINE SMOOTH",
"556 512 OFFCURVE",
"437 564 OFFCURVE",
"260 564 CURVE SMOOTH",
"188 564 OFFCURVE",
"128 556 OFFCURVE",
"80 544 CURVE",
"80 388 LINE",
"92 388 LINE",
"124 402 OFFCURVE",
"176 412 OFFCURVE",
"236 412 CURVE SMOOTH",
"312 412 OFFCURVE",
"352 396 OFFCURVE",
"352 332 CURVE SMOOTH",
"352 331 LINE",
"333 333 OFFCURVE",
"305 336 OFFCURVE",
"276 336 CURVE SMOOTH",
"140 336 OFFCURVE",
"36 288 OFFCURVE",
"36 164 CURVE SMOOTH"
);
},
{
closed = 1;
nodes = (
"345 122 OFFCURVE",
"323 120 OFFCURVE",
"304 120 CURVE SMOOTH",
"256 120 OFFCURVE",
"228 132 OFFCURVE",
"228 168 CURVE SMOOTH",
"228 204 OFFCURVE",
"252 220 OFFCURVE",
"308 220 CURVE SMOOTH",
"329 220 OFFCURVE",
"343 218 OFFCURVE",
"352 217 CURVE",
"352 216 LINE SMOOTH",
"352 179 OFFCURVE",
"356 148 OFFCURVE",
"363 127 CURVE"
);
}
);
};
hints = (
{
horizontal = 1;
place = "{-12, 132}";
type = Stem;
},
{
horizontal = 1;
place = "{220, 116}";
type = Stem;
},
{
horizontal = 1;
place = "{412, 152}";
type = Stem;
},
{
place = "{36, 192}";
type = Stem;
},
{
place = "{352, 204}";
type = Stem;
}
);
layerId = "F2028F70-0529-41D4-9F63-024EA79743CD";
paths = (
{
closed = 1;
nodes = (
"412 -12 OFFCURVE",
"492 6 OFFCURVE",
"564 32 CURVE",
"568 40 LINE",
"558 76 OFFCURVE",
"556 156 OFFCURVE",
"556 200 CURVE SMOOTH",
"556 316 LINE SMOOTH",
"556 512 OFFCURVE",
"437 564 OFFCURVE",
"260 564 CURVE SMOOTH",
"188 564 OFFCURVE",
"128 556 OFFCURVE",
"80 544 CURVE",
"80 388 LINE",
"92 388 LINE",
"124 402 OFFCURVE",
"176 412 OFFCURVE",
"236 412 CURVE SMOOTH",
"312 412 OFFCURVE",
"352 396 OFFCURVE",
"352 332 CURVE SMOOTH",
"352 260 LINE SMOOTH",
"352 156 OFFCURVE",
"354 144 OFFCURVE",
"376 93 CURVE",
"398 151 LINE",
"390 128 OFFCURVE",
"341 120 OFFCURVE",
"304 120 CURVE SMOOTH",
"256 120 OFFCURVE",
"228 132 OFFCURVE",
"228 168 CURVE SMOOTH",
"228 204 OFFCURVE",
"252 220 OFFCURVE",
"308 220 CURVE SMOOTH",
"332 220 OFFCURVE",
"360 216 OFFCURVE",
"372 212 CURVE",
"372 328 LINE",
"340 334 OFFCURVE",
"308 336 OFFCURVE",
"276 336 CURVE SMOOTH",
"140 336 OFFCURVE",
"36 288 OFFCURVE",
"36 164 CURVE SMOOTH",
"36 32 OFFCURVE",
"132 -12 OFFCURVE",
"316 -12 CURVE SMOOTH"
);
}
);
width = 616;
},
{
anchors = (
{
name = bottom;
position = "{295, 0}";
},
{
name = ogonek;
position = "{508, 28}";
},
{
name = top;
position = "{295, 544}";
}
);
background = {
paths = (
{
closed = 1;
nodes = (
"52 44 OFFCURVE",
"130 -12 OFFCURVE",
"286 -12 CURVE SMOOTH",
"346 -12 OFFCURVE",
"442 4 OFFCURVE",
"508 28 CURVE",
"510 36 LINE",
"502 72 OFFCURVE",
"502 160 OFFCURVE",
"502 200 CURVE SMOOTH",
"502 332 LINE SMOOTH",
"502 520 OFFCURVE",
"398 556 OFFCURVE",
"266 556 CURVE SMOOTH",
"214 556 OFFCURVE",
"150 546 OFFCURVE",
"102 526 CURVE",
"102 444 LINE",
"110 444 LINE",
"142 460 OFFCURVE",
"202 476 OFFCURVE",
"254 476 CURVE SMOOTH",
"358 476 OFFCURVE",
"410 456 OFFCURVE",
"410 328 CURVE SMOOTH",
"410 313 LINE",
"385 321 OFFCURVE",
"339 332 OFFCURVE",
"286 332 CURVE SMOOTH",
"142 332 OFFCURVE",
"52 276 OFFCURVE",
"52 160 CURVE SMOOTH"
);
},
{
closed = 1;
nodes = (
"376 70 OFFCURVE",
"334 64 OFFCURVE",
"290 64 CURVE SMOOTH",
"194 64 OFFCURVE",
"142 92 OFFCURVE",
"142 160 CURVE SMOOTH",
"142 232 OFFCURVE",
"194 256 OFFCURVE",
"302 256 CURVE SMOOTH",
"344 256 OFFCURVE",
"382 248 OFFCURVE",
"410 241 CURVE",
"410 148 LINE SMOOTH",
"410 123 OFFCURVE",
"411 100 OFFCURVE",
"414 81 CURVE"
);
}
);
};
hints = (
{
horizontal = 1;
place = "{-12, 76}";
type = Stem;
},
{
horizontal = 1;
place = "{256, 76}";
type = Stem;
},
{
horizontal = 1;
place = "{476, 80}";
type = Stem;
},
{
place = "{52, 90}";
type = Stem;
},
{
place = "{410, 92}";
type = Stem;
}
);
layerId = "3E005A84-7828-4122-B6E8-61930BD9836F";
paths = (
{
closed = 1;
nodes = (
"346 -12 OFFCURVE",
"442 4 OFFCURVE",
"508 28 CURVE",
"510 36 LINE",
"502 72 OFFCURVE",
"502 160 OFFCURVE",
"502 200 CURVE SMOOTH",
"502 332 LINE SMOOTH",
"502 520 OFFCURVE",
"398 556 OFFCURVE",
"266 556 CURVE SMOOTH",
"214 556 OFFCURVE",
"150 546 OFFCURVE",
"102 526 CURVE",
"102 444 LINE",
"110 444 LINE",
"142 460 OFFCURVE",
"202 476 OFFCURVE",
"254 476 CURVE SMOOTH",
"358 476 OFFCURVE",
"410 456 OFFCURVE",
"410 328 CURVE SMOOTH",
"410 148 LINE SMOOTH",
"410 114 OFFCURVE",
"412 83 OFFCURVE",
"418 61 CURVE",
"436 88 LINE",
"393 73 OFFCURVE",
"343 64 OFFCURVE",
"290 64 CURVE SMOOTH",
"194 64 OFFCURVE",
"142 92 OFFCURVE",
"142 160 CURVE SMOOTH",
"142 232 OFFCURVE",
"194 256 OFFCURVE",
"302 256 CURVE SMOOTH",
"348 256 OFFCURVE",
"408 244 OFFCURVE",
"444 232 CURVE",
"444 304 LINE",
"408 316 OFFCURVE",
"360 332 OFFCURVE",
"286 332 CURVE SMOOTH",
"142 332 OFFCURVE",
"52 276 OFFCURVE",
"52 160 CURVE SMOOTH",
"52 44 OFFCURVE",
"130 -12 OFFCURVE",
"286 -12 CURVE SMOOTH"
);
}
);
width = 590;
}
);
leftKerningGroup = a;
note = a;
rightKerningGroup = a;
unicode = 0061;
},
{
color = 4;
glyphname = b;
lastChange = "2018-12-17 16:05:59 +0000";
layers = (
{
anchors = (
{
name = bottom;
position = "{342, 0}";
},
{
name = top;
position = "{342, 760}";
}
);
background = {
paths = (
{
closed = 1;
nodes = (
"64 12 LINE",
"116 0 OFFCURVE",
"202 -12 OFFCURVE",
"268 -12 CURVE SMOOTH",
"488 -12 OFFCURVE",
"644 64 OFFCURVE",
"644 276 CURVE SMOOTH",
"644 448 OFFCURVE",
"551 556 OFFCURVE",
"380 556 CURVE SMOOTH",
"342 556 OFFCURVE",
"309 549 OFFCURVE",
"280 539 CURVE",
"280 760 LINE",
"60 760 LINE",
"56 752 LINE",
"65 716 OFFCURVE",
"68 576 OFFCURVE",
"68 536 CURVE SMOOTH",
"68 176 LINE SMOOTH",
"68 136 OFFCURVE",
"68 56 OFFCURVE",
"60 20 CURVE"
);
},
{
closed = 1;
nodes = (
"280 400 LINE",
"290 402 OFFCURVE",
"302 404 OFFCURVE",
"316 404 CURVE SMOOTH",
"392 404 OFFCURVE",
"428 352 OFFCURVE",
"428 272 CURVE SMOOTH",
"428 196 OFFCURVE",
"396 136 OFFCURVE",
"312 136 CURVE SMOOTH",
"301 136 OFFCURVE",
"289 137 OFFCURVE",
"278 138 CURVE",
"279 154 OFFCURVE",
"280 172 OFFCURVE",
"280 192 CURVE SMOOTH"
);
}
);
};
hints = (
{
horizontal = 1;
place = "{-12, 148}";
type = Stem;
},
{
horizontal = 1;
place = "{404, 152}";
type = Stem;
},
{
horizontal = 1;
place = "{760, -20}";
target = down;
type = TopGhost;
},
{
place = "{68, 212}";
type = Stem;
},
{
place = "{428, 216}";
type = Stem;
}
);
layerId = "F2028F70-0529-41D4-9F63-024EA79743CD";
paths = (
{
closed = 1;
nodes = (
"488 -12 OFFCURVE",
"644 64 OFFCURVE",
"644 280 CURVE SMOOTH",
"644 456 OFFCURVE",
"551 564 OFFCURVE",
"380 564 CURVE SMOOTH",
"337 564 OFFCURVE",
"297 556 OFFCURVE",
"248 536 CURVE",
"248 400 LINE",
"262 406 OFFCURVE",
"296 412 OFFCURVE",
"316 412 CURVE SMOOTH",
"392 412 OFFCURVE",
"428 360 OFFCURVE",
"428 276 CURVE SMOOTH",
"428 196 OFFCURVE",
"396 136 OFFCURVE",
"312 136 CURVE SMOOTH",
"282 136 OFFCURVE",
"246 143 OFFCURVE",
"240 138 CURVE",
"276 94 LINE",
"276 118 OFFCURVE",
"280 151 OFFCURVE",
"280 192 CURVE SMOOTH",
"280 760 LINE",
"60 760 LINE",
"56 752 LINE",
"65 716 OFFCURVE",
"68 576 OFFCURVE",
"68 536 CURVE SMOOTH",
"68 188 LINE SMOOTH",
"68 148 OFFCURVE",
"68 68 OFFCURVE",
"60 32 CURVE",
"64 24 LINE",
"120 4 OFFCURVE",
"201 -12 OFFCURVE",
"276 -12 CURVE SMOOTH"
);
}
);
width = 684;
},
{
anchors = (
{
name = bottom;
position = "{309, 0}";
},
{
name = top;
position = "{309, 760}";
}
);
background = {
paths = (
{
closed = 1;
nodes = (
"90 24 LINE",
"142 4 OFFCURVE",
"216 -12 OFFCURVE",
"284 -12 CURVE SMOOTH",
"460 -12 OFFCURVE",
"566 96 OFFCURVE",
"566 276 CURVE SMOOTH",
"566 448 OFFCURVE",
"464 556 OFFCURVE",
"292 556 CURVE SMOOTH",
"253 556 OFFCURVE",
"214 548 OFFCURVE",
"188 540 CURVE",
"188 760 LINE",
"90 760 LINE",
"88 752 LINE",
"96 716 OFFCURVE",
"96 628 OFFCURVE",
"96 588 CURVE SMOOTH",
"96 196 LINE SMOOTH",
"96 156 OFFCURVE",
"96 68 OFFCURVE",
"88 32 CURVE"
);
},
{
closed = 1;
nodes = (
"188 463 LINE",
"207 469 OFFCURVE",
"239 476 OFFCURVE",
"284 476 CURVE SMOOTH",
"408 476 OFFCURVE",
"472 400 OFFCURVE",
"472 276 CURVE SMOOTH",
"472 140 OFFCURVE",
"412 68 OFFCURVE",
"284 68 CURVE SMOOTH",
"248 68 OFFCURVE",
"213 74 OFFCURVE",
"184 82 CURVE",
"187 101 OFFCURVE",
"188 124 OFFCURVE",
"188 148 CURVE SMOOTH"
);
}
);
};
hints = (
{
horizontal = 1;
place = "{-12, 80}";
type = Stem;
},
{
horizontal = 1;
place = "{476, 80}";
type = Stem;
},
{
horizontal = 1;
place = "{760, -20}";
target = down;
type = TopGhost;
},
{
place = "{96, 92}";
type = Stem;
},
{
place = "{472, 94}";
type = Stem;
}
);
layerId = "3E005A84-7828-4122-B6E8-61930BD9836F";
paths = (
{
closed = 1;
nodes = (
"460 -12 OFFCURVE",
"566 96 OFFCURVE",
"566 276 CURVE SMOOTH",
"566 448 OFFCURVE",
"464 556 OFFCURVE",
"292 556 CURVE SMOOTH",
"252 556 OFFCURVE",
"202 548 OFFCURVE",
"156 528 CURVE",
"156 452 LINE",
"208 469 OFFCURVE",
"232 476 OFFCURVE",
"284 476 CURVE SMOOTH",
"408 476 OFFCURVE",
"472 400 OFFCURVE",
"472 276 CURVE SMOOTH",
"472 140 OFFCURVE",
"412 68 OFFCURVE",
"284 68 CURVE SMOOTH",
"239 68 OFFCURVE",
"196 77 OFFCURVE",
"164 88 CURVE",
"180 60 LINE",
"184 80 OFFCURVE",
"188 108 OFFCURVE",
"188 148 CURVE SMOOTH",
"188 760 LINE",
"90 760 LINE",
"88 752 LINE",
"96 716 OFFCURVE",
"96 628 OFFCURVE",
"96 588 CURVE SMOOTH",
"96 196 LINE SMOOTH",
"96 156 OFFCURVE",
"96 68 OFFCURVE",
"88 32 CURVE",
"90 24 LINE",
"142 4 OFFCURVE",
"216 -12 OFFCURVE",
"284 -12 CURVE SMOOTH"
);
}
);
width = 618;
}
);
leftKerningGroup = b;
note = b;
rightKerningGroup = b;
unicode = 0062;
},
{
color = 4;
glyphname = c;
lastChange = "2018-12-17 16:05:59 +0000";
layers = (
{
anchors = (
{
name = bottom;
position = "{264, 0}";
},
{
name = top;
position = "{264, 548}";
}
);
hints = (
{
horizontal = 1;
place = "{-12, 164}";
type = Stem;
},
{
horizontal = 1;
place = "{400, 164}";
type = Stem;
},
{
place = "{40, 216}";
type = Stem;
},
{
horizontal = 1;
place = "{548, -20}";
target = down;
type = TopGhost;
}
);
layerId = "F2028F70-0529-41D4-9F63-024EA79743CD";
paths = (
{
closed = 1;
nodes = (
"40 68 OFFCURVE",
"178 -12 OFFCURVE",
"368 -12 CURVE SMOOTH",
"412 -12 OFFCURVE",
"456 -6 OFFCURVE",
"488 4 CURVE",
"488 168 LINE",
"476 168 LINE",
"456 160 OFFCURVE",
"432 152 OFFCURVE",
"396 152 CURVE SMOOTH",
"304 152 OFFCURVE",
"256 196 OFFCURVE",
"256 276 CURVE SMOOTH",
"256 356 OFFCURVE",
"304 400 OFFCURVE",
"396 400 CURVE SMOOTH",
"432 400 OFFCURVE",
"456 392 OFFCURVE",
"476 384 CURVE",
"488 384 LINE",
"488 548 LINE",
"456 558 OFFCURVE",
"412 564 OFFCURVE",
"368 564 CURVE SMOOTH",
"184 564 OFFCURVE",
"40 484 OFFCURVE",
"40 276 CURVE SMOOTH"
);
}
);
width = 528;
},
{
anchors = (
{
name = bottom;
position = "{252, 0}";
},
{
name = top;
position = "{252, 544}";
}
);
hints = (
{
horizontal = 1;
place = "{-8, 80}";
type = Stem;
},
{
horizontal = 1;
place = "{476, 80}";
type = Stem;
},
{
place = "{52, 94}";
type = Stem;
}
);
layerId = "3E005A84-7828-4122-B6E8-61930BD9836F";
paths = (
{
closed = 1;
nodes = (
"52 96 OFFCURVE",
"160 -8 OFFCURVE",
"344 -8 CURVE SMOOTH",
"392 -8 OFFCURVE",
"436 0 OFFCURVE",
"468 14 CURVE",
"468 96 LINE",
"460 96 LINE",
"432 82 OFFCURVE",
"392 72 OFFCURVE",
"344 72 CURVE SMOOTH",
"224 72 OFFCURVE",
"146 140 OFFCURVE",
"146 274 CURVE SMOOTH",
"146 408 OFFCURVE",
"224 476 OFFCURVE",
"344 476 CURVE SMOOTH",
"392 476 OFFCURVE",
"432 466 OFFCURVE",
"460 452 CURVE",
"468 452 LINE",
"468 534 LINE",
"436 548 OFFCURVE",
"392 556 OFFCURVE",
"344 556 CURVE SMOOTH",
"164 556 OFFCURVE",
"52 452 OFFCURVE",
"52 274 CURVE SMOOTH"
);
}
);
width = 504;
}
);
leftKerningGroup = c;
note = c;
rightKerningGroup = c;
unicode = 0063;
},
{
color = 4;
glyphname = d;
lastChange = "2018-12-17 21:02:34 +0000";
layers = (
{
anchors = (
{
name = bottom;
position = "{342, 0}";
},
{
name = center;
position = "{494, 650}";
},
{
name = top;
position = "{342, 760}";
},
{
name = topright;
position = "{746, 548}";
}
);
background = {
paths = (
{
closed = 1;
nodes = (
"480 -12 OFFCURVE",
"570 0 OFFCURVE",
"620 12 CURVE",
"624 20 LINE",
"616 56 OFFCURVE",
"616 136 OFFCURVE",
"616 176 CURVE SMOOTH",
"616 760 LINE",
"396 760 LINE",
"392 752 LINE",
"399 723 OFFCURVE",
"404 626 OFFCURVE",
"404 569 CURVE SMOOTH",
"404 548 LINE",
"386 552 OFFCURVE",
"361 556 OFFCURVE",
"332 556 CURVE SMOOTH",
"152 556 OFFCURVE",
"40 444 OFFCURVE",
"40 272 CURVE SMOOTH",
"40 60 OFFCURVE",
"172 -12 OFFCURVE",
"396 -12 CURVE SMOOTH"
);
},
{
closed = 1;
nodes = (
"283 140 OFFCURVE",
"256 204 OFFCURVE",
"256 272 CURVE SMOOTH",
"256 350 OFFCURVE",
"289 408 OFFCURVE",
"372 408 CURVE SMOOTH",
"381 408 OFFCURVE",
"395 406 OFFCURVE",
"404 404 CURVE",
"404 196 LINE SMOOTH",
"404 176 OFFCURVE",
"404 158 OFFCURVE",
"406 142 CURVE",
"397 141 OFFCURVE",
"385 140 OFFCURVE",
"372 140 CURVE SMOOTH"
);
}
);
};
hints = (
{
horizontal = 1;
place = "{-12, 152}";
type = Stem;
},
{
horizontal = 1;
place = "{408, 148}";
type = Stem;
},
{
horizontal = 1;
place = "{760, -20}";
target = down;
type = TopGhost;
},
{
place = "{40, 216}";
type = Stem;
},
{
place = "{404, 212}";
type = Stem;
},
{
horizontal = 1;
place = "{548, -20}";
target = down;
type = TopGhost;
}
);
layerId = "F2028F70-0529-41D4-9F63-024EA79743CD";
paths = (
{
closed = 1;
nodes = (
"480 -12 OFFCURVE",
"564 4 OFFCURVE",
"620 28 CURVE",
"624 36 LINE",
"616 72 OFFCURVE",
"616 152 OFFCURVE",
"616 192 CURVE SMOOTH",
"616 760 LINE",
"396 760 LINE",
"392 752 LINE",
"399 723 OFFCURVE",
"404 626 OFFCURVE",
"404 569 CURVE SMOOTH",
"404 497 LINE",
"432 548 LINE",
"423 551 OFFCURVE",
"384 564 OFFCURVE",
"332 563 CURVE SMOOTH",
"152 560 OFFCURVE",
"40 452 OFFCURVE",
"40 276 CURVE SMOOTH",
"40 60 OFFCURVE",
"172 -12 OFFCURVE",
"368 -12 CURVE SMOOTH"
);
},
{
closed = 1;
nodes = (
"432 148 LINE",
"420 144 OFFCURVE",
"404 140 OFFCURVE",
"372 140 CURVE SMOOTH",
"283 140 OFFCURVE",
"256 204 OFFCURVE",
"256 276 CURVE SMOOTH",
"256 358 OFFCURVE",
"289 412 OFFCURVE",
"372 412 CURVE SMOOTH",
"396 412 OFFCURVE",
"412 406 OFFCURVE",
"432 400 CURVE",
"404 465 LINE",
"404 196 LINE SMOOTH",
"404 155 OFFCURVE",
"404 122 OFFCURVE",
"422 98 CURVE"
);
}
);
width = 684;
},
{
anchors = (
{
name = bottom;
position = "{309, 0}";
},
{
name = center;
position = "{448, 656}";
},
{
name = top;
position = "{309, 760}";
},
{
name = topright;
position = "{642, 544}";
}
);
background = {
paths = (
{
closed = 1;
nodes = (
"408 -12 OFFCURVE",
"472 6 OFFCURVE",
"528 28 CURVE",
"530 36 LINE",
"522 72 OFFCURVE",
"522 160 OFFCURVE",
"522 200 CURVE SMOOTH",
"522 760 LINE",
"424 760 LINE",
"422 752 LINE",
"430 716 OFFCURVE",
"430 628 OFFCURVE",
"430 588 CURVE SMOOTH",
"430 544 LINE",
"407 551 OFFCURVE",
"376 556 OFFCURVE",
"340 556 CURVE SMOOTH",
"168 556 OFFCURVE",
"52 452 OFFCURVE",
"52 274 CURVE SMOOTH",
"52 96 OFFCURVE",
"152 -12 OFFCURVE",
"332 -12 CURVE SMOOTH"
);
},
{
closed = 1;
nodes = (
"214 68 OFFCURVE",
"146 132 OFFCURVE",
"146 274 CURVE SMOOTH",
"146 404 OFFCURVE",
"216 476 OFFCURVE",
"346 476 CURVE SMOOTH",
"384 476 OFFCURVE",
"412 469 OFFCURVE",
"430 463 CURVE",
"430 152 LINE SMOOTH",
"430 127 OFFCURVE",
"431 103 OFFCURVE",
"434 83 CURVE",
"408 74 OFFCURVE",
"377 68 OFFCURVE",
"340 68 CURVE SMOOTH"
);
}
);
};
hints = (
{
horizontal = 1;
place = "{-12, 80}";
type = Stem;
},
{
horizontal = 1;
place = "{476, 80}";
type = Stem;
},
{
horizontal = 1;
place = "{760, -20}";
target = down;
type = TopGhost;
},
{
place = "{52, 94}";
type = Stem;
},
{
place = "{430, 92}";
type = Stem;
},
{
horizontal = 1;
place = "{544, -20}";
target = down;
type = TopGhost;
}
);
layerId = "3E005A84-7828-4122-B6E8-61930BD9836F";
paths = (
{
closed = 1;
nodes = (
"408 -12 OFFCURVE",
"472 6 OFFCURVE",
"528 28 CURVE",
"530 36 LINE",
"522 72 OFFCURVE",
"522 160 OFFCURVE",
"522 200 CURVE SMOOTH",
"522 760 LINE",
"424 760 LINE",
"422 752 LINE",
"430 716 OFFCURVE",
"430 628 OFFCURVE",
"430 588 CURVE SMOOTH",
"430 516 LINE",
"447 538 LINE",
"424 548 OFFCURVE",
"386 556 OFFCURVE",
"340 556 CURVE SMOOTH",
"168 556 OFFCURVE",
"52 452 OFFCURVE",
"52 274 CURVE SMOOTH",
"52 96 OFFCURVE",
"152 -12 OFFCURVE",
"332 -12 CURVE SMOOTH"
);
},
{
closed = 1;
nodes = (
"454 91 LINE",
"424 78 OFFCURVE",
"387 68 OFFCURVE",
"340 68 CURVE SMOOTH",
"214 68 OFFCURVE",
"146 132 OFFCURVE",
"146 274 CURVE SMOOTH",
"146 404 OFFCURVE",
"216 476 OFFCURVE",
"346 476 CURVE SMOOTH",
"395 476 OFFCURVE",
"428 464 OFFCURVE",
"443 458 CURVE",
"430 496 LINE",
"430 152 LINE SMOOTH",
"430 118 OFFCURVE",
"432 86 OFFCURVE",
"438 63 CURVE"
);
}
);
width = 618;
}
);
leftKerningGroup = c;
note = d;
rightKerningGroup = d;
unicode = 0064;
},
{
color = 4;
glyphname = e;
lastChange = "2018-12-17 19:09:57 +0000";
layers = (
{
anchors = (
{
name = bottom;
position = "{318, 0}";
},
{
name = ogonek;
position = "{560, 12}";
},
{
name = top;
position = "{318, 548}";
}
);
background = {
paths = (
{
closed = 1;
nodes = (
"598 220 LINE",
"600 260 LINE SMOOTH",
"609 432 OFFCURVE",
"524 564 OFFCURVE",
"332 564 CURVE SMOOTH",
"153 564 OFFCURVE",
"40 460 OFFCURVE",
"40 276 CURVE SMOOTH",
"40 56 OFFCURVE",
"188 -12 OFFCURVE",
"384 -12 CURVE SMOOTH",
"461 -12 OFFCURVE",
"516 -4 OFFCURVE",
"560 12 CURVE",
"560 172 LINE",
"548 172 LINE",
"520 156 OFFCURVE",
"464 144 OFFCURVE",
"404 144 CURVE SMOOTH",
"312 144 OFFCURVE",
"268 170 OFFCURVE",
"256 220 CURVE"
);
},
{
closed = 1;
nodes = (
"379 424 OFFCURVE",
"400 392 OFFCURVE",
"400 340 CURVE SMOOTH",
"400 332 LINE",
"253 332 LINE",
"258 387 OFFCURVE",
"280 424 OFFCURVE",
"328 424 CURVE SMOOTH"
);
}
);
};
hints = (
{
horizontal = 1;
place = "{-12, 156}";
type = Stem;
},
{
horizontal = 1;
place = "{220, 112}";
type = Stem;
},
{
horizontal = 1;
place = "{424, 140}";
type = Stem;
},
{
place = "{40, 213}";
type = Stem;
},
{
place = "{400, 200}";
type = Stem;
}
);
layerId = "F2028F70-0529-41D4-9F63-024EA79743CD";
paths = (
{
closed = 1;
nodes = (
"461 -12 OFFCURVE",
"516 -4 OFFCURVE",
"560 12 CURVE",
"560 172 LINE",
"548 172 LINE",
"520 156 OFFCURVE",
"464 144 OFFCURVE",
"404 144 CURVE SMOOTH",
"312 144 OFFCURVE",
"252 168 OFFCURVE",
"252 252 CURVE SMOOTH",
"252 296 LINE SMOOTH",
"252 392 OFFCURVE",
"275 424 OFFCURVE",
"328 424 CURVE SMOOTH",
"379 424 OFFCURVE",
"400 392 OFFCURVE",
"400 340 CURVE SMOOTH",
"400 336 LINE",
"168 336 LINE",
"168 220 LINE",
"598 220 LINE",
"600 260 LINE SMOOTH",
"609 432 OFFCURVE",
"524 564 OFFCURVE",
"332 564 CURVE SMOOTH",
"153 564 OFFCURVE",
"40 460 OFFCURVE",
"40 276 CURVE SMOOTH",
"40 56 OFFCURVE",
"188 -12 OFFCURVE",
"384 -12 CURVE SMOOTH"
);
}
);
width = 636;
},
{
anchors = (
{
name = bottom;
position = "{299, 0}";
},
{
name = ogonek;
position = "{508, 22}";
},
{
name = top;
position = "{299, 544}";
}
);
background = {
paths = (
{
closed = 1;
nodes = (
"543 240 LINE",
"544 268 LINE SMOOTH",
"550 440 OFFCURVE",
"480 556 OFFCURVE",
"304 556 CURVE SMOOTH",
"152 556 OFFCURVE",
"52 444 OFFCURVE",
"52 274 CURVE SMOOTH",
"52 92 OFFCURVE",
"148 -8 OFFCURVE",
"352 -8 CURVE SMOOTH",
"424 -8 OFFCURVE",
"476 6 OFFCURVE",
"508 22 CURVE",
"508 104 LINE",
"500 104 LINE",
"472 88 OFFCURVE",
"424 72 OFFCURVE",
"356 72 CURVE SMOOTH",
"233 72 OFFCURVE",
"157 120 OFFCURVE",
"147 240 CURVE"
);
},
{
closed = 1;
nodes = (
"400 476 OFFCURVE",
"448 424 OFFCURVE",
"448 324 CURVE SMOOTH",
"448 316 LINE",
"147 316 LINE",
"155 427 OFFCURVE",
"219 476 OFFCURVE",
"304 476 CURVE SMOOTH"
);
}
);
};
hints = (
{
horizontal = 1;
place = "{-8, 80}";
type = Stem;
},
{
horizontal = 1;
place = "{240, 76}";
type = Stem;
},
{
horizontal = 1;
place = "{476, 80}";
type = Stem;
},
{
place = "{52, 95}";
type = Stem;
},
{
place = "{448, 96}";
type = Stem;
}
);
layerId = "3E005A84-7828-4122-B6E8-61930BD9836F";
paths = (
{
closed = 1;
nodes = (
"424 -8 OFFCURVE",
"476 6 OFFCURVE",
"508 22 CURVE",
"508 104 LINE",
"500 104 LINE",
"472 88 OFFCURVE",
"424 72 OFFCURVE",
"356 72 CURVE SMOOTH",
"233 72 OFFCURVE",
"146 120 OFFCURVE",
"146 274 CURVE SMOOTH",
"146 280 LINE SMOOTH",
"146 428 OFFCURVE",
"220 476 OFFCURVE",
"304 476 CURVE SMOOTH",
"400 476 OFFCURVE",
"448 424 OFFCURVE",
"448 324 CURVE SMOOTH",
"448 316 LINE",
"116 316 LINE",
"116 240 LINE",
"543 240 LINE",
"544 268 LINE SMOOTH",
"550 440 OFFCURVE",
"480 556 OFFCURVE",
"304 556 CURVE SMOOTH",
"152 556 OFFCURVE",
"52 444 OFFCURVE",
"52 274 CURVE SMOOTH",
"52 92 OFFCURVE",
"148 -8 OFFCURVE",
"352 -8 CURVE SMOOTH"
);
}
);
width = 597;
}
);
leftKerningGroup = c;
note = e;
rightKerningGroup = e;
unicode = 0065;
},
{
color = 4;
glyphname = f;
lastChange = "2018-12-17 16:05:59 +0000";
layers = (
{
anchors = (
{
name = bottom;
position = "{232, 0}";
},
{
name = top;
position = "{232, 760}";
}
);
background = {
paths = (
{
closed = 1;
nodes = (
"8 388 LINE",
"100 388 LINE",
"100 0 LINE",
"312 0 LINE",
"312 388 LINE",
"432 388 LINE",
"432 548 LINE",
"312 548 LINE",
"316 600 OFFCURVE",
"348 624 OFFCURVE",
"404 624 CURVE SMOOTH",
"428 624 OFFCURVE",
"448 618 OFFCURVE",
"460 612 CURVE",
"472 612 LINE",
"472 764 LINE",
"452 770 OFFCURVE",
"420 776 OFFCURVE",
"380 776 CURVE SMOOTH",
"216 776 OFFCURVE",
"108 713 OFFCURVE",
"100 548 CURVE",
"8 548 LINE"
);
}
);
};
hints = (
{
horizontal = 1;
place = "{0, 21}";
target = up;
type = BottomGhost;
},
{
horizontal = 1;
place = "{388, 160}";
type = Stem;
},
{
horizontal = 1;
place = "{624, 152}";
type = Stem;
},
{
place = "{100, 212}";
type = Stem;
}
);
layerId = "F2028F70-0529-41D4-9F63-024EA79743CD";
paths = (
{
closed = 1;
nodes = (
"312 0 LINE",
"312 532 LINE SMOOTH",
"312 600 OFFCURVE",
"348 624 OFFCURVE",
"404 624 CURVE SMOOTH",
"428 624 OFFCURVE",
"448 618 OFFCURVE",
"460 612 CURVE",
"472 612 LINE",
"472 764 LINE",
"452 770 OFFCURVE",
"420 776 OFFCURVE",
"380 776 CURVE SMOOTH",
"216 776 OFFCURVE",
"100 708 OFFCURVE",
"100 536 CURVE SMOOTH",
"100 0 LINE"
);
},
{
closed = 1;
nodes = (
"432 388 LINE",
"432 548 LINE",
"8 548 LINE",
"8 388 LINE"
);
}
);
width = 464;
},
{
anchors = (
{
name = bottom;
position = "{168, 0}";
},
{
name = top;
position = "{168, 760}";
}
);
background = {
paths = (
{
closed = 1;
nodes = (
"16 464 LINE",
"100 464 LINE",
"100 0 LINE",
"192 0 LINE",
"192 464 LINE",
"344 464 LINE",
"344 544 LINE",
"192 544 LINE",
"192 639 OFFCURVE",
"215 680 OFFCURVE",
"296 680 CURVE SMOOTH",
"328 680 OFFCURVE",
"344 676 OFFCURVE",
"364 668 CURVE",
"372 668 LINE",
"372 748 LINE",
"352 756 OFFCURVE",
"328 760 OFFCURVE",
"296 760 CURVE SMOOTH",
"163 760 OFFCURVE",
"100 687 OFFCURVE",
"100 544 CURVE",
"16 544 LINE"
);
}
);
};
hints = (
{
horizontal = 1;
place = "{0, 21}";
target = up;
type = BottomGhost;
},
{
horizontal = 1;
place = "{464, 80}";
type = Stem;
},
{
horizontal = 1;
place = "{680, 80}";
type = Stem;
},
{
place = "{100, 92}";
type = Stem;
}
);
layerId = "3E005A84-7828-4122-B6E8-61930BD9836F";
paths = (
{
closed = 1;
nodes = (
"192 0 LINE",
"192 544 LINE SMOOTH",
"192 639 OFFCURVE",
"215 680 OFFCURVE",
"296 680 CURVE SMOOTH",
"328 680 OFFCURVE",
"344 676 OFFCURVE",
"364 668 CURVE",
"372 668 LINE",
"372 748 LINE",
"352 756 OFFCURVE",
"328 760 OFFCURVE",
"296 760 CURVE SMOOTH",
"163 760 OFFCURVE",
"100 687 OFFCURVE",
"100 544 CURVE SMOOTH",
"100 0 LINE"
);
},
{
closed = 1;
nodes = (
"344 464 LINE",
"344 544 LINE",
"16 544 LINE",
"16 464 LINE"
);
}
);
width = 336;
}
);
leftKerningGroup = f;
note = f;
rightKerningGroup = f;
unicode = 0066;
},
{
color = 4;
glyphname = g;
lastChange = "2018-12-17 16:05:59 +0000";
layers = (
{
anchors = (
{
name = bottom;
position = "{342, -240}";
},
{
name = top;
position = "{342, 548}";
}
);
background = {
paths = (
{
closed = 1;
nodes = (
"100 -52 LINE",
"100 -216 LINE",
"136 -232 OFFCURVE",
"206 -240 OFFCURVE",
"262 -240 CURVE SMOOTH",
"468 -240 OFFCURVE",
"616 -156 OFFCURVE",
"616 52 CURVE SMOOTH",
"616 364 LINE SMOOTH",
"616 404 OFFCURVE",
"616 484 OFFCURVE",
"624 520 CURVE",
"620 528 LINE",
"572 544 OFFCURVE",
"492 556 OFFCURVE",
"416 556 CURVE SMOOTH",
"200 556 OFFCURVE",
"40 480 OFFCURVE",
"40 272 CURVE SMOOTH",
"40 92 OFFCURVE",
"154 4 OFFCURVE",
"336 4 CURVE SMOOTH",
"359 4 OFFCURVE",
"383 6 OFFCURVE",
"402 8 CURVE",
"391 -60 OFFCURVE",
"336 -76 OFFCURVE",
"242 -76 CURVE SMOOTH",
"202 -76 OFFCURVE",
"148 -67 OFFCURVE",
"116 -52 CURVE"
);
},
{
closed = 1;
nodes = (
"290 152 OFFCURVE",
"256 200 OFFCURVE",
"256 276 CURVE SMOOTH",
"256 340 OFFCURVE",
"289 400 OFFCURVE",
"372 400 CURVE SMOOTH",
"385 400 OFFCURVE",
"398 399 OFFCURVE",
"409 398 CURVE",
"405 376 OFFCURVE",
"404 346 OFFCURVE",
"404 316 CURVE SMOOTH",
"404 155 LINE",
"396 153 OFFCURVE",
"385 152 OFFCURVE",
"372 152 CURVE SMOOTH"
);
}
);
};
hints = (
{
horizontal = 1;
place = "{-240, 164}";
type = Stem;
},
{
horizontal = 1;
place = "{4, 148}";
type = Stem;
},
{
horizontal = 1;
place = "{400, 156}";
type = Stem;
},
{
place = "{40, 216}";
type = Stem;
},
{
place = "{404, 212}";
type = Stem;
}
);
layerId = "F2028F70-0529-41D4-9F63-024EA79743CD";
paths = (
{
closed = 1;
nodes = (
"468 -240 OFFCURVE",
"616 -156 OFFCURVE",
"616 52 CURVE SMOOTH",
"616 348 LINE SMOOTH",
"616 392 OFFCURVE",
"616 472 OFFCURVE",
"624 508 CURVE",
"620 516 LINE",
"572 540 OFFCURVE",
"496 564 OFFCURVE",
"392 564 CURVE SMOOTH",
"200 564 OFFCURVE",
"40 480 OFFCURVE",
"40 276 CURVE SMOOTH",
"40 92 OFFCURVE",
"154 4 OFFCURVE",
"336 4 CURVE SMOOTH",
"359 4 OFFCURVE",
"384 5 OFFCURVE",
"416 10 CURVE",
"416 158 LINE",
"396 152 OFFCURVE",
"384 152 OFFCURVE",
"372 152 CURVE SMOOTH",
"290 152 OFFCURVE",
"256 200 OFFCURVE",
"256 280 CURVE SMOOTH",
"256 348 OFFCURVE",
"289 408 OFFCURVE",
"372 408 CURVE SMOOTH",
"405 408 OFFCURVE",
"438 401 OFFCURVE",
"438 405 CURVE",
"423 438 LINE",
"407 426 OFFCURVE",
"404 375 OFFCURVE",
"404 320 CURVE SMOOTH",
"404 20 LINE SMOOTH",
"404 -60 OFFCURVE",
"328 -76 OFFCURVE",
"242 -76 CURVE SMOOTH",
"202 -76 OFFCURVE",
"148 -67 OFFCURVE",
"116 -52 CURVE",
"100 -52 LINE",
"100 -216 LINE",
"136 -232 OFFCURVE",
"206 -240 OFFCURVE",
"262 -240 CURVE SMOOTH"
);
}
);
width = 684;
},
{
anchors = (
{
name = bottom;
position = "{309, -240}";
},
{
name = top;
position = "{309, 544}";
}
);
background = {
paths = (
{
closed = 1;
nodes = (
"100 -132 LINE",
"100 -214 LINE",
"140 -232 OFFCURVE",
"204 -240 OFFCURVE",
"252 -240 CURVE SMOOTH",
"424 -240 OFFCURVE",
"522 -144 OFFCURVE",
"522 16 CURVE SMOOTH",
"522 348 LINE SMOOTH",
"522 388 OFFCURVE",
"522 476 OFFCURVE",
"530 512 CURVE",
"528 520 LINE",
"476 540 OFFCURVE",
"404 556 OFFCURVE",
"344 556 CURVE SMOOTH",
"160 556 OFFCURVE",
"52 448 OFFCURVE",
"52 276 CURVE SMOOTH",
"52 96 OFFCURVE",
"168 4 OFFCURVE",
"340 4 CURVE SMOOTH",
"372 4 OFFCURVE",
"405 9 OFFCURVE",
"430 16 CURVE",
"430 -104 OFFCURVE",
"382 -160 OFFCURVE",
"252 -160 CURVE SMOOTH",
"209 -160 OFFCURVE",
"152 -152 OFFCURVE",
"108 -132 CURVE"
);
},
{
closed = 1;
nodes = (
"212 84 OFFCURVE",
"146 148 OFFCURVE",
"146 276 CURVE SMOOTH",
"146 408 OFFCURVE",
"212 476 OFFCURVE",
"344 476 CURVE SMOOTH",
"378 476 OFFCURVE",
"408 470 OFFCURVE",
"433 463 CURVE",
"431 444 OFFCURVE",
"430 423 OFFCURVE",
"430 400 CURVE SMOOTH",
"430 97 LINE",
"411 90 OFFCURVE",
"381 84 OFFCURVE",
"344 84 CURVE SMOOTH"
);
}
);
};
hints = (
{
horizontal = 1;
place = "{-240, 80}";
type = Stem;
},
{
horizontal = 1;
place = "{4, 80}";
type = Stem;
},
{
horizontal = 1;
place = "{476, 80}";
type = Stem;
},
{
place = "{52, 94}";
type = Stem;
},
{
place = "{430, 92}";
type = Stem;
}
);
layerId = "3E005A84-7828-4122-B6E8-61930BD9836F";
paths = (
{
closed = 1;
nodes = (
"424 -240 OFFCURVE",
"522 -144 OFFCURVE",
"522 16 CURVE SMOOTH",
"522 348 LINE SMOOTH",
"522 388 OFFCURVE",
"522 476 OFFCURVE",
"530 512 CURVE",
"528 520 LINE",
"476 540 OFFCURVE",
"404 556 OFFCURVE",
"344 556 CURVE SMOOTH",
"160 556 OFFCURVE",
"52 448 OFFCURVE",
"52 276 CURVE SMOOTH",
"52 96 OFFCURVE",
"168 4 OFFCURVE",
"340 4 CURVE SMOOTH",
"372 4 OFFCURVE",
"405 9 OFFCURVE",
"450 20 CURVE",
"452 104 LINE",
"412 88 OFFCURVE",
"381 84 OFFCURVE",
"344 84 CURVE SMOOTH",
"212 84 OFFCURVE",
"146 148 OFFCURVE",
"146 276 CURVE SMOOTH",
"146 408 OFFCURVE",
"212 476 OFFCURVE",
"344 476 CURVE SMOOTH",
"387 476 OFFCURVE",
"424 466 OFFCURVE",
"453 457 CURVE",
"436 485 LINE",
"432 460 OFFCURVE",
"430 432 OFFCURVE",
"430 400 CURVE SMOOTH",
"430 16 LINE SMOOTH",
"430 -104 OFFCURVE",
"382 -160 OFFCURVE",
"252 -160 CURVE SMOOTH",
"209 -160 OFFCURVE",
"152 -152 OFFCURVE",
"108 -132 CURVE",
"100 -132 LINE",
"100 -214 LINE",
"140 -232 OFFCURVE",
"204 -240 OFFCURVE",
"252 -240 CURVE SMOOTH"
);
}
);
width = 618;
}
);
leftKerningGroup = c;
note = g;
rightKerningGroup = g;
unicode = 0067;
},
{
color = 4;
glyphname = h;
lastChange = "2018-12-17 21:03:17 +0000";
layers = (
{
anchors = (
{
name = bottom;
position = "{346, 0}";
},
{
name = center;
position = "{191, 650}";
},
{
name = top;
position = "{170, 760}";
}
);
background = {
paths = (
{
closed = 1;
nodes = (
"416 0 LINE",
"628 0 LINE",
"628 308 LINE SMOOTH",
"628 480 OFFCURVE",
"536 564 OFFCURVE",
"376 564 CURVE SMOOTH",
"338 564 OFFCURVE",
"307 560 OFFCURVE",
"280 553 CURVE",
"280 760 LINE",
"60 760 LINE",
"56 752 LINE",
"65 716 OFFCURVE",
"68 636 OFFCURVE",
"68 596 CURVE SMOOTH",
"68 0 LINE",
"280 0 LINE",
"280 396 LINE",
"294 398 OFFCURVE",
"309 400 OFFCURVE",
"320 400 CURVE SMOOTH",
"378 400 OFFCURVE",
"416 376 OFFCURVE",
"416 308 CURVE SMOOTH"
);
}
);
};
hints = (
{
horizontal = 1;
place = "{0, 21}";
target = up;
type = BottomGhost;
},
{
horizontal = 1;
place = "{553, -20}";
target = down;
type = TopGhost;
},
{
horizontal = 1;
place = "{760, -20}";
target = down;
type = TopGhost;
},
{
place = "{68, 212}";
type = Stem;
},
{
place = "{416, 212}";
type = Stem;
},
{
horizontal = 1;
place = "{400, 164}";
type = Stem;
}
);
layerId = "F2028F70-0529-41D4-9F63-024EA79743CD";
paths = (
{
closed = 1;
nodes = (
"280 0 LINE",
"280 482 LINE",
"241 393 LINE",
"243 388 OFFCURVE",
"293 400 OFFCURVE",
"320 400 CURVE SMOOTH",
"378 400 OFFCURVE",
"416 376 OFFCURVE",
"416 308 CURVE SMOOTH",
"416 0 LINE",
"628 0 LINE",
"628 308 LINE SMOOTH",
"628 480 OFFCURVE",
"536 564 OFFCURVE",
"376 564 CURVE SMOOTH",
"315 564 OFFCURVE",
"273 554 OFFCURVE",
"235 538 CURVE",
"280 467 LINE",
"280 760 LINE",
"60 760 LINE",
"56 752 LINE",
"65 716 OFFCURVE",
"68 636 OFFCURVE",
"68 596 CURVE SMOOTH",
"68 0 LINE"
);
}
);
width = 692;
},
{
anchors = (
{
name = bottom;
position = "{320, 0}";
},
{
name = center;
position = "{172, 656}";
},
{
name = top;
position = "{139, 760}";
}
);
background = {
paths = (
{
closed = 1;
nodes = (
"456 0 LINE",
"548 0 LINE",
"548 320 LINE SMOOTH",
"548 508 OFFCURVE",
"440 556 OFFCURVE",
"328 556 CURVE SMOOTH",
"271 556 OFFCURVE",
"226 543 OFFCURVE",
"188 527 CURVE",
"188 760 LINE",
"90 760 LINE",
"88 752 LINE",
"96 716 OFFCURVE",
"96 628 OFFCURVE",
"96 588 CURVE SMOOTH",
"96 0 LINE",
"188 0 LINE",
"188 447 LINE",
"222 460 OFFCURVE",
"265 472 OFFCURVE",
"308 472 CURVE SMOOTH",
"396 472 OFFCURVE",
"456 440 OFFCURVE",
"456 308 CURVE SMOOTH"
);
}
);
};
hints = (
{
horizontal = 1;
place = "{0, 21}";
target = up;
type = BottomGhost;
},
{
horizontal = 1;
place = "{472, 84}";
type = Stem;
},
{
horizontal = 1;
place = "{760, -20}";
target = down;
type = TopGhost;
},
{
place = "{96, 92}";
type = Stem;
},
{
place = "{456, 92}";
type = Stem;
}
);
layerId = "3E005A84-7828-4122-B6E8-61930BD9836F";
paths = (
{
closed = 1;
nodes = (
"188 0 LINE",
"188 485 LINE",
"168 439 LINE",
"204 455 OFFCURVE",
"256 472 OFFCURVE",
"308 472 CURVE SMOOTH",
"396 472 OFFCURVE",
"456 440 OFFCURVE",
"456 308 CURVE SMOOTH",
"456 0 LINE",
"548 0 LINE",
"548 320 LINE SMOOTH",
"548 508 OFFCURVE",
"440 556 OFFCURVE",
"328 556 CURVE SMOOTH",
"261 556 OFFCURVE",
"211 538 OFFCURVE",
"169 518 CURVE",
"188 489 LINE",
"188 760 LINE",
"90 760 LINE",
"88 752 LINE",
"96 716 OFFCURVE",
"96 628 OFFCURVE",
"96 588 CURVE SMOOTH",
"96 0 LINE"
);
}
);
width = 640;
}
);
leftKerningGroup = b;
note = h;
rightKerningGroup = a;
unicode = 0068;
},
{
color = 4;
glyphname = k;
lastChange = "2018-12-17 16:05:59 +0000";
layers = (
{
anchors = (
{
name = bottom;
position = "{334, 0}";
},
{
name = top;
position = "{334, 760}";
}
);
background = {
paths = (
{
closed = 1;
nodes = (
"68 0 LINE",
"280 0 LINE",
"280 229 LINE",
"436 0 LINE",
"676 0 LINE",
"676 12 LINE",
"656 28 OFFCURVE",
"621 63 OFFCURVE",
"596 96 CURVE SMOOTH",
"456 288 LINE",
"579 436 LINE SMOOTH",
"605 467 OFFCURVE",
"647 520 OFFCURVE",
"668 536 CURVE",
"668 548 LINE",
"448 548 LINE",
"280 338 LINE",
"280 760 LINE",
"60 760 LINE",
"56 752 LINE",
"65 716 OFFCURVE",
"68 636 OFFCURVE",
"68 596 CURVE SMOOTH"
);
}
);
};
hints = (
{
horizontal = 1;
place = "{0, 12}";
type = Stem;
},
{
horizontal = 1;
place = "{536, 12}";
type = Stem;
},
{
horizontal = 1;
place = "{760, -20}";
target = down;
type = TopGhost;
},
{
place = "{68, 212}";
type = Stem;
}
);
layerId = "F2028F70-0529-41D4-9F63-024EA79743CD";
paths = (
{
closed = 1;
nodes = (
"280 760 LINE",
"60 760 LINE",
"56 752 LINE",
"65 716 OFFCURVE",
"68 636 OFFCURVE",
"68 596 CURVE SMOOTH",
"68 0 LINE",
"280 0 LINE"
);
},
{
closed = 1;
nodes = (
"432 0 LINE",
"672 0 LINE",
"672 12 LINE",
"652 28 OFFCURVE",
"616 64 OFFCURVE",
"592 98 CURVE SMOOTH",
"397 369 LINE",
"396 232 LINE",
"575 435 LINE SMOOTH",
"603 467 OFFCURVE",
"643 520 OFFCURVE",
"664 536 CURVE",
"664 548 LINE",
"444 548 LINE",
"240 288 LINE"
);
}
);
width = 668;
},
{
anchors = (
{
name = bottom;
position = "{270, 0}";
},
{
name = top;
position = "{270, 760}";
}
);
background = {
paths = (
{
closed = 1;
nodes = (
"96 0 LINE",
"188 0 LINE",
"188 270 LINE",
"424 0 LINE",
"532 0 LINE",
"532 12 LINE",
"514 28 OFFCURVE",
"478 71 OFFCURVE",
"452 100 CURVE SMOOTH",
"284 288 LINE",
"452 460 LINE SMOOTH",
"480 488 OFFCURVE",
"508 516 OFFCURVE",
"528 532 CURVE",
"528 544 LINE",
"424 544 LINE",
"188 296 LINE",
"188 760 LINE",
"90 760 LINE",
"88 752 LINE",
"96 716 OFFCURVE",
"96 628 OFFCURVE",
"96 588 CURVE SMOOTH"
);
}
);
};
hints = (
{
horizontal = 1;
place = "{0, 12}";
type = Stem;
},
{
horizontal = 1;
place = "{532, 12}";
type = Stem;
},
{
horizontal = 1;
place = "{760, -20}";
target = down;
type = TopGhost;
},
{
place = "{96, 92}";
type = Stem;
}
);
layerId = "3E005A84-7828-4122-B6E8-61930BD9836F";
paths = (
{
closed = 1;
nodes = (
"188 760 LINE",
"90 760 LINE",
"88 752 LINE",
"96 716 OFFCURVE",
"96 628 OFFCURVE",
"96 588 CURVE SMOOTH",
"96 0 LINE",
"188 0 LINE"
);
},
{
closed = 1;
nodes = (
"424 0 LINE",
"532 0 LINE",
"532 12 LINE",
"514 28 OFFCURVE",
"478 71 OFFCURVE",
"452 100 CURVE SMOOTH",
"259 316 LINE",
"258 261 LINE",
"452 460 LINE SMOOTH",
"480 488 OFFCURVE",
"508 516 OFFCURVE",
"528 532 CURVE",
"528 544 LINE",
"424 544 LINE",
"176 284 LINE"
);
}
);
width = 540;
}
);
leftKerningGroup = b;
leftMetricsKey = l;
note = k;
rightKerningGroup = k;
unicode = 006B;
},
{
color = 4;
glyphname = l;
lastChange = "2018-12-17 19:14:36 +0000";
layers = (
{
anchors = (
{
name = bottom;
position = "{174, 0}";
},
{
name = center;
position = "{174, 370}";
},
{
name = periodCAT;
position = "{412, 356}";
},
{
name = top;
position = "{174, 760}";
},
{
name = topright;
position = "{410, 548}";
}
);
hints = (
{
horizontal = 1;
place = "{0, 21}";
target = up;
type = BottomGhost;
},
{
horizontal = 1;
place = "{760, -20}";
target = down;
type = TopGhost;
},
{
place = "{68, 212}";
type = Stem;
}
);
layerId = "F2028F70-0529-41D4-9F63-024EA79743CD";
paths = (
{
closed = 1;
nodes = (
"68 0 LINE",
"280 0 LINE",
"280 760 LINE",
"60 760 LINE",
"56 752 LINE",
"65 716 OFFCURVE",
"68 636 OFFCURVE",
"68 596 CURVE SMOOTH"
);
}
);
width = 348;
},
{
anchors = (
{
name = bottom;
position = "{142, 0}";
},
{
name = center;
position = "{154, 392}";
},
{
name = periodCAT;
position = "{332, 360}";
},
{
name = top;
position = "{142, 760}";
},
{
name = topright;
position = "{284, 544}";
}
);
hints = (
{
horizontal = 1;
place = "{0, 21}";
target = up;
type = BottomGhost;
},
{
horizontal = 1;
place = "{760, -20}";
target = down;
type = TopGhost;
},
{
place = "{96, 92}";
type = Stem;
}
);
layerId = "3E005A84-7828-4122-B6E8-61930BD9836F";
paths = (
{
closed = 1;
nodes = (
"96 0 LINE",
"188 0 LINE",
"188 760 LINE",
"90 760 LINE",
"88 752 LINE",
"96 716 OFFCURVE",
"96 628 OFFCURVE",
"96 588 CURVE SMOOTH"
);
}
);
width = 284;
}
);
leftKerningGroup = b;
note = l;
rightKerningGroup = d;
unicode = 006C;
},
{
color = 4;
glyphname = m;
lastChange = "2018-12-17 16:05:59 +0000";
layers = (
{
anchors = (
{
name = bottom;
position = "{514, 0}";
},
{
name = top;
position = "{514, 548}";
}
);
background = {
paths = (
{
closed = 1;
nodes = (
"68 0 LINE",
"280 0 LINE",
"280 316 LINE SMOOTH",
"280 348 OFFCURVE",
"278 372 OFFCURVE",
"275 391 CURVE",
"290 396 OFFCURVE",
"307 400 OFFCURVE",
"324 400 CURVE SMOOTH",
"376 400 OFFCURVE",
"412 380 OFFCURVE",
"412 304 CURVE SMOOTH",
"412 0 LINE",
"624 0 LINE",
"624 308 LINE SMOOTH",
"624 341 OFFCURVE",
"620 370 OFFCURVE",
"614 395 CURVE",
"628 398 OFFCURVE",
"645 400 OFFCURVE",
"664 400 CURVE SMOOTH",
"716 400 OFFCURVE",
"752 380 OFFCURVE",
"752 304 CURVE SMOOTH",
"752 0 LINE",
"964 0 LINE",
"964 308 LINE SMOOTH",
"964 528 OFFCURVE",
"820 564 OFFCURVE",
"696 564 CURVE SMOOTH",
"621 564 OFFCURVE",
"560 549 OFFCURVE",
"512 529 CURVE",
"456 557 OFFCURVE",
"385 564 OFFCURVE",
"308 564 CURVE SMOOTH",
"216 564 OFFCURVE",
"116 544 OFFCURVE",
"60 524 CURVE",
"56 516 LINE",
"65 480 OFFCURVE",
"68 396 OFFCURVE",
"68 356 CURVE SMOOTH"
);
}
);
};
hints = (
{
horizontal = 1;
place = "{0, 21}";
target = up;
type = BottomGhost;
},
{
horizontal = 1;
place = "{400, 164}";
type = Stem;
},
{
place = "{68, 212}";
type = Stem;
},
{
place = "{412, 212}";
type = Stem;
},
{
place = "{752, 212}";
type = Stem;
}
);
layerId = "F2028F70-0529-41D4-9F63-024EA79743CD";
paths = (
{
closed = 1;
nodes = (
"280 0 LINE",
"280 316 LINE SMOOTH",
"280 372 OFFCURVE",
"274 404 OFFCURVE",
"264 425 CURVE",
"236 380 LINE",
"260 388 OFFCURVE",
"288 400 OFFCURVE",
"324 400 CURVE SMOOTH",
"376 400 OFFCURVE",
"412 380 OFFCURVE",
"412 304 CURVE SMOOTH",
"412 0 LINE",
"624 0 LINE",
"624 308 LINE SMOOTH",
"624 516 OFFCURVE",
"476 564 OFFCURVE",
"338 564 CURVE SMOOTH",
"228 564 OFFCURVE",
"132 536 OFFCURVE",
"60 504 CURVE",
"56 496 LINE",
"65 460 OFFCURVE",
"68 376 OFFCURVE",
"68 336 CURVE SMOOTH",
"68 0 LINE"
);
},
{
closed = 1;
nodes = (
"964 0 LINE",
"964 308 LINE SMOOTH",
"964 528 OFFCURVE",
"820 564 OFFCURVE",
"696 564 CURVE SMOOTH",
"617 564 OFFCURVE",
"544 544 OFFCURVE",
"496 522 CURVE",
"600 392 LINE",
"614 396 OFFCURVE",
"640 400 OFFCURVE",
"664 400 CURVE SMOOTH",
"716 400 OFFCURVE",
"752 380 OFFCURVE",
"752 304 CURVE SMOOTH",
"752 0 LINE"
);
}
);
width = 1028;
},
{
anchors = (
{
name = bottom;
position = "{478, 0}";
},
{
name = top;
position = "{478, 544}";
}
);
background = {
paths = (
{
closed = 1;
nodes = (
"96 0 LINE",
"188 0 LINE",
"188 400 LINE SMOOTH",
"188 421 OFFCURVE",
"187 442 OFFCURVE",
"185 460 CURVE",
"216 469 OFFCURVE",
"254 476 OFFCURVE",
"288 476 CURVE SMOOTH",
"388 476 OFFCURVE",
"440 444 OFFCURVE",
"440 312 CURVE SMOOTH",
"440 0 LINE",
"532 0 LINE",
"532 320 LINE SMOOTH",
"532 375 OFFCURVE",
"523 419 OFFCURVE",
"507 452 CURVE",
"541 466 OFFCURVE",
"581 476 OFFCURVE",
"620 476 CURVE SMOOTH",
"720 476 OFFCURVE",
"772 444 OFFCURVE",
"772 312 CURVE SMOOTH",
"772 0 LINE",
"864 0 LINE",
"864 320 LINE SMOOTH",
"864 508 OFFCURVE",
"764 556 OFFCURVE",
"632 556 CURVE SMOOTH",
"575 556 OFFCURVE",
"506 539 OFFCURVE",
"453 517 CURVE",
"413 546 OFFCURVE",
"360 556 OFFCURVE",
"300 556 CURVE SMOOTH",
"248 556 OFFCURVE",
"142 536 OFFCURVE",
"90 516 CURVE",
"88 508 LINE",
"96 472 OFFCURVE",
"96 384 OFFCURVE",
"96 344 CURVE SMOOTH"
);
}
);
};
hints = (
{
horizontal = 1;
place = "{0, 21}";
target = up;
type = BottomGhost;
},
{
horizontal = 1;
place = "{476, 80}";
type = Stem;
},
{
place = "{96, 92}";
type = Stem;
},
{
place = "{440, 92}";
type = Stem;
},
{
place = "{772, 92}";
type = Stem;
}
);
layerId = "3E005A84-7828-4122-B6E8-61930BD9836F";
paths = (
{
closed = 1;
nodes = (
"188 0 LINE",
"188 396 LINE SMOOTH",
"188 428 OFFCURVE",
"185 460 OFFCURVE",
"180 480 CURVE",
"164 452 LINE",
"200 465 OFFCURVE",
"253 476 OFFCURVE",
"296 476 CURVE SMOOTH",
"380 476 OFFCURVE",
"440 444 OFFCURVE",
"440 312 CURVE SMOOTH",
"440 0 LINE",
"532 0 LINE",
"532 320 LINE SMOOTH",
"532 508 OFFCURVE",
"424 556 OFFCURVE",
"308 556 CURVE SMOOTH",
"244 556 OFFCURVE",
"142 536 OFFCURVE",
"90 516 CURVE",
"88 508 LINE",
"96 472 OFFCURVE",
"96 384 OFFCURVE",
"96 344 CURVE SMOOTH",
"96 0 LINE"
);
},
{
closed = 1;
nodes = (
"864 0 LINE",
"864 320 LINE SMOOTH",
"864 508 OFFCURVE",
"764 556 OFFCURVE",
"632 556 CURVE SMOOTH",
"575 556 OFFCURVE",
"506 539 OFFCURVE",
"440 512 CURVE",
"496 448 LINE",
"541 466 OFFCURVE",
"581 476 OFFCURVE",
"620 476 CURVE SMOOTH",
"720 476 OFFCURVE",
"772 444 OFFCURVE",
"772 312 CURVE SMOOTH",
"772 0 LINE"
);
}
);
width = 956;
}
);
leftKerningGroup = m;
leftMetricsKey = n;
note = m;
rightKerningGroup = a;
rightMetricsKey = n;
unicode = 006D;
},
{
color = 4;
glyphname = n;
lastChange = "2018-12-17 16:05:59 +0000";
layers = (
{
anchors = (
{
name = bottom;
position = "{346, 0}";
},
{
name = top;
position = "{346, 548}";
}
);
background = {
paths = (
{
closed = 1;
nodes = (
"68 0 LINE",
"280 0 LINE",
"280 316 LINE SMOOTH",
"280 348 OFFCURVE",
"278 373 OFFCURVE",
"274 392 CURVE",
"290 396 OFFCURVE",
"307 400 OFFCURVE",
"324 400 CURVE SMOOTH",
"376 400 OFFCURVE",
"416 380 OFFCURVE",
"416 304 CURVE SMOOTH",
"416 0 LINE",
"628 0 LINE",
"628 308 LINE SMOOTH",
"628 528 OFFCURVE",
"480 564 OFFCURVE",
"308 564 CURVE SMOOTH",
"216 564 OFFCURVE",
"116 544 OFFCURVE",
"60 524 CURVE",
"56 516 LINE",
"65 480 OFFCURVE",
"68 396 OFFCURVE",
"68 356 CURVE SMOOTH"
);
}
);
};
hints = (
{
horizontal = 1;
place = "{0, 21}";
target = up;
type = BottomGhost;
},
{
horizontal = 1;
place = "{400, 164}";
type = Stem;
},
{
place = "{68, 212}";
type = Stem;
},
{
place = "{416, 212}";
type = Stem;
}
);
layerId = "F2028F70-0529-41D4-9F63-024EA79743CD";
paths = (
{
closed = 1;
nodes = (
"68 0 LINE",
"280 0 LINE",
"280 316 LINE SMOOTH",
"280 372 OFFCURVE",
"274 404 OFFCURVE",
"264 425 CURVE",
"236 380 LINE",
"260 388 OFFCURVE",
"288 400 OFFCURVE",
"324 400 CURVE SMOOTH",
"376 400 OFFCURVE",
"416 380 OFFCURVE",
"416 304 CURVE SMOOTH",
"416 0 LINE",
"628 0 LINE",
"628 308 LINE SMOOTH",
"628 516 OFFCURVE",
"480 564 OFFCURVE",
"338 564 CURVE SMOOTH",
"228 564 OFFCURVE",
"132 536 OFFCURVE",
"60 504 CURVE",
"56 496 LINE",
"65 460 OFFCURVE",
"68 376 OFFCURVE",
"68 336 CURVE SMOOTH"
);
}
);
width = 692;
},
{
anchors = (
{
name = bottom;
position = "{320, 0}";
},
{
name = top;
position = "{320, 544}";
}
);
background = {
paths = (
{
closed = 1;
nodes = (
"96 0 LINE",
"188 0 LINE",
"188 396 LINE SMOOTH",
"188 419 OFFCURVE",
"187 441 OFFCURVE",
"185 459 CURVE",
"219 468 OFFCURVE",
"261 476 OFFCURVE",
"296 476 CURVE SMOOTH",
"396 476 OFFCURVE",
"456 444 OFFCURVE",
"456 312 CURVE SMOOTH",
"456 0 LINE",
"548 0 LINE",
"548 320 LINE SMOOTH",
"548 508 OFFCURVE",
"440 556 OFFCURVE",
"308 556 CURVE SMOOTH",
"256 556 OFFCURVE",
"142 536 OFFCURVE",
"90 516 CURVE",
"88 508 LINE",
"96 472 OFFCURVE",
"96 384 OFFCURVE",
"96 344 CURVE SMOOTH"
);
}
);
};
hints = (
{
horizontal = 1;
place = "{0, 21}";
target = up;
type = BottomGhost;
},
{
horizontal = 1;
place = "{476, 80}";
type = Stem;
},
{
place = "{96, 92}";
type = Stem;
},
{
place = "{456, 92}";
type = Stem;
}
);
layerId = "3E005A84-7828-4122-B6E8-61930BD9836F";
paths = (
{
closed = 1;
nodes = (
"96 0 LINE",
"188 0 LINE",
"188 396 LINE SMOOTH",
"188 428 OFFCURVE",
"185 460 OFFCURVE",
"180 480 CURVE",
"164 452 LINE",
"200 465 OFFCURVE",
"253 476 OFFCURVE",
"296 476 CURVE SMOOTH",
"396 476 OFFCURVE",
"456 444 OFFCURVE",
"456 312 CURVE SMOOTH",
"456 0 LINE",
"548 0 LINE",
"548 320 LINE SMOOTH",
"548 508 OFFCURVE",
"440 556 OFFCURVE",
"308 556 CURVE SMOOTH",
"248 556 OFFCURVE",
"142 536 OFFCURVE",
"90 516 CURVE",
"88 508 LINE",
"96 472 OFFCURVE",
"96 384 OFFCURVE",
"96 344 CURVE SMOOTH"
);
}
);
width = 640;
}
);
leftKerningGroup = m;
note = n;
rightKerningGroup = a;
unicode = 006E;
},
{
color = 4;
glyphname = o;
lastChange = "2018-12-20 13:57:52 +0000";
layers = (
{
anchors = (
{
name = bottom;
position = "{336, 0}";
},
{
name = center;
position = "{336, 274}";
},
{
name = ogonek;
position = "{437, 0}";
},
{
name = top;
position = "{336, 548}";
},
{
name = topright;
position = "{447, 548}";
}
);
hints = (
{
horizontal = 1;
place = "{-12, 148}";
type = Stem;
},
{
horizontal = 1;
place = "{416, 148}";
type = Stem;
},
{
place = "{40, 216}";
type = Stem;
},
{
place = "{416, 216}";
type = Stem;
}
);
layerId = "F2028F70-0529-41D4-9F63-024EA79743CD";
paths = (
{
closed = 1;
nodes = (
"40 76 OFFCURVE",
"164 -12 OFFCURVE",
"336 -12 CURVE SMOOTH",
"508 -12 OFFCURVE",
"632 76 OFFCURVE",
"632 276 CURVE SMOOTH",
"632 476 OFFCURVE",
"508 564 OFFCURVE",
"336 564 CURVE SMOOTH",
"164 564 OFFCURVE",
"40 476 OFFCURVE",
"40 276 CURVE SMOOTH"
);
},
{
closed = 1;
nodes = (
"256 368 OFFCURVE",
"280 416 OFFCURVE",
"336 416 CURVE SMOOTH",
"392 416 OFFCURVE",
"416 368 OFFCURVE",
"416 276 CURVE SMOOTH",
"416 184 OFFCURVE",
"392 136 OFFCURVE",
"336 136 CURVE SMOOTH",
"280 136 OFFCURVE",
"256 184 OFFCURVE",
"256 276 CURVE SMOOTH"
);
}
);
width = 672;
},
{
anchors = (
{
name = bottom;
position = "{302, 0}";
},
{
name = center;
position = "{302, 272}";
},
{
name = ogonek;
position = "{369, 0}";
},
{
name = top;
position = "{302, 544}";
},
{
name = topright;
position = "{384, 544}";
}
);
hints = (
{
horizontal = 1;
place = "{-8, 80}";
type = Stem;
},
{
horizontal = 1;
place = "{476, 80}";
type = Stem;
},
{
place = "{52, 94}";
type = Stem;
},
{
place = "{458, 94}";
type = Stem;
}
);
layerId = "3E005A84-7828-4122-B6E8-61930BD9836F";
paths = (
{
closed = 1;
nodes = (
"52 96 OFFCURVE",
"150 -8 OFFCURVE",
"302 -8 CURVE SMOOTH",
"450 -8 OFFCURVE",
"552 96 OFFCURVE",
"552 274 CURVE SMOOTH",
"552 452 OFFCURVE",
"450 556 OFFCURVE",
"302 556 CURVE SMOOTH",
"154 556 OFFCURVE",
"52 452 OFFCURVE",
"52 274 CURVE SMOOTH"
);
},
{
closed = 1;
nodes = (
"146 408 OFFCURVE",
"202 476 OFFCURVE",
"302 476 CURVE SMOOTH",
"402 476 OFFCURVE",
"458 408 OFFCURVE",
"458 274 CURVE SMOOTH",
"458 140 OFFCURVE",
"402 72 OFFCURVE",
"302 72 CURVE SMOOTH",
"202 72 OFFCURVE",
"146 140 OFFCURVE",
"146 274 CURVE SMOOTH"
);
}
);
width = 604;
}
);
leftKerningGroup = c;
note = o;
rightKerningGroup = b;
unicode = 006F;
},
{
color = 4;
glyphname = p;
lastChange = "2018-12-17 16:05:59 +0000";
layers = (
{
anchors = (
{
name = bottom;
position = "{342, 0}";
},
{
name = top;
position = "{342, 548}";
}
);
background = {
paths = (
{
closed = 1;
nodes = (
"280 -232 LINE",
"280 -8 LINE",
"298 -10 OFFCURVE",
"324 -12 OFFCURVE",
"348 -12 CURVE SMOOTH",
"568 -12 OFFCURVE",
"644 136 OFFCURVE",
"644 276 CURVE SMOOTH",
"644 500 OFFCURVE",
"480 564 OFFCURVE",
"328 564 CURVE SMOOTH",
"228 564 OFFCURVE",
"147 540 OFFCURVE",
"60 504 CURVE",
"56 496 LINE",
"65 460 OFFCURVE",
"68 380 OFFCURVE",
"68 340 CURVE SMOOTH",
"68 -232 LINE"
);
},
{
closed = 1;
nodes = (
"298 136 OFFCURVE",
"287 138 OFFCURVE",
"280 139 CURVE",
"280 336 LINE SMOOTH",
"280 366 OFFCURVE",
"279 388 OFFCURVE",
"275 405 CURVE",
"288 409 OFFCURVE",
"304 412 OFFCURVE",
"320 412 CURVE SMOOTH",
"400 412 OFFCURVE",
"428 352 OFFCURVE",
"428 276 CURVE SMOOTH",
"428 196 OFFCURVE",
"400 136 OFFCURVE",
"312 136 CURVE SMOOTH"
);
}
);
};
hints = (
{
horizontal = 1;
place = "{-232, 21}";
target = up;
type = BottomGhost;
},
{
horizontal = 1;
place = "{-12, 148}";
type = Stem;
},
{
horizontal = 1;
place = "{412, 152}";
type = Stem;
},
{
place = "{68, 212}";
type = Stem;
},
{
horizontal = 1;
place = "{-8, 21}";
target = up;
type = BottomGhost;
},
{
place = "{428, 216}";
type = Stem;
}
);
layerId = "F2028F70-0529-41D4-9F63-024EA79743CD";
paths = (
{
closed = 1;
nodes = (
"280 -232 LINE",
"280 78 LINE",
"258 -4 LINE",
"253 -5 OFFCURVE",
"304 -12 OFFCURVE",
"348 -12 CURVE SMOOTH",
"568 -12 OFFCURVE",
"644 136 OFFCURVE",
"644 276 CURVE SMOOTH",
"644 500 OFFCURVE",
"480 564 OFFCURVE",
"328 564 CURVE SMOOTH",
"228 564 OFFCURVE",
"147 540 OFFCURVE",
"60 504 CURVE",
"56 496 LINE",
"65 460 OFFCURVE",
"68 380 OFFCURVE",
"68 340 CURVE SMOOTH",
"68 -232 LINE"
);
},
{
closed = 1;
nodes = (
"280 336 LINE SMOOTH",
"280 391 OFFCURVE",
"277 419 OFFCURVE",
"258 439 CURVE",
"246 389 LINE",
"248 397 OFFCURVE",
"284 412 OFFCURVE",
"320 412 CURVE SMOOTH",
"400 412 OFFCURVE",
"428 352 OFFCURVE",
"428 276 CURVE SMOOTH",
"428 196 OFFCURVE",
"400 136 OFFCURVE",
"312 136 CURVE SMOOTH",
"273 136 OFFCURVE",
"257 152 OFFCURVE",
"287 118 CURVE",
"280 53 LINE"
);
}
);
width = 684;
},
{
anchors = (
{
name = bottom;
position = "{309, 0}";
},
{
name = top;
position = "{309, 544}";
}
);
background = {
paths = (
{
closed = 1;
nodes = (
"188 -232 LINE",
"188 1 LINE",
"213 -5 OFFCURVE",
"248 -12 OFFCURVE",
"280 -12 CURVE SMOOTH",
"456 -12 OFFCURVE",
"566 96 OFFCURVE",
"566 274 CURVE SMOOTH",
"566 452 OFFCURVE",
"460 556 OFFCURVE",
"292 556 CURVE SMOOTH",
"224 556 OFFCURVE",
"148 540 OFFCURVE",
"90 516 CURVE",
"88 508 LINE",
"96 472 OFFCURVE",
"96 384 OFFCURVE",
"96 348 CURVE SMOOTH",
"96 -232 LINE"
);
},
{
closed = 1;
nodes = (
"235 68 OFFCURVE",
"206 74 OFFCURVE",
"188 81 CURVE",
"188 396 LINE SMOOTH",
"188 418 OFFCURVE",
"187 440 OFFCURVE",
"185 458 CURVE",
"212 468 OFFCURVE",
"248 476 OFFCURVE",
"284 476 CURVE SMOOTH",
"404 476 OFFCURVE",
"472 408 OFFCURVE",
"472 274 CURVE SMOOTH",
"472 140 OFFCURVE",
"408 68 OFFCURVE",
"280 68 CURVE SMOOTH"
);
}
);
};
hints = (
{
horizontal = 1;
place = "{-232, 21}";
target = up;
type = BottomGhost;
},
{
horizontal = 1;
place = "{-12, 80}";
type = Stem;
},
{
horizontal = 1;
place = "{476, 80}";
type = Stem;
},
{
place = "{96, 92}";
type = Stem;
},
{
place = "{472, 94}";
type = Stem;
}
);
layerId = "3E005A84-7828-4122-B6E8-61930BD9836F";
paths = (
{
closed = 1;
nodes = (
"188 -232 LINE",
"188 39 LINE",
"170 5 LINE",
"194 -1 OFFCURVE",
"239 -12 OFFCURVE",
"280 -12 CURVE SMOOTH",
"456 -12 OFFCURVE",
"566 96 OFFCURVE",
"566 274 CURVE SMOOTH",
"566 452 OFFCURVE",
"460 556 OFFCURVE",
"292 556 CURVE SMOOTH",
"224 556 OFFCURVE",
"148 540 OFFCURVE",
"90 516 CURVE",
"88 508 LINE",
"96 472 OFFCURVE",
"96 384 OFFCURVE",
"96 348 CURVE SMOOTH",
"96 -232 LINE"
);
},
{
closed = 1;
nodes = (
"188 396 LINE SMOOTH",
"188 427 OFFCURVE",
"186 458 OFFCURVE",
"182 478 CURVE",
"167 450 LINE",
"194 464 OFFCURVE",
"239 476 OFFCURVE",
"284 476 CURVE SMOOTH",
"404 476 OFFCURVE",
"472 408 OFFCURVE",
"472 274 CURVE SMOOTH",
"472 140 OFFCURVE",
"408 68 OFFCURVE",
"280 68 CURVE SMOOTH",
"223 68 OFFCURVE",
"192 78 OFFCURVE",
"176 87 CURVE",
"188 43 LINE"
);
}
);
width = 618;
}
);
leftKerningGroup = m;
note = p;
rightKerningGroup = b;
unicode = 0070;
},
{
color = 4;
glyphname = q;
lastChange = "2018-12-17 16:05:59 +0000";
layers = (
{
anchors = (
{
name = bottom;
position = "{342, 0}";
},
{
name = top;
position = "{342, 548}";
}
);
background = {
paths = (
{
closed = 1;
nodes = (
"404 -208 LINE",
"616 -208 LINE",
"616 360 LINE SMOOTH",
"616 400 OFFCURVE",
"616 480 OFFCURVE",
"624 516 CURVE",
"620 524 LINE",
"576 538 OFFCURVE",
"504 556 OFFCURVE",
"400 556 CURVE SMOOTH",
"212 556 OFFCURVE",
"40 484 OFFCURVE",
"40 272 CURVE SMOOTH",
"40 92 OFFCURVE",
"148 -12 OFFCURVE",
"340 -12 CURVE SMOOTH",
"362 -12 OFFCURVE",
"385 -10 OFFCURVE",
"404 -8 CURVE"
);
},
{
closed = 1;
nodes = (
"301 140 OFFCURVE",
"256 182 OFFCURVE",
"256 272 CURVE SMOOTH",
"256 350 OFFCURVE",
"285 408 OFFCURVE",
"372 408 CURVE SMOOTH",
"386 408 OFFCURVE",
"398 406 OFFCURVE",
"408 403 CURVE",
"405 383 OFFCURVE",
"404 358 OFFCURVE",
"404 330 CURVE SMOOTH",
"404 142 LINE",
"395 141 OFFCURVE",
"383 140 OFFCURVE",
"376 140 CURVE SMOOTH"
);
}
);
};
hints = (
{
horizontal = 1;
place = "{-12, 152}";
type = Stem;
},
{
horizontal = 1;
place = "{408, 148}";
type = Stem;
},
{
place = "{40, 216}";
type = Stem;
},
{
place = "{404, 212}";
type = Stem;
}
);
layerId = "F2028F70-0529-41D4-9F63-024EA79743CD";
paths = (
{
closed = 1;
nodes = (
"616 -208 LINE",
"616 352 LINE SMOOTH",
"616 392 OFFCURVE",
"616 472 OFFCURVE",
"624 508 CURVE",
"620 516 LINE",
"572 540 OFFCURVE",
"496 564 OFFCURVE",
"392 564 CURVE SMOOTH",
"212 564 OFFCURVE",
"40 492 OFFCURVE",
"40 276 CURVE SMOOTH",
"40 92 OFFCURVE",
"148 -12 OFFCURVE",
"340 -12 CURVE SMOOTH",
"382 -12 OFFCURVE",
"427 -5 OFFCURVE",
"442 -4 CURVE",
"404 78 LINE",
"404 -208 LINE"
);
},
{
closed = 1;
nodes = (
"448 148 LINE",
"420 144 OFFCURVE",
"397 140 OFFCURVE",
"376 140 CURVE SMOOTH",
"301 140 OFFCURVE",
"256 182 OFFCURVE",
"256 276 CURVE SMOOTH",
"256 358 OFFCURVE",
"285 416 OFFCURVE",
"372 416 CURVE SMOOTH",
"408 416 OFFCURVE",
"431 403 OFFCURVE",
"440 393 CURVE",
"419 448 LINE",
"407 429 OFFCURVE",
"404 388 OFFCURVE",
"404 338 CURVE SMOOTH",
"404 99 LINE"
);
}
);
width = 684;
},
{
anchors = (
{
name = bottom;
position = "{309, 0}";
},
{
name = top;
position = "{309, 544}";
}
);
background = {
paths = (
{
closed = 1;
nodes = (
"430 -232 LINE",
"522 -232 LINE",
"522 348 LINE SMOOTH",
"522 388 OFFCURVE",
"522 476 OFFCURVE",
"530 512 CURVE",
"528 520 LINE",
"476 540 OFFCURVE",
"404 556 OFFCURVE",
"340 556 CURVE SMOOTH",
"168 556 OFFCURVE",
"52 452 OFFCURVE",
"52 274 CURVE SMOOTH",
"52 96 OFFCURVE",
"152 -12 OFFCURVE",
"332 -12 CURVE SMOOTH",
"367 -12 OFFCURVE",
"404 -7 OFFCURVE",
"430 0 CURVE"
);
},
{
closed = 1;
nodes = (
"214 68 OFFCURVE",
"146 132 OFFCURVE",
"146 274 CURVE SMOOTH",
"146 404 OFFCURVE",
"216 476 OFFCURVE",
"344 476 CURVE SMOOTH",
"378 476 OFFCURVE",
"408 470 OFFCURVE",
"433 463 CURVE",
"431 444 OFFCURVE",
"430 423 OFFCURVE",
"430 400 CURVE SMOOTH",
"430 81 LINE",
"410 74 OFFCURVE",
"378 68 OFFCURVE",
"340 68 CURVE SMOOTH"
);
}
);
};
hints = (
{
horizontal = 1;
place = "{-232, 21}";
target = up;
type = BottomGhost;
},
{
horizontal = 1;
place = "{-12, 80}";
type = Stem;
},
{
horizontal = 1;
place = "{476, 80}";
type = Stem;
},
{
place = "{52, 94}";
type = Stem;
},
{
place = "{430, 92}";
type = Stem;
}
);
layerId = "3E005A84-7828-4122-B6E8-61930BD9836F";
paths = (
{
closed = 1;
nodes = (
"522 -232 LINE",
"522 348 LINE SMOOTH",
"522 388 OFFCURVE",
"522 476 OFFCURVE",
"530 512 CURVE",
"528 520 LINE",
"476 540 OFFCURVE",
"404 556 OFFCURVE",
"340 556 CURVE SMOOTH",
"168 556 OFFCURVE",
"52 452 OFFCURVE",
"52 274 CURVE SMOOTH",
"52 96 OFFCURVE",
"152 -12 OFFCURVE",
"332 -12 CURVE SMOOTH",
"376 -12 OFFCURVE",
"423 -4 OFFCURVE",
"448 6 CURVE",
"430 38 LINE",
"430 -232 LINE"
);
},
{
closed = 1;
nodes = (
"444 87 LINE",
"427 78 OFFCURVE",
"388 68 OFFCURVE",
"340 68 CURVE SMOOTH",
"214 68 OFFCURVE",
"146 132 OFFCURVE",
"146 274 CURVE SMOOTH",
"146 404 OFFCURVE",
"216 476 OFFCURVE",
"344 476 CURVE SMOOTH",
"387 476 OFFCURVE",
"424 466 OFFCURVE",
"453 457 CURVE",
"436 485 LINE",
"432 460 OFFCURVE",
"430 432 OFFCURVE",
"430 400 CURVE SMOOTH",
"430 43 LINE"
);
}
);
width = 618;
}
);
leftKerningGroup = c;
note = q;
rightKerningGroup = g;
unicode = 0071;
},
{
color = 4;
glyphname = r;
lastChange = "2018-12-17 21:06:41 +0000";
layers = (
{
anchors = (
{
name = bottom;
position = "{174, 0}";
},
{
name = top;
position = "{222, 548}";
}
);
background = {
paths = (
{
closed = 1;
nodes = (
"68 0 LINE",
"280 0 LINE",
"280 316 LINE SMOOTH",
"280 352 OFFCURVE",
"278 379 OFFCURVE",
"273 398 CURVE",
"291 402 OFFCURVE",
"312 404 OFFCURVE",
"336 404 CURVE SMOOTH",
"364 404 OFFCURVE",
"392 400 OFFCURVE",
"416 392 CURVE",
"428 392 LINE",
"428 556 LINE",
"378 563 OFFCURVE",
"335 564 OFFCURVE",
"320 564 CURVE SMOOTH",
"192 564 OFFCURVE",
"120 544 OFFCURVE",
"60 524 CURVE",
"56 516 LINE",
"65 480 OFFCURVE",
"68 396 OFFCURVE",
"68 356 CURVE SMOOTH"
);
}
);
};
hints = (
{
horizontal = 1;
place = "{0, 21}";
target = up;
type = BottomGhost;
},
{
horizontal = 1;
place = "{556, -20}";
target = down;
type = TopGhost;
},
{
place = "{68, 212}";
type = Stem;
},
{
horizontal = 1;
place = "{404, 160}";
type = Stem;
}
);
layerId = "F2028F70-0529-41D4-9F63-024EA79743CD";
paths = (
{
closed = 1;
nodes = (
"280 0 LINE",
"280 316 LINE SMOOTH",
"280 377 OFFCURVE",
"274 412 OFFCURVE",
"258 426 CURVE",
"231 382 LINE",
"255 397 OFFCURVE",
"290 404 OFFCURVE",
"336 404 CURVE SMOOTH",
"364 404 OFFCURVE",
"392 400 OFFCURVE",
"416 392 CURVE",
"428 392 LINE",
"428 556 LINE",
"378 563 OFFCURVE",
"335 564 OFFCURVE",
"320 564 CURVE SMOOTH",
"192 564 OFFCURVE",
"120 544 OFFCURVE",
"60 524 CURVE",
"56 516 LINE",
"65 480 OFFCURVE",
"68 396 OFFCURVE",
"68 356 CURVE SMOOTH",
"68 0 LINE"
);
}
);
width = 444;
},
{
anchors = (
{
name = bottom;
position = "{142, 0}";
},
{
name = top;
position = "{192, 544}";
}
);
background = {
paths = (
{
closed = 1;
nodes = (
"96 0 LINE",
"188 0 LINE",
"188 396 LINE SMOOTH",
"188 418 OFFCURVE",
"187 439 OFFCURVE",
"185 457 CURVE",
"216 463 OFFCURVE",
"254 468 OFFCURVE",
"288 468 CURVE SMOOTH",
"308 468 OFFCURVE",
"335 467 OFFCURVE",
"352 464 CURVE",
"360 464 LINE",
"360 544 LINE",
"346 546 OFFCURVE",
"328 548 OFFCURVE",
"296 548 CURVE SMOOTH",
"244 548 OFFCURVE",
"142 536 OFFCURVE",
"90 516 CURVE",
"88 508 LINE",
"96 472 OFFCURVE",
"96 384 OFFCURVE",
"96 344 CURVE SMOOTH"
);
}
);
};
hints = (
{
horizontal = 1;
place = "{0, 21}";
target = up;
type = BottomGhost;
},
{
horizontal = 1;
place = "{468, 80}";
type = Stem;
},
{
place = "{96, 92}";
type = Stem;
},
{
horizontal = 1;
place = "{544, -20}";
target = down;
type = TopGhost;
}
);
layerId = "3E005A84-7828-4122-B6E8-61930BD9836F";
paths = (
{
closed = 1;
nodes = (
"188 0 LINE",
"188 396 LINE SMOOTH",
"188 427 OFFCURVE",
"186 456 OFFCURVE",
"182 478 CURVE",
"164 453 LINE",
"197 460 OFFCURVE",
"246 468 OFFCURVE",
"288 468 CURVE SMOOTH",
"308 468 OFFCURVE",
"335 467 OFFCURVE",
"352 464 CURVE",
"360 464 LINE",
"360 544 LINE",
"346 546 OFFCURVE",
"328 548 OFFCURVE",
"296 548 CURVE SMOOTH",
"244 548 OFFCURVE",
"142 536 OFFCURVE",
"90 516 CURVE",
"88 508 LINE",
"96 472 OFFCURVE",
"96 384 OFFCURVE",
"96 344 CURVE SMOOTH",
"96 0 LINE"
);
}
);
width = 384;
}
);
leftKerningGroup = m;
leftMetricsKey = n;
note = r;
rightKerningGroup = r;
unicode = 0072;
},
{
color = 4;
glyphname = s;
lastChange = "2018-12-17 16:05:59 +0000";
layers = (
{
anchors = (
{
name = bottom;
position = "{284, 0}";
},
{
name = top;
position = "{284, 548}";
}
);
hints = (
{
horizontal = 1;
place = "{-8, 152}";
type = Stem;
},
{
horizontal = 1;
place = "{408, 152}";
type = Stem;
},
{
place = "{48, 204}";
type = Stem;
},
{
place = "{328, 208}";
type = Stem;
}
);
layerId = "F2028F70-0529-41D4-9F63-024EA79743CD";
paths = (
{
closed = 1;
nodes = (
"52 20 LINE",
"108 4 OFFCURVE",
"184 -8 OFFCURVE",
"244 -8 CURVE SMOOTH",
"437 -8 OFFCURVE",
"536 52 OFFCURVE",
"536 180 CURVE SMOOTH",
"536 288 OFFCURVE",
"460 327 OFFCURVE",
"364 344 CURVE SMOOTH",
"320 352 LINE SMOOTH",
"273 361 OFFCURVE",
"252 364 OFFCURVE",
"252 382 CURVE SMOOTH",
"252 402 OFFCURVE",
"280 408 OFFCURVE",
"328 408 CURVE SMOOTH",
"372 408 OFFCURVE",
"432 401 OFFCURVE",
"492 376 CURVE",
"500 376 LINE",
"500 540 LINE",
"440 556 OFFCURVE",
"396 560 OFFCURVE",
"332 560 CURVE SMOOTH",
"136 560 OFFCURVE",
"48 484 OFFCURVE",
"48 372 CURVE SMOOTH",
"48 272 OFFCURVE",
"114 230 OFFCURVE",
"212 212 CURVE SMOOTH",
"256 204 LINE SMOOTH",
"314 193 OFFCURVE",
"328 191 OFFCURVE",
"328 170 CURVE SMOOTH",
"328 150 OFFCURVE",
"316 144 OFFCURVE",
"256 144 CURVE SMOOTH",
"184 144 OFFCURVE",
"108 164 OFFCURVE",
"60 184 CURVE",
"52 184 LINE"
);
}
);
width = 568;
},
{
anchors = (
{
name = bottom;
position = "{250, 0}";
},
{
name = top;
position = "{250, 544}";
}
);
hints = (
{
horizontal = 1;
place = "{-8, 80}";
type = Stem;
},
{
horizontal = 1;
place = "{234, 76}";
type = Stem;
},
{
horizontal = 1;
place = "{472, 80}";
type = Stem;
},
{
place = "{52, 88}";
type = Stem;
},
{
place = "{376, 88}";
type = Stem;
}
);
layerId = "3E005A84-7828-4122-B6E8-61930BD9836F";
paths = (
{
closed = 1;
nodes = (
"52 20 LINE",
"100 4 OFFCURVE",
"160 -8 OFFCURVE",
"228 -8 CURVE SMOOTH",
"388 -8 OFFCURVE",
"464 48 OFFCURVE",
"464 156 CURVE SMOOTH",
"464 248 OFFCURVE",
"388 291 OFFCURVE",
"296 306 CURVE SMOOTH",
"248 314 LINE SMOOTH",
"180 325 OFFCURVE",
"140 340 OFFCURVE",
"140 387 CURVE SMOOTH",
"140 448 OFFCURVE",
"196 472 OFFCURVE",
"288 472 CURVE SMOOTH",
"340 472 OFFCURVE",
"376 464 OFFCURVE",
"420 448 CURVE",
"428 448 LINE",
"428 530 LINE",
"396 542 OFFCURVE",
"344 552 OFFCURVE",
"292 552 CURVE SMOOTH",
"116 552 OFFCURVE",
"52 472 OFFCURVE",
"52 384 CURVE SMOOTH",
"52 300 OFFCURVE",
"106 257 OFFCURVE",
"219 238 CURVE SMOOTH",
"267 230 LINE SMOOTH",
"335 219 OFFCURVE",
"376 204 OFFCURVE",
"376 156 CURVE SMOOTH",
"376 71 OFFCURVE",
"268 72 OFFCURVE",
"232 72 CURVE SMOOTH",
"172 72 OFFCURVE",
"108 86 OFFCURVE",
"60 108 CURVE",
"52 108 LINE"
);
}
);
width = 500;
}
);
leftKerningGroup = s;
note = s;
rightKerningGroup = s;
unicode = 0073;
},
{
color = 4;
glyphname = t;
lastChange = "2018-12-17 22:13:40 +0000";
layers = (
{
anchors = (
{
name = bottom;
position = "{250, 0}";
},
{
name = center;
position = "{250, 274}";
},
{
name = top;
position = "{206, 680}";
},
{
name = topright;
position = "{431, 616}";
}
);
background = {
paths = (
{
closed = 1;
nodes = (
"8 388 LINE",
"100 388 LINE",
"100 216 LINE SMOOTH",
"100 36 OFFCURVE",
"216 -8 OFFCURVE",
"364 -8 CURVE SMOOTH",
"410 -8 OFFCURVE",
"440 -4 OFFCURVE",
"472 4 CURVE",
"472 168 LINE",
"460 168 LINE",
"444 162 OFFCURVE",
"422 156 OFFCURVE",
"400 156 CURVE SMOOTH",
"340 156 OFFCURVE",
"312 176 OFFCURVE",
"312 232 CURVE SMOOTH",
"312 388 LINE",
"450 388 LINE",
"450 548 LINE",
"312 548 LINE",
"312 680 LINE",
"100 680 LINE",
"100 548 LINE",
"8 548 LINE"
);
}
);
};
hints = (
{
horizontal = 1;
place = "{-8, 164}";
type = Stem;
},
{
horizontal = 1;
place = "{388, 160}";
type = Stem;
},
{
place = "{100, 212}";
type = Stem;
}
);
layerId = "F2028F70-0529-41D4-9F63-024EA79743CD";
paths = (
{
closed = 1;
nodes = (
"410 -8 OFFCURVE",
"440 -4 OFFCURVE",
"472 4 CURVE",
"472 168 LINE",
"460 168 LINE",
"444 162 OFFCURVE",
"422 156 OFFCURVE",
"400 156 CURVE SMOOTH",
"340 156 OFFCURVE",
"312 176 OFFCURVE",
"312 232 CURVE SMOOTH",
"312 680 LINE",
"100 680 LINE",
"100 216 LINE SMOOTH",
"100 36 OFFCURVE",
"216 -8 OFFCURVE",
"364 -8 CURVE SMOOTH"
);
},
{
closed = 1;
nodes = (
"450 388 LINE",
"450 548 LINE",
"8 548 LINE",
"8 388 LINE"
);
}
);
width = 500;
},
{
anchors = (
{
name = bottom;
position = "{202, 0}";
},
{
name = center;
position = "{202, 272}";
},
{
name = top;
position = "{150, 692}";
},
{
name = topright;
position = "{301, 567}";
}
);
background = {
paths = (
{
closed = 1;
nodes = (
"20 464 LINE",
"104 464 LINE",
"104 172 LINE SMOOTH",
"104 64 OFFCURVE",
"156 -8 OFFCURVE",
"296 -8 CURVE SMOOTH",
"332 -8 OFFCURVE",
"364 0 OFFCURVE",
"384 10 CURVE",
"384 88 LINE",
"376 88 LINE",
"356 78 OFFCURVE",
"328 72 OFFCURVE",
"300 72 CURVE SMOOTH",
"228 72 OFFCURVE",
"196 104 OFFCURVE",
"196 180 CURVE SMOOTH",
"196 464 LINE",
"352 464 LINE",
"352 544 LINE",
"196 544 LINE",
"196 692 LINE",
"104 692 LINE",
"104 544 LINE",
"20 544 LINE"
);
}
);
};
hints = (
{
horizontal = 1;
place = "{-8, 80}";
type = Stem;
},
{
horizontal = 1;
place = "{464, 80}";
type = Stem;
},
{
place = "{104, 92}";
type = Stem;
}
);
layerId = "3E005A84-7828-4122-B6E8-61930BD9836F";
paths = (
{
closed = 1;
nodes = (
"332 -8 OFFCURVE",
"364 0 OFFCURVE",
"384 10 CURVE",
"384 88 LINE",
"376 88 LINE",
"356 78 OFFCURVE",
"328 72 OFFCURVE",
"300 72 CURVE SMOOTH",
"228 72 OFFCURVE",
"196 104 OFFCURVE",
"196 180 CURVE SMOOTH",
"196 692 LINE",
"104 692 LINE",
"104 172 LINE SMOOTH",
"104 64 OFFCURVE",
"156 -8 OFFCURVE",
"296 -8 CURVE SMOOTH"
);
},
{
closed = 1;
nodes = (
"352 464 LINE",
"352 544 LINE",
"20 544 LINE",
"20 464 LINE"
);
}
);
width = 404;
}
);
leftKerningGroup = t;
note = t;
rightKerningGroup = t;
unicode = 0074;
},
{
color = 4;
glyphname = u;
lastChange = "2018-12-20 13:58:04 +0000";
layers = (
{
anchors = (
{
name = bottom;
position = "{346, 0}";
},
{
name = ogonek;
position = "{632, 48}";
},
{
name = top;
position = "{346, 548}";
},
{
name = topright;
position = "{517, 548}";
}
);
background = {
paths = (
{
closed = 1;
nodes = (
"64 244 LINE SMOOTH",
"64 24 OFFCURVE",
"212 -12 OFFCURVE",
"384 -12 CURVE SMOOTH",
"476 -12 OFFCURVE",
"576 8 OFFCURVE",
"632 28 CURVE",
"636 36 LINE",
"627 72 OFFCURVE",
"624 156 OFFCURVE",
"624 196 CURVE SMOOTH",
"624 548 LINE",
"404 548 LINE",
"400 540 LINE",
"409 504 OFFCURVE",
"412 424 OFFCURVE",
"412 384 CURVE SMOOTH",
"412 236 LINE SMOOTH",
"412 202 OFFCURVE",
"413 177 OFFCURVE",
"417 158 CURVE",
"403 154 OFFCURVE",
"386 152 OFFCURVE",
"368 152 CURVE SMOOTH",
"316 152 OFFCURVE",
"276 172 OFFCURVE",
"276 248 CURVE SMOOTH",
"276 548 LINE",
"56 548 LINE",
"52 540 LINE",
"61 504 OFFCURVE",
"64 424 OFFCURVE",
"64 384 CURVE SMOOTH"
);
}
);
};
hints = (
{
horizontal = 1;
place = "{-12, 164}";
type = Stem;
},
{
horizontal = 1;
place = "{548, -20}";
target = down;
type = TopGhost;
},
{
place = "{64, 212}";
type = Stem;
},
{
place = "{412, 212}";
type = Stem;
}
);
layerId = "F2028F70-0529-41D4-9F63-024EA79743CD";
paths = (
{
closed = 1;
nodes = (
"464 -12 OFFCURVE",
"560 16 OFFCURVE",
"632 48 CURVE",
"636 56 LINE",
"627 92 OFFCURVE",
"624 176 OFFCURVE",
"624 216 CURVE SMOOTH",
"624 548 LINE",
"404 548 LINE",
"400 540 LINE",
"409 504 OFFCURVE",
"412 424 OFFCURVE",
"412 384 CURVE SMOOTH",
"412 236 LINE SMOOTH",
"412 180 OFFCURVE",
"418 148 OFFCURVE",
"428 127 CURVE",
"456 172 LINE",
"432 164 OFFCURVE",
"404 152 OFFCURVE",
"368 152 CURVE SMOOTH",
"316 152 OFFCURVE",
"276 172 OFFCURVE",
"276 248 CURVE SMOOTH",
"276 548 LINE",
"56 548 LINE",
"52 540 LINE",
"61 504 OFFCURVE",
"64 424 OFFCURVE",
"64 384 CURVE SMOOTH",
"64 244 LINE SMOOTH",
"64 36 OFFCURVE",
"212 -12 OFFCURVE",
"354 -12 CURVE SMOOTH"
);
}
);
width = 692;
},
{
anchors = (
{
name = bottom;
position = "{316, 0}";
},
{
name = ogonek;
position = "{542, 24}";
},
{
name = top;
position = "{316, 544}";
},
{
name = topright;
position = "{469, 544}";
}
);
background = {
paths = (
{
closed = 1;
nodes = (
"84 224 LINE SMOOTH",
"84 36 OFFCURVE",
"192 -12 OFFCURVE",
"332 -12 CURVE SMOOTH",
"384 -12 OFFCURVE",
"490 4 OFFCURVE",
"542 24 CURVE",
"544 32 LINE",
"536 68 OFFCURVE",
"536 156 OFFCURVE",
"536 196 CURVE SMOOTH",
"536 544 LINE",
"438 544 LINE",
"436 536 LINE",
"444 500 OFFCURVE",
"444 412 OFFCURVE",
"444 372 CURVE SMOOTH",
"444 140 LINE SMOOTH",
"444 119 OFFCURVE",
"444 98 OFFCURVE",
"446 81 CURVE",
"415 74 OFFCURVE",
"377 68 OFFCURVE",
"343 68 CURVE SMOOTH",
"236 68 OFFCURVE",
"176 100 OFFCURVE",
"176 232 CURVE SMOOTH",
"176 544 LINE",
"78 544 LINE",
"76 536 LINE",
"84 500 OFFCURVE",
"84 412 OFFCURVE",
"84 372 CURVE SMOOTH"
);
}
);
};
hints = (
{
horizontal = 1;
place = "{-12, 80}";
type = Stem;
},
{
horizontal = 1;
place = "{544, -20}";
target = down;
type = TopGhost;
},
{
place = "{84, 92}";
type = Stem;
},
{
place = "{444, 92}";
type = Stem;
}
);
layerId = "3E005A84-7828-4122-B6E8-61930BD9836F";
paths = (
{
closed = 1;
nodes = (
"384 -12 OFFCURVE",
"490 4 OFFCURVE",
"542 24 CURVE",
"544 32 LINE",
"536 68 OFFCURVE",
"536 156 OFFCURVE",
"536 196 CURVE SMOOTH",
"536 544 LINE",
"438 544 LINE",
"436 536 LINE",
"444 500 OFFCURVE",
"444 412 OFFCURVE",
"444 372 CURVE SMOOTH",
"444 140 LINE SMOOTH",
"444 110 OFFCURVE",
"444 80 OFFCURVE",
"450 62 CURVE",
"467 86 LINE",
"434 77 OFFCURVE",
"385 68 OFFCURVE",
"343 68 CURVE SMOOTH",
"236 68 OFFCURVE",
"176 100 OFFCURVE",
"176 232 CURVE SMOOTH",
"176 544 LINE",
"78 544 LINE",
"76 536 LINE",
"84 500 OFFCURVE",
"84 412 OFFCURVE",
"84 372 CURVE SMOOTH",
"84 224 LINE SMOOTH",
"84 36 OFFCURVE",
"192 -12 OFFCURVE",
"332 -12 CURVE SMOOTH"
);
}
);
width = 632;
}
);
leftKerningGroup = u;
note = u;
rightKerningGroup = g;
unicode = 0075;
},
{
color = 4;
glyphname = v;
lastChange = "2018-12-17 16:05:59 +0000";
layers = (
{
anchors = (
{
name = bottom;
position = "{320, 0}";
},
{
name = top;
position = "{320, 548}";
}
);
background = {
paths = (
{
closed = 1;
nodes = (
"184 0 LINE",
"448 0 LINE",
"636 536 LINE",
"636 548 LINE",
"412 548 LINE",
"322 188 LINE",
"232 548 LINE",
"4 548 LINE",
"4 536 LINE"
);
}
);
};
hints = (
{
horizontal = 1;
place = "{0, 21}";
target = up;
type = BottomGhost;
},
{
horizontal = 1;
place = "{548, -20}";
target = down;
type = TopGhost;
},
{
place = "{4, 632}";
type = Stem;
}
);
layerId = "F2028F70-0529-41D4-9F63-024EA79743CD";
paths = (
{
closed = 1;
nodes = (
"448 0 LINE",
"636 536 LINE",
"636 548 LINE",
"412 548 LINE",
"301 104 LINE",
"343 104 LINE",
"232 548 LINE",
"4 548 LINE",
"4 536 LINE",
"184 0 LINE"
);
}
);
width = 640;
},
{
anchors = (
{
name = bottom;
position = "{268, 0}";
},
{
name = top;
position = "{268, 544}";
}
);
background = {
paths = (
{
closed = 1;
nodes = (
"204 0 LINE",
"324 0 LINE",
"524 532 LINE",
"524 544 LINE",
"432 544 LINE",
"268 82 LINE",
"108 544 LINE",
"12 544 LINE",
"12 532 LINE"
);
}
);
};
hints = (
{
horizontal = 1;
place = "{0, 21}";
target = up;
type = BottomGhost;
},
{
horizontal = 1;
place = "{544, -20}";
target = down;
type = TopGhost;
},
{
place = "{12, 512}";
type = Stem;
},
{
horizontal = 1;
place = "{0, 82}";
type = Stem;
}
);
layerId = "3E005A84-7828-4122-B6E8-61930BD9836F";
paths = (
{
closed = 1;
nodes = (
"324 0 LINE",
"524 532 LINE",
"524 544 LINE",
"432 544 LINE",
"255 46 LINE",
"280 46 LINE",
"108 544 LINE",
"12 544 LINE",
"12 532 LINE",
"204 0 LINE"
);
}
);
width = 536;
}
);
leftKerningGroup = v;
note = v;
rightKerningGroup = v;
unicode = 0076;
},
{
color = 4;
glyphname = w;
lastChange = "2018-12-17 16:05:59 +0000";
layers = (
{
anchors = (
{
name = bottom;
position = "{482, 0}";
},
{
name = top;
position = "{482, 548}";
}
);
background = {
paths = (
{
closed = 1;
nodes = (
"164 0 LINE",
"396 0 LINE",
"475 271 LINE",
"556 0 LINE",
"792 0 LINE",
"960 536 LINE",
"960 548 LINE",
"732 548 LINE",
"657 209 LINE",
"556 548 LINE",
"404 548 LINE",
"306 212 LINE",
"232 548 LINE",
"4 548 LINE",
"4 536 LINE"
);
}
);
};
hints = (
{
horizontal = 1;
place = "{0, 21}";
target = up;
type = BottomGhost;
},
{
horizontal = 1;
place = "{548, -20}";
target = down;
type = TopGhost;
},
{
place = "{4, 956}";
type = Stem;
}
);
layerId = "F2028F70-0529-41D4-9F63-024EA79743CD";
paths = (
{
closed = 1;
nodes = (
"396 0 LINE",
"499 354 LINE",
"450 354 LINE",
"556 0 LINE",
"792 0 LINE",
"960 536 LINE",
"960 548 LINE",
"732 548 LINE",
"638 125 LINE",
"682 126 LINE",
"556 548 LINE",
"404 548 LINE",
"282 129 LINE",
"325 128 LINE",
"232 548 LINE",
"4 548 LINE",
"4 536 LINE",
"164 0 LINE"
);
}
);
width = 964;
},
{
anchors = (
{
name = bottom;
position = "{386, 0}";
},
{
name = top;
position = "{386, 544}";
}
);
background = {
paths = (
{
closed = 1;
nodes = (
"156 0 LINE",
"264 0 LINE",
"384 378 LINE",
"500 0 LINE",
"608 0 LINE",
"760 532 LINE",
"760 544 LINE",
"668 544 LINE",
"551 91 LINE",
"416 544 LINE",
"356 544 LINE",
"216 93 LINE",
"104 544 LINE",
"12 544 LINE",
"12 532 LINE"
);
}
);
};
hints = (
{
horizontal = 1;
place = "{0, 21}";
target = up;
type = BottomGhost;
},
{
horizontal = 1;
place = "{544, -20}";
target = down;
type = TopGhost;
},
{
place = "{12, 748}";
type = Stem;
},
{
horizontal = 1;
place = "{0, 91}";
type = Stem;
}
);
layerId = "3E005A84-7828-4122-B6E8-61930BD9836F";
paths = (
{
closed = 1;
nodes = (
"264 0 LINE",
"395 414 LINE",
"373 414 LINE",
"500 0 LINE",
"608 0 LINE",
"760 532 LINE",
"760 544 LINE",
"668 544 LINE",
"542 54 LINE",
"562 55 LINE",
"416 544 LINE",
"356 544 LINE",
"205 57 LINE",
"225 56 LINE",
"104 544 LINE",
"12 544 LINE",
"12 532 LINE",
"156 0 LINE"
);
}
);
width = 772;
}
);
leftKerningGroup = w;
note = w;
rightKerningGroup = w;
unicode = 0077;
},
{
color = 4;
glyphname = x;
lastChange = "2018-12-17 16:05:59 +0000";
layers = (
{
anchors = (
{
name = bottom;
position = "{330, 0}";
},
{
name = top;
position = "{330, 548}";
}
);
background = {
paths = (
{
closed = 1;
nodes = (
"416 0 LINE",
"652 0 LINE",
"652 12 LINE",
"439 280 LINE",
"652 536 LINE",
"652 548 LINE",
"424 548 LINE",
"333 423 LINE",
"244 548 LINE",
"8 548 LINE",
"8 536 LINE",
"218 270 LINE",
"8 12 LINE",
"8 0 LINE",
"236 0 LINE",
"325 126 LINE"
);
}
);
};
hints = (
{
horizontal = 1;
place = "{0, 21}";
target = up;
type = BottomGhost;
},
{
horizontal = 1;
place = "{548, -20}";
target = down;
type = TopGhost;
},
{
place = "{8, 644}";
type = Stem;
}
);
layerId = "F2028F70-0529-41D4-9F63-024EA79743CD";
paths = (
{
closed = 1;
nodes = (
"652 0 LINE",
"652 12 LINE",
"380 352 LINE",
"244 548 LINE",
"8 548 LINE",
"8 536 LINE",
"280 196 LINE",
"416 0 LINE"
);
},
{
closed = 1;
nodes = (
"236 0 LINE",
"376 204 LINE",
"652 536 LINE",
"652 548 LINE",
"424 548 LINE",
"284 344 LINE",
"8 12 LINE",
"8 0 LINE"
);
}
);
width = 660;
},
{
anchors = (
{
name = bottom;
position = "{266, 0}";
},
{
name = top;
position = "{266, 544}";
}
);
background = {
paths = (
{
closed = 1;
nodes = (
"408 0 LINE",
"508 0 LINE",
"508 8 LINE",
"317 271 LINE",
"512 536 LINE",
"512 544 LINE",
"418 544 LINE",
"270 336 LINE",
"120 544 LINE",
"20 544 LINE",
"20 536 LINE",
"217 263 LINE",
"30 8 LINE",
"30 0 LINE",
"124 0 LINE",
"265 198 LINE"
);
}
);
};
hints = (
{
horizontal = 1;
place = "{0, 21}";
target = up;
type = BottomGhost;
},
{
horizontal = 1;
place = "{544, -20}";
target = down;
type = TopGhost;
},
{
place = "{20, 492}";
type = Stem;
}
);
layerId = "3E005A84-7828-4122-B6E8-61930BD9836F";
paths = (
{
closed = 1;
nodes = (
"508 0 LINE",
"508 8 LINE",
"288 312 LINE",
"120 544 LINE",
"20 544 LINE",
"20 536 LINE",
"240 232 LINE",
"408 0 LINE"
);
},
{
closed = 1;
nodes = (
"124 0 LINE",
"292 240 LINE",
"512 536 LINE",
"512 544 LINE",
"416 544 LINE",
"248 304 LINE",
"28 8 LINE",
"28 0 LINE"
);
}
);
width = 532;
}
);
leftKerningGroup = x;
note = x;
rightKerningGroup = x;
unicode = 0078;
},
{
color = 4;
glyphname = y;
lastChange = "2018-12-20 13:48:59 +0000";
layers = (
{
anchors = (
{
name = bottom;
position = "{520, 0}";
},
{
name = top;
position = "{312, 548}";
}
);
background = {
paths = (
{
closed = 1;
nodes = (
"120 -232 LINE",
"336 -232 LINE",
"624 536 LINE",
"624 548 LINE",
"408 548 LINE",
"306 241 LINE",
"228 548 LINE",
"0 548 LINE",
"0 536 LINE",
"200 -28 LINE",
"120 -220 LINE"
);
}
);
};
hints = (
{
horizontal = 1;
place = "{-232, 21}";
target = up;
type = BottomGhost;
},
{
horizontal = 1;
place = "{548, -20}";
target = down;
type = TopGhost;
},
{
place = "{0, 624}";
type = Stem;
}
);
layerId = "F2028F70-0529-41D4-9F63-024EA79743CD";
paths = (
{
closed = 1;
nodes = (
"336 -232 LINE",
"624 536 LINE",
"624 548 LINE",
"408 548 LINE",
"264 116 LINE",
"120 -220 LINE",
"120 -232 LINE"
);
},
{
closed = 1;
nodes = (
"328 152 LINE",
"228 548 LINE",
"0 548 LINE",
"0 536 LINE",
"216 -72 LINE"
);
}
);
width = 624;
},
{
anchors = (
{
name = bottom;
position = "{437, 0}";
},
{
name = top;
position = "{268, 544}";
}
);
background = {
paths = (
{
closed = 1;
nodes = (
"132 -232 LINE",
"220 -232 LINE",
"524 532 LINE",
"524 544 LINE",
"432 544 LINE",
"270 122 LINE",
"108 544 LINE",
"12 544 LINE",
"12 532 LINE",
"223 2 LINE",
"132 -220 LINE"
);
}
);
};
hints = (
{
horizontal = 1;
place = "{-232, 21}";
target = up;
type = BottomGhost;
},
{
horizontal = 1;
place = "{544, -20}";
target = down;
type = TopGhost;
},
{
place = "{12, 512}";
type = Stem;
}
);
layerId = "3E005A84-7828-4122-B6E8-61930BD9836F";
paths = (
{
closed = 1;
nodes = (
"220 -232 LINE",
"524 532 LINE",
"524 544 LINE",
"432 544 LINE",
"256 84 LINE",
"132 -220 LINE",
"132 -232 LINE"
);
},
{
closed = 1;
nodes = (
"285 82 LINE",
"108 544 LINE",
"12 544 LINE",
"12 532 LINE",
"232 -20 LINE"
);
}
);
width = 536;
}
);
leftKerningGroup = v;
note = y;
rightKerningGroup = v;
unicode = 0079;
},
{
color = 4;
glyphname = z;
lastChange = "2018-12-17 16:05:59 +0000";
layers = (
{
anchors = (
{
name = bottom;
position = "{296, 0}";
},
{
name = top;
position = "{296, 548}";
}
);
background = {
paths = (
{
closed = 1;
nodes = (
"274 388 LINE",
"264 371 OFFCURVE",
"248 353 OFFCURVE",
"234 336 CURVE SMOOTH",
"86 164 LINE SMOOTH",
"55 128 OFFCURVE",
"36 92 OFFCURVE",
"36 48 CURVE SMOOTH",
"36 36 OFFCURVE",
"37 26 OFFCURVE",
"40 12 CURVE",
"50 0 LINE",
"560 0 LINE",
"560 160 LINE",
"314 160 LINE",
"323 176 OFFCURVE",
"339 195 OFFCURVE",
"354 212 CURVE SMOOTH",
"502 384 LINE SMOOTH",
"533 420 OFFCURVE",
"552 456 OFFCURVE",
"552 500 CURVE SMOOTH",
"552 512 OFFCURVE",
"551 522 OFFCURVE",
"548 536 CURVE",
"538 548 LINE",
"42 548 LINE",
"42 388 LINE"
);
}
);
};
hints = (
{
horizontal = 1;
place = "{0, 160}";
type = Stem;
},
{
horizontal = 1;
place = "{388, 160}";
type = Stem;
},
{
place = "{36, 524}";
type = Stem;
}
);
layerId = "F2028F70-0529-41D4-9F63-024EA79743CD";
paths = (
{
closed = 1;
nodes = (
"560 0 LINE",
"560 160 LINE",
"228 160 LINE",
"312 128 LINE",
"294 141 OFFCURVE",
"326 180 OFFCURVE",
"354 212 CURVE SMOOTH",
"502 384 LINE SMOOTH",
"533 420 OFFCURVE",
"552 456 OFFCURVE",
"552 500 CURVE SMOOTH",
"552 512 OFFCURVE",
"551 522 OFFCURVE",
"548 536 CURVE",
"538 548 LINE",
"42 548 LINE",
"42 388 LINE",
"360 388 LINE",
"281 429 LINE",
"294 403 OFFCURVE",
"260 368 OFFCURVE",
"234 336 CURVE SMOOTH",
"86 164 LINE SMOOTH",
"55 128 OFFCURVE",
"36 92 OFFCURVE",
"36 48 CURVE SMOOTH",
"36 36 OFFCURVE",
"37 26 OFFCURVE",
"40 12 CURVE",
"50 0 LINE"
);
}
);
width = 592;
},
{
anchors = (
{
name = bottom;
position = "{260, 0}";
},
{
name = top;
position = "{260, 544}";
}
);
background = {
paths = (
{
closed = 1;
nodes = (
"368 466 LINE",
"359 446 OFFCURVE",
"334 419 OFFCURVE",
"316 400 CURVE SMOOTH",
"116 188 LINE SMOOTH",
"90 160 OFFCURVE",
"40 112 OFFCURVE",
"40 48 CURVE SMOOTH",
"40 40 OFFCURVE",
"42 24 OFFCURVE",
"45 10 CURVE",
"53 0 LINE",
"480 0 LINE",
"480 78 LINE",
"135 78 LINE",
"145 98 OFFCURVE",
"170 124 OFFCURVE",
"188 144 CURVE SMOOTH",
"388 356 LINE SMOOTH",
"414 384 OFFCURVE",
"464 432 OFFCURVE",
"464 496 CURVE SMOOTH",
"464 504 OFFCURVE",
"462 520 OFFCURVE",
"459 534 CURVE",
"451 544 LINE",
"52 544 LINE",
"52 466 LINE"
);
}
);
};
hints = (
{
horizontal = 1;
place = "{0, 78}";
type = Stem;
},
{
horizontal = 1;
place = "{466, 78}";
type = Stem;
},
{
place = "{40, 440}";
type = Stem;
}
);
layerId = "3E005A84-7828-4122-B6E8-61930BD9836F";
paths = (
{
closed = 1;
nodes = (
"480 0 LINE",
"480 78 LINE",
"97 78 LINE",
"131 62 LINE",
"130 82 OFFCURVE",
"165 118 OFFCURVE",
"188 144 CURVE SMOOTH",
"388 356 LINE SMOOTH",
"414 384 OFFCURVE",
"464 432 OFFCURVE",
"464 496 CURVE SMOOTH",
"464 504 OFFCURVE",
"462 520 OFFCURVE",
"459 534 CURVE",
"451 544 LINE",
"52 544 LINE",
"52 466 LINE",
"406 466 LINE",
"371 482 LINE",
"375 463 OFFCURVE",
"339 425 OFFCURVE",
"316 400 CURVE SMOOTH",
"116 188 LINE SMOOTH",
"90 160 OFFCURVE",
"40 112 OFFCURVE",
"40 48 CURVE SMOOTH",
"40 40 OFFCURVE",
"42 24 OFFCURVE",
"45 10 CURVE",
"53 0 LINE"
);
}
);
width = 520;
}
);
leftKerningGroup = z;
note = z;
rightKerningGroup = z;
unicode = 007A;
},
{
color = 5;
glyphname = Agrave;
lastChange = "2018-12-17 20:57:53 +0000";
layers = (
{
background = {
paths = (
{
closed = 1;
nodes = (
"456 0 LINE",
"668 0 LINE",
"668 536 LINE SMOOTH",
"668 576 OFFCURVE",
"668 660 OFFCURVE",
"676 696 CURVE",
"674 708 LINE",
"620 720 OFFCURVE",
"540 728 OFFCURVE",
"480 728 CURVE SMOOTH",
"288 728 OFFCURVE",
"147 697 OFFCURVE",
"108 468 CURVE SMOOTH",
"28 0 LINE",
"240 0 LINE",
"268 168 LINE",
"456 168 LINE"
);
},
{
closed = 1;
nodes = (
"316 460 LINE SMOOTH",
"326 523 OFFCURVE",
"356 552 OFFCURVE",
"432 552 CURVE SMOOTH",
"438 552 OFFCURVE",
"448 551 OFFCURVE",
"459 551 CURVE",
"457 532 OFFCURVE",
"456 511 OFFCURVE",
"456 488 CURVE SMOOTH",
"456 336 LINE",
"295 336 LINE"
);
},
{
closed = 1;
nodes = (
"518 776 LINE",
"518 780 LINE",
"435 932 LINE",
"266 932 LINE",
"266 928 LINE",
"390 776 LINE"
);
}
);
};
components = (
{
name = A;
},
{
name = gravecomb.case;
transform = "{1, 0, 0, 1, 74, 0}";
}
);
hints = (
{
horizontal = 1;
place = "{0, 21}";
target = up;
type = BottomGhost;
},
{
horizontal = 1;
place = "{168, 168}";
type = Stem;
},
{
horizontal = 1;
place = "{552, 176}";
type = Stem;
},
{
horizontal = 1;
place = "{776, 156}";
type = Stem;
},
{
place = "{456, 212}";
type = Stem;
}
);
layerId = "F2028F70-0529-41D4-9F63-024EA79743CD";
width = 736;
},
{
components = (
{
name = A;
},
{
name = gravecomb.case;
transform = "{1, 0, 0, 1, 71, 0}";
}
);
hints = (
{
horizontal = 1;
place = "{0, 21}";
target = up;
type = BottomGhost;
},
{
horizontal = 1;
place = "{220, 84}";
type = Stem;
},
{
horizontal = 1;
place = "{644, 84}";
type = Stem;
},
{
horizontal = 1;
place = "{780, 156}";
type = Stem;
},
{
place = "{470, 96}";
type = Stem;
}
);
layerId = "3E005A84-7828-4122-B6E8-61930BD9836F";
width = 662;
}
);
leftKerningGroup = A;
note = Agrave;
rightKerningGroup = A;
unicode = 00C0;
},
{
color = 5;
glyphname = agrave;
lastChange = "2018-12-17 20:57:53 +0000";
layers = (
{
background = {
paths = (
{
closed = 1;
nodes = (
"36 32 OFFCURVE",
"132 -12 OFFCURVE",
"316 -12 CURVE SMOOTH",
"412 -12 OFFCURVE",
"500 4 OFFCURVE",
"564 20 CURVE",
"568 28 LINE",
"558 64 OFFCURVE",
"556 144 OFFCURVE",
"556 188 CURVE SMOOTH",
"556 316 LINE SMOOTH",
"556 512 OFFCURVE",
"437 564 OFFCURVE",
"260 564 CURVE SMOOTH",
"188 564 OFFCURVE",
"128 556 OFFCURVE",
"80 544 CURVE",
"80 388 LINE",
"92 388 LINE",
"124 402 OFFCURVE",
"176 412 OFFCURVE",
"236 412 CURVE SMOOTH",
"312 412 OFFCURVE",
"352 396 OFFCURVE",
"352 332 CURVE SMOOTH",
"352 331 LINE",
"333 333 OFFCURVE",
"305 336 OFFCURVE",
"276 336 CURVE SMOOTH",
"140 336 OFFCURVE",
"36 288 OFFCURVE",
"36 164 CURVE SMOOTH"
);
},
{
closed = 1;
nodes = (
"345 122 OFFCURVE",
"323 120 OFFCURVE",
"304 120 CURVE SMOOTH",
"256 120 OFFCURVE",
"228 132 OFFCURVE",
"228 168 CURVE SMOOTH",
"228 204 OFFCURVE",
"252 220 OFFCURVE",
"308 220 CURVE SMOOTH",
"329 220 OFFCURVE",
"343 218 OFFCURVE",
"352 217 CURVE",
"352 216 LINE SMOOTH",
"352 179 OFFCURVE",
"356 148 OFFCURVE",
"363 127 CURVE"
);
},
{
closed = 1;
nodes = (
"402 604 LINE",
"402 608 LINE",
"319 760 LINE",
"150 760 LINE",
"150 756 LINE",
"274 604 LINE"
);
}
);
};
components = (
{
name = a;
},
{
name = gravecomb;
transform = "{1, 0, 0, 1, -4, 0}";
}
);
hints = (
{
horizontal = 1;
place = "{-12, 132}";
type = Stem;
},
{
horizontal = 1;
place = "{220, 116}";
type = Stem;
},
{
horizontal = 1;
place = "{412, 152}";
type = Stem;
},
{
horizontal = 1;
place = "{604, 156}";
type = Stem;
},
{
place = "{36, 192}";
type = Stem;
},
{
place = "{352, 204}";
type = Stem;
}
);
layerId = "F2028F70-0529-41D4-9F63-024EA79743CD";
width = 616;
},
{
components = (
{
name = a;
},
{
name = gravecomb;
transform = "{1, 0, 0, 1, 42, 0}";
}
);
hints = (
{
horizontal = 1;
place = "{-12, 76}";
type = Stem;
},
{
horizontal = 1;
place = "{256, 76}";
type = Stem;
},
{
horizontal = 1;
place = "{476, 80}";
type = Stem;
},
{
horizontal = 1;
place = "{604, 156}";
type = Stem;
},
{
place = "{52, 90}";
type = Stem;
},
{
place = "{410, 92}";
type = Stem;
}
);
layerId = "3E005A84-7828-4122-B6E8-61930BD9836F";
width = 590;
}
);
leftKerningGroup = a;
note = agrave;
rightKerningGroup = a;
unicode = 00E0;
},
{
color = 5;
glyphname = Aacute;
lastChange = "2018-12-17 20:57:53 +0000";
layers = (
{
background = {
paths = (
{
closed = 1;
nodes = (
"456 0 LINE",
"668 0 LINE",
"668 536 LINE SMOOTH",
"668 576 OFFCURVE",
"668 660 OFFCURVE",
"676 696 CURVE",
"674 708 LINE",
"620 720 OFFCURVE",
"540 728 OFFCURVE",
"480 728 CURVE SMOOTH",
"288 728 OFFCURVE",
"147 697 OFFCURVE",
"108 468 CURVE SMOOTH",
"28 0 LINE",
"240 0 LINE",
"268 168 LINE",
"456 168 LINE"
);
},
{
closed = 1;
nodes = (
"316 460 LINE SMOOTH",
"326 523 OFFCURVE",
"356 552 OFFCURVE",
"432 552 CURVE SMOOTH",
"438 552 OFFCURVE",
"448 551 OFFCURVE",
"459 551 CURVE",
"457 532 OFFCURVE",
"456 511 OFFCURVE",
"456 488 CURVE SMOOTH",
"456 336 LINE",
"295 336 LINE"
);
},
{
closed = 1;
nodes = (
"442 776 LINE",
"565 928 LINE",
"565 932 LINE",
"397 932 LINE",
"314 780 LINE",
"314 776 LINE"
);
}
);
};
components = (
{
name = A;
},
{
name = acutecomb.case;
transform = "{1, 0, 0, 1, 74, 0}";
}
);
hints = (
{
horizontal = 1;
place = "{0, 21}";
target = up;
type = BottomGhost;
},
{
horizontal = 1;
place = "{168, 168}";
type = Stem;
},
{
horizontal = 1;
place = "{552, 176}";
type = Stem;
},
{
horizontal = 1;
place = "{776, 156}";
type = Stem;
},
{
place = "{456, 212}";
type = Stem;
}
);
layerId = "F2028F70-0529-41D4-9F63-024EA79743CD";
width = 736;
},
{
components = (
{
name = A;
},
{
name = acutecomb.case;
transform = "{1, 0, 0, 1, 71, 0}";
}
);
hints = (
{
horizontal = 1;
place = "{0, 21}";
target = up;
type = BottomGhost;
},
{
horizontal = 1;
place = "{220, 84}";
type = Stem;
},
{
horizontal = 1;
place = "{644, 84}";
type = Stem;
},
{
horizontal = 1;
place = "{780, 156}";
type = Stem;
},
{
place = "{470, 96}";
type = Stem;
}
);
layerId = "3E005A84-7828-4122-B6E8-61930BD9836F";
width = 662;
}
);
leftKerningGroup = A;
note = Aacute;
rightKerningGroup = A;
unicode = 00C1;
},
{
color = 5;
glyphname = aacute;
lastChange = "2018-12-20 14:02:43 +0000";
layers = (
{
background = {
paths = (
{
closed = 1;
nodes = (
"36 32 OFFCURVE",
"132 -12 OFFCURVE",
"316 -12 CURVE SMOOTH",
"412 -12 OFFCURVE",
"500 4 OFFCURVE",
"564 20 CURVE",
"568 28 LINE",
"558 64 OFFCURVE",
"556 144 OFFCURVE",
"556 188 CURVE SMOOTH",
"556 316 LINE SMOOTH",
"556 512 OFFCURVE",
"437 564 OFFCURVE",
"260 564 CURVE SMOOTH",
"188 564 OFFCURVE",
"128 556 OFFCURVE",
"80 544 CURVE",
"80 388 LINE",
"92 388 LINE",
"124 402 OFFCURVE",
"176 412 OFFCURVE",
"236 412 CURVE SMOOTH",
"312 412 OFFCURVE",
"352 396 OFFCURVE",
"352 332 CURVE SMOOTH",
"352 331 LINE",
"333 333 OFFCURVE",
"305 336 OFFCURVE",
"276 336 CURVE SMOOTH",
"140 336 OFFCURVE",
"36 288 OFFCURVE",
"36 164 CURVE SMOOTH"
);
},
{
closed = 1;
nodes = (
"345 122 OFFCURVE",
"323 120 OFFCURVE",
"304 120 CURVE SMOOTH",
"256 120 OFFCURVE",
"228 132 OFFCURVE",
"228 168 CURVE SMOOTH",
"228 204 OFFCURVE",
"252 220 OFFCURVE",
"308 220 CURVE SMOOTH",
"329 220 OFFCURVE",
"343 218 OFFCURVE",
"352 217 CURVE",
"352 216 LINE SMOOTH",
"352 179 OFFCURVE",
"356 148 OFFCURVE",
"363 127 CURVE"
);
},
{
closed = 1;
nodes = (
"326 604 LINE",
"449 756 LINE",
"449 760 LINE",
"281 760 LINE",
"198 608 LINE",
"198 604 LINE"
);
}
);
};
components = (
{
name = a;
},
{
name = acutecomb;
transform = "{1, 0, 0, 1, -52, 0}";
}
);
hints = (
{
horizontal = 1;
place = "{-12, 132}";
type = Stem;
},
{
horizontal = 1;
place = "{220, 116}";
type = Stem;
},
{
horizontal = 1;
place = "{412, 152}";
type = Stem;
},
{
horizontal = 1;
place = "{604, 156}";
type = Stem;
},
{
place = "{36, 192}";
type = Stem;
},
{
place = "{352, 204}";
type = Stem;
}
);
layerId = "F2028F70-0529-41D4-9F63-024EA79743CD";
width = 616;
},
{
components = (
{
name = a;
},
{
name = acutecomb;
transform = "{1, 0, 0, 1, -60, 0}";
}
);
hints = (
{
horizontal = 1;
place = "{-12, 76}";
type = Stem;
},
{
horizontal = 1;
place = "{256, 76}";
type = Stem;
},
{
horizontal = 1;
place = "{476, 80}";
type = Stem;
},
{
horizontal = 1;
place = "{604, 156}";
type = Stem;
},
{
place = "{52, 90}";
type = Stem;
},
{
place = "{410, 92}";
type = Stem;
}
);
layerId = "3E005A84-7828-4122-B6E8-61930BD9836F";
width = 590;
}
);
leftKerningGroup = a;
note = aacute;
rightKerningGroup = a;
unicode = 00E1;
},
{
color = 5;
glyphname = Acircumflex;
lastChange = "2018-12-17 20:57:53 +0000";
layers = (
{
background = {
paths = (
{
closed = 1;
nodes = (
"456 0 LINE",
"668 0 LINE",
"668 536 LINE SMOOTH",
"668 576 OFFCURVE",
"668 660 OFFCURVE",
"676 696 CURVE",
"674 708 LINE",
"620 720 OFFCURVE",
"540 728 OFFCURVE",
"480 728 CURVE SMOOTH",
"288 728 OFFCURVE",
"147 697 OFFCURVE",
"108 468 CURVE SMOOTH",
"28 0 LINE",
"240 0 LINE",
"268 168 LINE",
"456 168 LINE"
);
},
{
closed = 1;
nodes = (
"316 460 LINE SMOOTH",
"326 523 OFFCURVE",
"356 552 OFFCURVE",
"432 552 CURVE SMOOTH",
"438 552 OFFCURVE",
"448 551 OFFCURVE",
"459 551 CURVE",
"457 532 OFFCURVE",
"456 511 OFFCURVE",
"456 488 CURVE SMOOTH",
"456 336 LINE",
"295 336 LINE"
);
},
{
closed = 1;
nodes = (
"358 776 LINE",
"416 849 LINE",
"474 776 LINE",
"586 776 LINE",
"586 780 LINE",
"486 932 LINE",
"346 932 LINE",
"246 780 LINE",
"246 776 LINE"
);
}
);
};
components = (
{
name = A;
},
{
name = circumflexcomb.case;
transform = "{1, 0, 0, 1, 74, 0}";
}
);
hints = (
{
horizontal = 1;
place = "{0, 21}";
target = up;
type = BottomGhost;
},
{
horizontal = 1;
place = "{168, 168}";
type = Stem;
},
{
horizontal = 1;
place = "{552, 176}";
type = Stem;
},
{
horizontal = 1;
place = "{776, 156}";
type = Stem;
},
{
place = "{456, 212}";
type = Stem;
}
);
layerId = "F2028F70-0529-41D4-9F63-024EA79743CD";
width = 736;
},
{
components = (
{
name = A;
},
{
name = circumflexcomb.case;
transform = "{1, 0, 0, 1, 71, 0}";
}
);
hints = (
{
horizontal = 1;
place = "{0, 21}";
target = up;
type = BottomGhost;
},
{
horizontal = 1;
place = "{220, 84}";
type = Stem;
},
{
horizontal = 1;
place = "{644, 84}";
type = Stem;
},
{
horizontal = 1;
place = "{780, 156}";
type = Stem;
},
{
place = "{470, 96}";
type = Stem;
}
);
layerId = "3E005A84-7828-4122-B6E8-61930BD9836F";
width = 662;
}
);
leftKerningGroup = A;
note = Acircumflex;
rightKerningGroup = A;
unicode = 00C2;
},
{
color = 5;
glyphname = acircumflex;
lastChange = "2018-12-17 20:57:53 +0000";
layers = (
{
background = {
paths = (
{
closed = 1;
nodes = (
"36 32 OFFCURVE",
"132 -12 OFFCURVE",
"316 -12 CURVE SMOOTH",
"412 -12 OFFCURVE",
"500 4 OFFCURVE",
"564 20 CURVE",
"568 28 LINE",
"558 64 OFFCURVE",
"556 144 OFFCURVE",
"556 188 CURVE SMOOTH",
"556 316 LINE SMOOTH",
"556 512 OFFCURVE",
"437 564 OFFCURVE",
"260 564 CURVE SMOOTH",
"188 564 OFFCURVE",
"128 556 OFFCURVE",
"80 544 CURVE",
"80 388 LINE",
"92 388 LINE",
"124 402 OFFCURVE",
"176 412 OFFCURVE",
"236 412 CURVE SMOOTH",
"312 412 OFFCURVE",
"352 396 OFFCURVE",
"352 332 CURVE SMOOTH",
"352 331 LINE",
"333 333 OFFCURVE",
"305 336 OFFCURVE",
"276 336 CURVE SMOOTH",
"140 336 OFFCURVE",
"36 288 OFFCURVE",
"36 164 CURVE SMOOTH"
);
},
{
closed = 1;
nodes = (
"345 122 OFFCURVE",
"323 120 OFFCURVE",
"304 120 CURVE SMOOTH",
"256 120 OFFCURVE",
"228 132 OFFCURVE",
"228 168 CURVE SMOOTH",
"228 204 OFFCURVE",
"252 220 OFFCURVE",
"308 220 CURVE SMOOTH",
"329 220 OFFCURVE",
"343 218 OFFCURVE",
"352 217 CURVE",
"352 216 LINE SMOOTH",
"352 179 OFFCURVE",
"356 148 OFFCURVE",
"363 127 CURVE"
);
},
{
closed = 1;
nodes = (
"242 604 LINE",
"300 677 LINE",
"358 604 LINE",
"470 604 LINE",
"470 608 LINE",
"370 760 LINE",
"230 760 LINE",
"130 608 LINE",
"130 604 LINE"
);
}
);
};
components = (
{
name = a;
},
{
name = circumflexcomb;
transform = "{1, 0, 0, 1, -28, 0}";
}
);
hints = (
{
horizontal = 1;
place = "{-12, 132}";
type = Stem;
},
{
horizontal = 1;
place = "{220, 116}";
type = Stem;
},
{
horizontal = 1;
place = "{412, 152}";
type = Stem;
},
{
horizontal = 1;
place = "{604, 156}";
type = Stem;
},
{
place = "{36, 192}";
type = Stem;
},
{
place = "{352, 204}";
type = Stem;
},
{
horizontal = 1;
place = "{677, 83}";
type = Stem;
}
);
layerId = "F2028F70-0529-41D4-9F63-024EA79743CD";
width = 616;
},
{
components = (
{
name = a;
},
{
name = circumflexcomb;
transform = "{1, 0, 0, 1, -11, 0}";
}
);
hints = (
{
horizontal = 1;
place = "{-12, 76}";
type = Stem;
},
{
horizontal = 1;
place = "{256, 76}";
type = Stem;
},
{
horizontal = 1;
place = "{476, 80}";
type = Stem;
},
{
horizontal = 1;
place = "{604, 156}";
type = Stem;
},
{
place = "{52, 90}";
type = Stem;
},
{
place = "{410, 92}";
type = Stem;
},
{
horizontal = 1;
place = "{700, 60}";
type = Stem;
}
);
layerId = "3E005A84-7828-4122-B6E8-61930BD9836F";
width = 590;
}
);
leftKerningGroup = a;
note = acircumflex;
rightKerningGroup = a;
unicode = 00E2;
},
{
color = 5;
glyphname = Atilde;
lastChange = "2018-12-17 20:57:53 +0000";
layers = (
{
background = {
paths = (
{
closed = 1;
nodes = (
"456 0 LINE",
"668 0 LINE",
"668 536 LINE SMOOTH",
"668 576 OFFCURVE",
"668 660 OFFCURVE",
"676 696 CURVE",
"674 708 LINE",
"620 720 OFFCURVE",
"540 728 OFFCURVE",
"480 728 CURVE SMOOTH",
"288 728 OFFCURVE",
"147 697 OFFCURVE",
"108 468 CURVE SMOOTH",
"28 0 LINE",
"240 0 LINE",
"268 168 LINE",
"456 168 LINE"
);
},
{
closed = 1;
nodes = (
"316 460 LINE SMOOTH",
"326 523 OFFCURVE",
"356 552 OFFCURVE",
"432 552 CURVE SMOOTH",
"438 552 OFFCURVE",
"448 551 OFFCURVE",
"459 551 CURVE",
"457 532 OFFCURVE",
"456 511 OFFCURVE",
"456 488 CURVE SMOOTH",
"456 336 LINE",
"295 336 LINE"
);
},
{
closed = 1;
nodes = (
"310 768 LINE",
"310 808 OFFCURVE",
"314 836 OFFCURVE",
"346 836 CURVE SMOOTH",
"369 836 OFFCURVE",
"386 816 OFFCURVE",
"406 800 CURVE SMOOTH",
"428 782 OFFCURVE",
"456 768 OFFCURVE",
"494 768 CURVE SMOOTH",
"586 768 OFFCURVE",
"618 848 OFFCURVE",
"618 932 CURVE",
"522 932 LINE",
"522 892 OFFCURVE",
"517 864 OFFCURVE",
"485 864 CURVE SMOOTH",
"464 864 OFFCURVE",
"447 881 OFFCURVE",
"429 896 CURVE SMOOTH",
"406 915 OFFCURVE",
"378 932 OFFCURVE",
"338 932 CURVE SMOOTH",
"246 932 OFFCURVE",
"214 852 OFFCURVE",
"214 768 CURVE"
);
}
);
};
components = (
{
name = A;
},
{
name = tildecomb.case;
transform = "{1, 0, 0, 1, 74, 0}";
}
);
hints = (
{
horizontal = 1;
place = "{0, 21}";
target = up;
type = BottomGhost;
},
{
horizontal = 1;
place = "{168, 168}";
type = Stem;
},
{
horizontal = 1;
place = "{552, 176}";
type = Stem;
},
{
horizontal = 1;
place = "{768, 164}";
type = Stem;
},
{
place = "{214, 96}";
type = Stem;
},
{
place = "{456, 212}";
type = Stem;
},
{
place = "{522, 96}";
type = Stem;
}
);
layerId = "F2028F70-0529-41D4-9F63-024EA79743CD";
width = 736;
},
{
components = (
{
name = A;
},
{
name = tildecomb.case;
transform = "{1, 0, 0, 1, 71, 0}";
}
);
hints = (
{
horizontal = 1;
place = "{0, 21}";
target = up;
type = BottomGhost;
},
{
horizontal = 1;
place = "{220, 84}";
type = Stem;
},
{
horizontal = 1;
place = "{644, 84}";
type = Stem;
},
{
horizontal = 1;
place = "{876, 60}";
type = Stem;
},
{
place = "{218, 60}";
type = Stem;
},
{
place = "{470, 96}";
type = Stem;
},
{
horizontal = 1;
place = "{808, 60}";
type = Stem;
},
{
place = "{498, 60}";
type = Stem;
}
);
layerId = "3E005A84-7828-4122-B6E8-61930BD9836F";
width = 662;
}
);
leftKerningGroup = A;
note = Atilde;
rightKerningGroup = A;
unicode = 00C3;
},
{
color = 5;
glyphname = atilde;
lastChange = "2018-12-17 20:57:53 +0000";
layers = (
{
background = {
paths = (
{
closed = 1;
nodes = (
"36 32 OFFCURVE",
"132 -12 OFFCURVE",
"316 -12 CURVE SMOOTH",
"412 -12 OFFCURVE",
"500 4 OFFCURVE",
"564 20 CURVE",
"568 28 LINE",
"558 64 OFFCURVE",
"556 144 OFFCURVE",
"556 188 CURVE SMOOTH",
"556 316 LINE SMOOTH",
"556 512 OFFCURVE",
"437 564 OFFCURVE",
"260 564 CURVE SMOOTH",
"188 564 OFFCURVE",
"128 556 OFFCURVE",
"80 544 CURVE",
"80 388 LINE",
"92 388 LINE",
"124 402 OFFCURVE",
"176 412 OFFCURVE",
"236 412 CURVE SMOOTH",
"312 412 OFFCURVE",
"352 396 OFFCURVE",
"352 332 CURVE SMOOTH",
"352 331 LINE",
"333 333 OFFCURVE",
"305 336 OFFCURVE",
"276 336 CURVE SMOOTH",
"140 336 OFFCURVE",
"36 288 OFFCURVE",
"36 164 CURVE SMOOTH"
);
},
{
closed = 1;
nodes = (
"345 122 OFFCURVE",
"323 120 OFFCURVE",
"304 120 CURVE SMOOTH",
"256 120 OFFCURVE",
"228 132 OFFCURVE",
"228 168 CURVE SMOOTH",
"228 204 OFFCURVE",
"252 220 OFFCURVE",
"308 220 CURVE SMOOTH",
"329 220 OFFCURVE",
"343 218 OFFCURVE",
"352 217 CURVE",
"352 216 LINE SMOOTH",
"352 179 OFFCURVE",
"356 148 OFFCURVE",
"363 127 CURVE"
);
},
{
closed = 1;
nodes = (
"194 596 LINE",
"194 636 OFFCURVE",
"198 664 OFFCURVE",
"230 664 CURVE SMOOTH",
"253 664 OFFCURVE",
"270 644 OFFCURVE",
"290 628 CURVE SMOOTH",
"312 610 OFFCURVE",
"340 596 OFFCURVE",
"378 596 CURVE SMOOTH",
"470 596 OFFCURVE",
"502 676 OFFCURVE",
"502 760 CURVE",
"406 760 LINE",
"406 720 OFFCURVE",
"401 692 OFFCURVE",
"369 692 CURVE SMOOTH",
"348 692 OFFCURVE",
"331 709 OFFCURVE",
"313 724 CURVE SMOOTH",
"290 743 OFFCURVE",
"262 760 OFFCURVE",
"222 760 CURVE SMOOTH",
"130 760 OFFCURVE",
"98 680 OFFCURVE",
"98 596 CURVE"
);
}
);
};
components = (
{
name = a;
},
{
name = tildecomb;
transform = "{1, 0, 0, 1, -28, 0}";
}
);
hints = (
{
horizontal = 1;
place = "{-12, 132}";
type = Stem;
},
{
horizontal = 1;
place = "{220, 116}";
type = Stem;
},
{
horizontal = 1;
place = "{412, 152}";
type = Stem;
},
{
horizontal = 1;
place = "{596, 164}";
type = Stem;
},
{
place = "{36, 192}";
type = Stem;
},
{
place = "{352, 204}";
type = Stem;
},
{
place = "{98, 96}";
type = Stem;
},
{
horizontal = 1;
place = "{664, 96}";
type = Stem;
},
{
place = "{406, 96}";
type = Stem;
},
{
horizontal = 1;
place = "{596, 96}";
type = Stem;
}
);
layerId = "F2028F70-0529-41D4-9F63-024EA79743CD";
width = 616;
},
{
components = (
{
name = a;
},
{
name = tildecomb;
transform = "{1, 0, 0, 1, -11, 0}";
}
);
hints = (
{
horizontal = 1;
place = "{-12, 76}";
type = Stem;
},
{
horizontal = 1;
place = "{256, 76}";
type = Stem;
},
{
horizontal = 1;
place = "{476, 80}";
type = Stem;
},
{
horizontal = 1;
place = "{700, 60}";
type = Stem;
},
{
place = "{52, 90}";
type = Stem;
},
{
place = "{410, 92}";
type = Stem;
},
{
horizontal = 1;
place = "{632, 128}";
type = Stem;
},
{
place = "{112, 60}";
type = Stem;
},
{
horizontal = 1;
place = "{632, 60}";
type = Stem;
},
{
place = "{392, 60}";
type = Stem;
}
);
layerId = "3E005A84-7828-4122-B6E8-61930BD9836F";
width = 590;
}
);
leftKerningGroup = a;
note = atilde;
rightKerningGroup = a;
unicode = 00E3;
},
{
color = 5;
glyphname = Adieresis;
lastChange = "2018-12-17 20:57:53 +0000";
layers = (
{
background = {
paths = (
{
closed = 1;
nodes = (
"456 0 LINE",
"668 0 LINE",
"668 536 LINE SMOOTH",
"668 576 OFFCURVE",
"668 660 OFFCURVE",
"676 696 CURVE",
"674 708 LINE",
"620 720 OFFCURVE",
"540 728 OFFCURVE",
"480 728 CURVE SMOOTH",
"288 728 OFFCURVE",
"147 697 OFFCURVE",
"108 468 CURVE SMOOTH",
"28 0 LINE",
"240 0 LINE",
"268 168 LINE",
"456 168 LINE"
);
},
{
closed = 1;
nodes = (
"316 460 LINE SMOOTH",
"326 523 OFFCURVE",
"356 552 OFFCURVE",
"432 552 CURVE SMOOTH",
"438 552 OFFCURVE",
"448 551 OFFCURVE",
"459 551 CURVE",
"457 532 OFFCURVE",
"456 511 OFFCURVE",
"456 488 CURVE SMOOTH",
"456 336 LINE",
"295 336 LINE"
);
},
{
closed = 1;
nodes = (
"555 784 OFFCURVE",
"586 810 OFFCURVE",
"586 856 CURVE SMOOTH",
"586 900 OFFCURVE",
"555 928 OFFCURVE",
"514 928 CURVE SMOOTH",
"473 928 OFFCURVE",
"442 900 OFFCURVE",
"442 856 CURVE SMOOTH",
"442 810 OFFCURVE",
"473 784 OFFCURVE",
"514 784 CURVE SMOOTH"
);
},
{
closed = 1;
nodes = (
"359 784 OFFCURVE",
"390 810 OFFCURVE",
"390 856 CURVE SMOOTH",
"390 900 OFFCURVE",
"359 928 OFFCURVE",
"318 928 CURVE SMOOTH",
"277 928 OFFCURVE",
"246 900 OFFCURVE",
"246 856 CURVE SMOOTH",
"246 810 OFFCURVE",
"277 784 OFFCURVE",
"318 784 CURVE SMOOTH"
);
}
);
};
components = (
{
name = A;
},
{
name = dieresiscomb.case;
transform = "{1, 0, 0, 1, 74, 0}";
}
);
hints = (
{
horizontal = 1;
place = "{0, 21}";
target = up;
type = BottomGhost;
},
{
horizontal = 1;
place = "{168, 168}";
type = Stem;
},
{
horizontal = 1;
place = "{552, 176}";
type = Stem;
},
{
place = "{456, 212}";
type = Stem;
},
{
horizontal = 1;
place = "{784, 144}";
type = Stem;
},
{
place = "{246, 144}";
type = Stem;
},
{
place = "{442, 144}";
type = Stem;
}
);
layerId = "F2028F70-0529-41D4-9F63-024EA79743CD";
width = 736;
},
{
components = (
{
name = A;
},
{
name = dieresiscomb.case;
transform = "{1, 0, 0, 1, 71, 0}";
}
);
hints = (
{
horizontal = 1;
place = "{0, 21}";
target = up;
type = BottomGhost;
},
{
horizontal = 1;
place = "{220, 84}";
type = Stem;
},
{
horizontal = 1;
place = "{644, 84}";
type = Stem;
},
{
horizontal = 1;
place = "{800, 120}";
type = Stem;
},
{
place = "{470, 96}";
type = Stem;
},
{
place = "{230, 120}";
type = Stem;
},
{
place = "{426, 120}";
type = Stem;
}
);
layerId = "3E005A84-7828-4122-B6E8-61930BD9836F";
width = 662;
}
);
leftKerningGroup = A;
note = Adieresis;
rightKerningGroup = A;
unicode = 00C4;
},
{
color = 5;
glyphname = adieresis;
lastChange = "2018-12-17 20:57:53 +0000";
layers = (
{
background = {
paths = (
{
closed = 1;
nodes = (
"36 32 OFFCURVE",
"132 -12 OFFCURVE",
"316 -12 CURVE SMOOTH",
"412 -12 OFFCURVE",
"500 4 OFFCURVE",
"564 20 CURVE",
"568 28 LINE",
"558 64 OFFCURVE",
"556 144 OFFCURVE",
"556 188 CURVE SMOOTH",
"556 316 LINE SMOOTH",
"556 512 OFFCURVE",
"437 564 OFFCURVE",
"260 564 CURVE SMOOTH",
"188 564 OFFCURVE",
"128 556 OFFCURVE",
"80 544 CURVE",
"80 388 LINE",
"92 388 LINE",
"124 402 OFFCURVE",
"176 412 OFFCURVE",
"236 412 CURVE SMOOTH",
"312 412 OFFCURVE",
"352 396 OFFCURVE",
"352 332 CURVE SMOOTH",
"352 331 LINE",
"333 333 OFFCURVE",
"305 336 OFFCURVE",
"276 336 CURVE SMOOTH",
"140 336 OFFCURVE",
"36 288 OFFCURVE",
"36 164 CURVE SMOOTH"
);
},
{
closed = 1;
nodes = (
"345 122 OFFCURVE",
"323 120 OFFCURVE",
"304 120 CURVE SMOOTH",
"256 120 OFFCURVE",
"228 132 OFFCURVE",
"228 168 CURVE SMOOTH",
"228 204 OFFCURVE",
"252 220 OFFCURVE",
"308 220 CURVE SMOOTH",
"329 220 OFFCURVE",
"343 218 OFFCURVE",
"352 217 CURVE",
"352 216 LINE SMOOTH",
"352 179 OFFCURVE",
"356 148 OFFCURVE",
"363 127 CURVE"
);
},
{
closed = 1;
nodes = (
"439 612 OFFCURVE",
"470 638 OFFCURVE",
"470 684 CURVE SMOOTH",
"470 728 OFFCURVE",
"439 756 OFFCURVE",
"398 756 CURVE SMOOTH",
"357 756 OFFCURVE",
"326 728 OFFCURVE",
"326 684 CURVE SMOOTH",
"326 638 OFFCURVE",
"357 612 OFFCURVE",
"398 612 CURVE SMOOTH"
);
},
{
closed = 1;
nodes = (
"243 612 OFFCURVE",
"274 638 OFFCURVE",
"274 684 CURVE SMOOTH",
"274 728 OFFCURVE",
"243 756 OFFCURVE",
"202 756 CURVE SMOOTH",
"161 756 OFFCURVE",
"130 728 OFFCURVE",
"130 684 CURVE SMOOTH",
"130 638 OFFCURVE",
"161 612 OFFCURVE",
"202 612 CURVE SMOOTH"
);
}
);
};
components = (
{
name = a;
},
{
name = dieresiscomb;
transform = "{1, 0, 0, 1, -28, 0}";
}
);
hints = (
{
horizontal = 1;
place = "{-12, 132}";
type = Stem;
},
{
horizontal = 1;
place = "{220, 116}";
type = Stem;
},
{
horizontal = 1;
place = "{412, 152}";
type = Stem;
},
{
horizontal = 1;
place = "{612, 144}";
type = Stem;
},
{
place = "{36, 192}";
type = Stem;
},
{
place = "{352, 204}";
type = Stem;
},
{
place = "{130, 144}";
type = Stem;
},
{
place = "{326, 144}";
type = Stem;
}
);
layerId = "F2028F70-0529-41D4-9F63-024EA79743CD";
width = 616;
},
{
components = (
{
name = a;
},
{
name = dieresiscomb;
transform = "{1, 0, 0, 1, -11, 0}";
}
);
hints = (
{
horizontal = 1;
place = "{-12, 76}";
type = Stem;
},
{
horizontal = 1;
place = "{256, 76}";
type = Stem;
},
{
horizontal = 1;
place = "{476, 80}";
type = Stem;
},
{
horizontal = 1;
place = "{624, 120}";
type = Stem;
},
{
place = "{52, 90}";
type = Stem;
},
{
place = "{410, 92}";
type = Stem;
},
{
place = "{124, 120}";
type = Stem;
},
{
place = "{320, 120}";
type = Stem;
}
);
layerId = "3E005A84-7828-4122-B6E8-61930BD9836F";
width = 590;
}
);
leftKerningGroup = a;
note = adieresis;
rightKerningGroup = a;
unicode = 00E4;
},
{
color = 5;
glyphname = Amacron;
lastChange = "2018-12-17 20:57:53 +0000";
layers = (
{
background = {
paths = (
{
closed = 1;
nodes = (
"456 0 LINE",
"668 0 LINE",
"668 536 LINE SMOOTH",
"668 576 OFFCURVE",
"668 660 OFFCURVE",
"676 696 CURVE",
"674 708 LINE",
"620 720 OFFCURVE",
"540 728 OFFCURVE",
"480 728 CURVE SMOOTH",
"288 728 OFFCURVE",
"147 697 OFFCURVE",
"108 468 CURVE SMOOTH",
"28 0 LINE",
"240 0 LINE",
"268 168 LINE",
"456 168 LINE"
);
},
{
closed = 1;
nodes = (
"316 460 LINE SMOOTH",
"326 523 OFFCURVE",
"356 552 OFFCURVE",
"432 552 CURVE SMOOTH",
"438 552 OFFCURVE",
"448 551 OFFCURVE",
"459 551 CURVE",
"457 532 OFFCURVE",
"456 511 OFFCURVE",
"456 488 CURVE SMOOTH",
"456 336 LINE",
"295 336 LINE"
);
},
{
closed = 1;
nodes = (
"246 790 LINE",
"586 790 LINE",
"586 892 LINE",
"246 892 LINE"
);
}
);
};
components = (
{
name = A;
},
{
name = macroncomb.case;
transform = "{1, 0, 0, 1, 74, 0}";
}
);
hints = (
{
horizontal = 1;
place = "{0, 21}";
target = up;
type = BottomGhost;
},
{
horizontal = 1;
place = "{168, 168}";
type = Stem;
},
{
horizontal = 1;
place = "{552, 176}";
type = Stem;
},
{
horizontal = 1;
place = "{790, 102}";
type = Stem;
},
{
place = "{456, 212}";
type = Stem;
},
{
place = "{246, 340}";
type = Stem;
}
);
layerId = "F2028F70-0529-41D4-9F63-024EA79743CD";
width = 736;
},
{
components = (
{
name = A;
},
{
name = macroncomb.case;
transform = "{1, 0, 0, 1, 71, 0}";
}
);
hints = (
{
horizontal = 1;
place = "{0, 21}";
target = up;
type = BottomGhost;
},
{
horizontal = 1;
place = "{220, 84}";
type = Stem;
},
{
horizontal = 1;
place = "{644, 84}";
type = Stem;
},
{
horizontal = 1;
place = "{822, 74}";
type = Stem;
},
{
place = "{470, 96}";
type = Stem;
}
);
layerId = "3E005A84-7828-4122-B6E8-61930BD9836F";
width = 662;
}
);
leftKerningGroup = A;
note = Amacron;
rightKerningGroup = A;
unicode = 0100;
},
{
color = 5;
glyphname = amacron;
lastChange = "2018-12-17 20:57:53 +0000";
layers = (
{
background = {
paths = (
{
closed = 1;
nodes = (
"36 32 OFFCURVE",
"132 -12 OFFCURVE",
"316 -12 CURVE SMOOTH",
"412 -12 OFFCURVE",
"500 4 OFFCURVE",
"564 20 CURVE",
"568 28 LINE",
"558 64 OFFCURVE",
"556 144 OFFCURVE",
"556 188 CURVE SMOOTH",
"556 316 LINE SMOOTH",
"556 512 OFFCURVE",
"437 564 OFFCURVE",
"260 564 CURVE SMOOTH",
"188 564 OFFCURVE",
"128 556 OFFCURVE",
"80 544 CURVE",
"80 388 LINE",
"92 388 LINE",
"124 402 OFFCURVE",
"176 412 OFFCURVE",
"236 412 CURVE SMOOTH",
"312 412 OFFCURVE",
"352 396 OFFCURVE",
"352 332 CURVE SMOOTH",
"352 331 LINE",
"333 333 OFFCURVE",
"305 336 OFFCURVE",
"276 336 CURVE SMOOTH",
"140 336 OFFCURVE",
"36 288 OFFCURVE",
"36 164 CURVE SMOOTH"
);
},
{
closed = 1;
nodes = (
"345 122 OFFCURVE",
"323 120 OFFCURVE",
"304 120 CURVE SMOOTH",
"256 120 OFFCURVE",
"228 132 OFFCURVE",
"228 168 CURVE SMOOTH",
"228 204 OFFCURVE",
"252 220 OFFCURVE",
"308 220 CURVE SMOOTH",
"329 220 OFFCURVE",
"343 218 OFFCURVE",
"352 217 CURVE",
"352 216 LINE SMOOTH",
"352 179 OFFCURVE",
"356 148 OFFCURVE",
"363 127 CURVE"
);
},
{
closed = 1;
nodes = (
"130 618 LINE",
"470 618 LINE",
"470 720 LINE",
"130 720 LINE"
);
}
);
};
components = (
{
name = a;
},
{
name = macroncomb;
transform = "{1, 0, 0, 1, -28, 0}";
}
);
hints = (
{
horizontal = 1;
place = "{-12, 132}";
type = Stem;
},
{
horizontal = 1;
place = "{220, 116}";
type = Stem;
},
{
horizontal = 1;
place = "{412, 152}";
type = Stem;
},
{
horizontal = 1;
place = "{618, 102}";
type = Stem;
},
{
place = "{36, 192}";
type = Stem;
},
{
place = "{352, 204}";
type = Stem;
},
{
place = "{130, 340}";
type = Stem;
}
);
layerId = "F2028F70-0529-41D4-9F63-024EA79743CD";
width = 616;
},
{
components = (
{
name = a;
},
{
name = macroncomb;
transform = "{1, 0, 0, 1, -11, 0}";
}
);
hints = (
{
horizontal = 1;
place = "{-12, 76}";
type = Stem;
},
{
horizontal = 1;
place = "{256, 76}";
type = Stem;
},
{
horizontal = 1;
place = "{476, 80}";
type = Stem;
},
{
horizontal = 1;
place = "{646, 74}";
type = Stem;
},
{
place = "{52, 90}";
type = Stem;
},
{
place = "{410, 92}";
type = Stem;
}
);
layerId = "3E005A84-7828-4122-B6E8-61930BD9836F";
width = 590;
}
);
leftKerningGroup = a;
note = amacron;
rightKerningGroup = a;
unicode = 0101;
},
{
color = 5;
glyphname = Abreve;
lastChange = "2018-12-17 20:57:53 +0000";
layers = (
{
background = {
paths = (
{
closed = 1;
nodes = (
"456 0 LINE",
"668 0 LINE",
"668 536 LINE SMOOTH",
"668 576 OFFCURVE",
"668 660 OFFCURVE",
"676 696 CURVE",
"674 708 LINE",
"620 720 OFFCURVE",
"540 728 OFFCURVE",
"480 728 CURVE SMOOTH",
"288 728 OFFCURVE",
"147 697 OFFCURVE",
"108 468 CURVE SMOOTH",
"28 0 LINE",
"240 0 LINE",
"268 168 LINE",
"456 168 LINE"
);
},
{
closed = 1;
nodes = (
"316 460 LINE SMOOTH",
"326 523 OFFCURVE",
"356 552 OFFCURVE",
"432 552 CURVE SMOOTH",
"438 552 OFFCURVE",
"448 551 OFFCURVE",
"459 551 CURVE",
"457 532 OFFCURVE",
"456 511 OFFCURVE",
"456 488 CURVE SMOOTH",
"456 336 LINE",
"295 336 LINE"
);
},
{
closed = 1;
nodes = (
"530 772 OFFCURVE",
"570 848 OFFCURVE",
"566 932 CURVE",
"486 932 LINE",
"486 884 OFFCURVE",
"466 860 OFFCURVE",
"416 860 CURVE SMOOTH",
"366 860 OFFCURVE",
"346 884 OFFCURVE",
"346 932 CURVE",
"266 932 LINE",
"262 848 OFFCURVE",
"302 772 OFFCURVE",
"416 772 CURVE SMOOTH"
);
}
);
};
components = (
{
name = A;
},
{
name = brevecomb.case;
transform = "{1, 0, 0, 1, 74, 0}";
}
);
hints = (
{
horizontal = 1;
place = "{0, 21}";
target = up;
type = BottomGhost;
},
{
horizontal = 1;
place = "{168, 168}";
type = Stem;
},
{
horizontal = 1;
place = "{552, 176}";
type = Stem;
},
{
horizontal = 1;
place = "{772, 88}";
type = Stem;
},
{
place = "{266, 80}";
type = Stem;
},
{
place = "{456, 212}";
type = Stem;
},
{
place = "{486, 80}";
type = Stem;
}
);
layerId = "F2028F70-0529-41D4-9F63-024EA79743CD";
width = 736;
},
{
components = (
{
name = A;
},
{
name = brevecomb.case;
transform = "{1, 0, 0, 1, 71, 0}";
}
);
hints = (
{
horizontal = 1;
place = "{0, 21}";
target = up;
type = BottomGhost;
},
{
horizontal = 1;
place = "{220, 84}";
type = Stem;
},
{
horizontal = 1;
place = "{644, 84}";
type = Stem;
},
{
horizontal = 1;
place = "{796, 60}";
type = Stem;
},
{
place = "{250, 64}";
type = Stem;
},
{
place = "{470, 96}";
type = Stem;
},
{
place = "{462, 64}";
type = Stem;
}
);
layerId = "3E005A84-7828-4122-B6E8-61930BD9836F";
width = 662;
}
);
leftKerningGroup = A;
note = Abreve;
rightKerningGroup = A;
unicode = 0102;
},
{
color = 5;
glyphname = abreve;
lastChange = "2018-12-17 20:57:53 +0000";
layers = (
{
background = {
paths = (
{
closed = 1;
nodes = (
"36 32 OFFCURVE",
"132 -12 OFFCURVE",
"316 -12 CURVE SMOOTH",
"412 -12 OFFCURVE",
"500 4 OFFCURVE",
"564 20 CURVE",
"568 28 LINE",
"558 64 OFFCURVE",
"556 144 OFFCURVE",
"556 188 CURVE SMOOTH",
"556 316 LINE SMOOTH",
"556 512 OFFCURVE",
"437 564 OFFCURVE",
"260 564 CURVE SMOOTH",
"188 564 OFFCURVE",
"128 556 OFFCURVE",
"80 544 CURVE",
"80 388 LINE",
"92 388 LINE",
"124 402 OFFCURVE",
"176 412 OFFCURVE",
"236 412 CURVE SMOOTH",
"312 412 OFFCURVE",
"352 396 OFFCURVE",
"352 332 CURVE SMOOTH",
"352 331 LINE",
"333 333 OFFCURVE",
"305 336 OFFCURVE",
"276 336 CURVE SMOOTH",
"140 336 OFFCURVE",
"36 288 OFFCURVE",
"36 164 CURVE SMOOTH"
);
},
{
closed = 1;
nodes = (
"345 122 OFFCURVE",
"323 120 OFFCURVE",
"304 120 CURVE SMOOTH",
"256 120 OFFCURVE",
"228 132 OFFCURVE",
"228 168 CURVE SMOOTH",
"228 204 OFFCURVE",
"252 220 OFFCURVE",
"308 220 CURVE SMOOTH",
"329 220 OFFCURVE",
"343 218 OFFCURVE",
"352 217 CURVE",
"352 216 LINE SMOOTH",
"352 179 OFFCURVE",
"356 148 OFFCURVE",
"363 127 CURVE"
);
},
{
closed = 1;
nodes = (
"414 600 OFFCURVE",
"454 676 OFFCURVE",
"450 760 CURVE",
"370 760 LINE",
"370 712 OFFCURVE",
"350 688 OFFCURVE",
"300 688 CURVE SMOOTH",
"250 688 OFFCURVE",
"230 712 OFFCURVE",
"230 760 CURVE",
"150 760 LINE",
"146 676 OFFCURVE",
"186 600 OFFCURVE",
"300 600 CURVE SMOOTH"
);
}
);
};
components = (
{
name = a;
},
{
name = brevecomb;
transform = "{1, 0, 0, 1, -28, 0}";
}
);
hints = (
{
horizontal = 1;
place = "{-12, 132}";
type = Stem;
},
{
horizontal = 1;
place = "{220, 116}";
type = Stem;
},
{
horizontal = 1;
place = "{412, 152}";
type = Stem;
},
{
horizontal = 1;
place = "{600, 160}";
type = Stem;
},
{
place = "{36, 192}";
type = Stem;
},
{
place = "{352, 204}";
type = Stem;
},
{
place = "{150, 80}";
type = Stem;
},
{
place = "{370, 80}";
type = Stem;
},
{
horizontal = 1;
place = "{600, 88}";
type = Stem;
}
);
layerId = "F2028F70-0529-41D4-9F63-024EA79743CD";
width = 616;
},
{
components = (
{
name = a;
},
{
name = brevecomb;
transform = "{1, 0, 0, 1, -11, 0}";
}
);
hints = (
{
horizontal = 1;
place = "{-12, 76}";
type = Stem;
},
{
horizontal = 1;
place = "{256, 76}";
type = Stem;
},
{
horizontal = 1;
place = "{476, 80}";
type = Stem;
},
{
horizontal = 1;
place = "{620, 140}";
type = Stem;
},
{
place = "{52, 90}";
type = Stem;
},
{
place = "{410, 92}";
type = Stem;
},
{
place = "{144, 64}";
type = Stem;
},
{
place = "{356, 64}";
type = Stem;
},
{
horizontal = 1;
place = "{620, 60}";
type = Stem;
}
);
layerId = "3E005A84-7828-4122-B6E8-61930BD9836F";
width = 590;
}
);
leftKerningGroup = a;
note = abreve;
rightKerningGroup = a;
unicode = 0103;
},
{
color = 5;
glyphname = Aring;
lastChange = "2018-12-17 20:57:53 +0000";
layers = (
{
background = {
paths = (
{
closed = 1;
nodes = (
"456 0 LINE",
"668 0 LINE",
"668 536 LINE SMOOTH",
"668 576 OFFCURVE",
"668 660 OFFCURVE",
"676 696 CURVE",
"674 708 LINE",
"620 720 OFFCURVE",
"540 728 OFFCURVE",
"480 728 CURVE SMOOTH",
"288 728 OFFCURVE",
"147 697 OFFCURVE",
"108 468 CURVE SMOOTH",
"28 0 LINE",
"240 0 LINE",
"268 168 LINE",
"456 168 LINE"
);
},
{
closed = 1;
nodes = (
"316 460 LINE SMOOTH",
"326 523 OFFCURVE",
"356 552 OFFCURVE",
"432 552 CURVE SMOOTH",
"438 552 OFFCURVE",
"448 551 OFFCURVE",
"459 551 CURVE",
"457 532 OFFCURVE",
"456 511 OFFCURVE",
"456 488 CURVE SMOOTH",
"456 336 LINE",
"295 336 LINE"
);
},
{
closed = 1;
nodes = (
"482 774 OFFCURVE",
"538 816 OFFCURVE",
"538 892 CURVE SMOOTH",
"538 968 OFFCURVE",
"482 1010 OFFCURVE",
"416 1010 CURVE SMOOTH",
"350 1010 OFFCURVE",
"294 968 OFFCURVE",
"294 892 CURVE SMOOTH",
"294 816 OFFCURVE",
"350 774 OFFCURVE",
"416 774 CURVE SMOOTH"
);
},
{
closed = 1;
nodes = (
"384 836 OFFCURVE",
"362 858 OFFCURVE",
"362 892 CURVE SMOOTH",
"362 926 OFFCURVE",
"384 948 OFFCURVE",
"416 948 CURVE SMOOTH",
"448 948 OFFCURVE",
"470 926 OFFCURVE",
"470 892 CURVE SMOOTH",
"470 858 OFFCURVE",
"448 836 OFFCURVE",
"416 836 CURVE SMOOTH"
);
}
);
};
components = (
{
name = A;
},
{
name = ringcomb.case;
transform = "{1, 0, 0, 1, 74, 0}";
}
);
hints = (
{
horizontal = 1;
place = "{0, 21}";
target = up;
type = BottomGhost;
},
{
horizontal = 1;
place = "{168, 168}";
type = Stem;
},
{
horizontal = 1;
place = "{552, 176}";
type = Stem;
},
{
horizontal = 1;
place = "{774, 62}";
type = Stem;
},
{
horizontal = 1;
place = "{948, 62}";
type = Stem;
},
{
place = "{294, 68}";
type = Stem;
},
{
place = "{456, 212}";
type = Stem;
},
{
place = "{470, 68}";
type = Stem;
}
);
layerId = "F2028F70-0529-41D4-9F63-024EA79743CD";
width = 736;
},
{
components = (
{
name = A;
},
{
name = ringcomb.case;
transform = "{1, 0, 0, 1, 71, 0}";
}
);
hints = (
{
horizontal = 1;
place = "{0, 21}";
target = up;
type = BottomGhost;
},
{
horizontal = 1;
place = "{220, 84}";
type = Stem;
},
{
horizontal = 1;
place = "{644, 84}";
type = Stem;
},
{
horizontal = 1;
place = "{780, 52}";
type = Stem;
},
{
horizontal = 1;
place = "{960, 52}";
type = Stem;
},
{
place = "{268, 58}";
type = Stem;
},
{
place = "{470, 96}";
type = Stem;
},
{
place = "{450, 58}";
type = Stem;
}
);
layerId = "3E005A84-7828-4122-B6E8-61930BD9836F";
width = 662;
}
);
leftKerningGroup = A;
note = Aring;
rightKerningGroup = A;
unicode = 00C5;
},
{
color = 5;
glyphname = aring;
lastChange = "2018-12-17 20:57:53 +0000";
layers = (
{
background = {
paths = (
{
closed = 1;
nodes = (
"36 32 OFFCURVE",
"132 -12 OFFCURVE",
"316 -12 CURVE SMOOTH",
"412 -12 OFFCURVE",
"500 4 OFFCURVE",
"564 20 CURVE",
"568 28 LINE",
"558 64 OFFCURVE",
"556 144 OFFCURVE",
"556 188 CURVE SMOOTH",
"556 316 LINE SMOOTH",
"556 512 OFFCURVE",
"437 564 OFFCURVE",
"260 564 CURVE SMOOTH",
"188 564 OFFCURVE",
"128 556 OFFCURVE",
"80 544 CURVE",
"80 388 LINE",
"92 388 LINE",
"124 402 OFFCURVE",
"176 412 OFFCURVE",
"236 412 CURVE SMOOTH",
"312 412 OFFCURVE",
"352 396 OFFCURVE",
"352 332 CURVE SMOOTH",
"352 331 LINE",
"333 333 OFFCURVE",
"305 336 OFFCURVE",
"276 336 CURVE SMOOTH",
"140 336 OFFCURVE",
"36 288 OFFCURVE",
"36 164 CURVE SMOOTH"
);
},
{
closed = 1;
nodes = (
"345 122 OFFCURVE",
"323 120 OFFCURVE",
"304 120 CURVE SMOOTH",
"256 120 OFFCURVE",
"228 132 OFFCURVE",
"228 168 CURVE SMOOTH",
"228 204 OFFCURVE",
"252 220 OFFCURVE",
"308 220 CURVE SMOOTH",
"329 220 OFFCURVE",
"343 218 OFFCURVE",
"352 217 CURVE",
"352 216 LINE SMOOTH",
"352 179 OFFCURVE",
"356 148 OFFCURVE",
"363 127 CURVE"
);
},
{
closed = 1;
nodes = (
"366 602 OFFCURVE",
"422 644 OFFCURVE",
"422 720 CURVE SMOOTH",
"422 796 OFFCURVE",
"366 838 OFFCURVE",
"300 838 CURVE SMOOTH",
"234 838 OFFCURVE",
"178 796 OFFCURVE",
"178 720 CURVE SMOOTH",
"178 644 OFFCURVE",
"234 602 OFFCURVE",
"300 602 CURVE SMOOTH"
);
},
{
closed = 1;
nodes = (
"268 664 OFFCURVE",
"246 686 OFFCURVE",
"246 720 CURVE SMOOTH",
"246 754 OFFCURVE",
"268 776 OFFCURVE",
"300 776 CURVE SMOOTH",
"332 776 OFFCURVE",
"354 754 OFFCURVE",
"354 720 CURVE SMOOTH",
"354 686 OFFCURVE",
"332 664 OFFCURVE",
"300 664 CURVE SMOOTH"
);
}
);
};
components = (
{
name = a;
},
{
name = ringcomb;
transform = "{1, 0, 0, 1, -28, 0}";
}
);
hints = (
{
horizontal = 1;
place = "{-12, 132}";
type = Stem;
},
{
horizontal = 1;
place = "{220, 116}";
type = Stem;
},
{
horizontal = 1;
place = "{412, 152}";
type = Stem;
},
{
horizontal = 1;
place = "{602, 62}";
type = Stem;
},
{
horizontal = 1;
place = "{776, 62}";
type = Stem;
},
{
place = "{36, 192}";
type = Stem;
},
{
place = "{354, 68}";
type = Stem;
},
{
place = "{352, 204}";
type = Stem;
},
{
place = "{178, 68}";
type = Stem;
}
);
layerId = "F2028F70-0529-41D4-9F63-024EA79743CD";
width = 616;
},
{
components = (
{
name = a;
},
{
name = ringcomb;
transform = "{1, 0, 0, 1, -11, 0}";
}
);
hints = (
{
horizontal = 1;
place = "{-12, 76}";
type = Stem;
},
{
horizontal = 1;
place = "{256, 76}";
type = Stem;
},
{
horizontal = 1;
place = "{476, 80}";
type = Stem;
},
{
horizontal = 1;
place = "{604, 52}";
type = Stem;
},
{
horizontal = 1;
place = "{784, 52}";
type = Stem;
},
{
place = "{52, 90}";
type = Stem;
},
{
place = "{410, 92}";
type = Stem;
},
{
place = "{162, 58}";
type = Stem;
},
{
place = "{344, 58}";
type = Stem;
}
);
layerId = "3E005A84-7828-4122-B6E8-61930BD9836F";
width = 590;
}
);
leftKerningGroup = a;
note = aring;
rightKerningGroup = a;
unicode = 00E5;
},
{
color = 5;
glyphname = Aogonek;
lastChange = "2018-12-17 20:58:09 +0000";
layers = (
{
background = {
paths = (
{
closed = 1;
nodes = (
"625 -248 OFFCURVE",
"651 -246 OFFCURVE",
"669 -240 CURVE",
"669 -154 LINE",
"665 -154 LINE",
"650 -159 OFFCURVE",
"638 -160 OFFCURVE",
"624 -160 CURVE SMOOTH",
"600 -160 OFFCURVE",
"589 -144 OFFCURVE",
"589 -124 CURVE SMOOTH",
"589 -84 OFFCURVE",
"618 -55 OFFCURVE",
"668 0 CURVE",
"668 536 LINE SMOOTH",
"668 576 OFFCURVE",
"668 660 OFFCURVE",
"676 696 CURVE",
"674 708 LINE",
"620 720 OFFCURVE",
"540 728 OFFCURVE",
"480 728 CURVE SMOOTH",
"288 728 OFFCURVE",
"147 697 OFFCURVE",
"108 468 CURVE SMOOTH",
"28 0 LINE",
"240 0 LINE",
"268 168 LINE",
"456 168 LINE",
"456 0 LINE",
"562 0 LINE",
"523 -35 OFFCURVE",
"481 -82 OFFCURVE",
"481 -140 CURVE SMOOTH",
"481 -212 OFFCURVE",
"529 -248 OFFCURVE",
"601 -248 CURVE SMOOTH"
);
},
{
closed = 1;
nodes = (
"316 460 LINE SMOOTH",
"326 523 OFFCURVE",
"356 552 OFFCURVE",
"432 552 CURVE SMOOTH",
"438 552 OFFCURVE",
"448 551 OFFCURVE",
"459 551 CURVE",
"457 532 OFFCURVE",
"456 511 OFFCURVE",
"456 488 CURVE SMOOTH",
"456 336 LINE",
"295 336 LINE"
);
}
);
};
components = (
{
name = A;
},
{
name = ogonekcomb.case;
transform = "{1, 0, 0, 1, 239, 0}";
}
);
hints = (
{
horizontal = 1;
place = "{-240, 21}";
target = up;
type = BottomGhost;
},
{
horizontal = 1;
place = "{0, 21}";
target = up;
type = BottomGhost;
},
{
horizontal = 1;
place = "{168, 168}";
type = Stem;
},
{
horizontal = 1;
place = "{552, 176}";
type = Stem;
},
{
place = "{456, 212}";
type = Stem;
},
{
place = "{493, 108}";
type = Stem;
},
{
horizontal = 1;
place = "{-248, 88}";
type = Stem;
}
);
layerId = "F2028F70-0529-41D4-9F63-024EA79743CD";
width = 736;
},
{
components = (
{
name = A;
},
{
name = ogonekcomb.case;
transform = "{1, 0, 0, 1, 214, 0}";
}
);
hints = (
{
horizontal = 1;
place = "{-248, 64}";
type = Stem;
},
{
horizontal = 1;
place = "{0, 21}";
target = up;
type = BottomGhost;
},
{
horizontal = 1;
place = "{220, 84}";
type = Stem;
},
{
horizontal = 1;
place = "{644, 84}";
type = Stem;
},
{
place = "{470, 96}";
type = Stem;
},
{
place = "{423, 70}";
type = Stem;
}
);
layerId = "3E005A84-7828-4122-B6E8-61930BD9836F";
width = 662;
}
);
leftKerningGroup = A;
note = Aogonek;
rightKerningGroup = A;
unicode = 0104;
},
{
color = 5;
glyphname = aogonek;
lastChange = "2018-12-17 20:58:16 +0000";
layers = (
{
background = {
paths = (
{
closed = 1;
nodes = (
"497 -248 OFFCURVE",
"523 -246 OFFCURVE",
"541 -240 CURVE",
"541 -154 LINE",
"537 -154 LINE",
"522 -159 OFFCURVE",
"510 -160 OFFCURVE",
"496 -160 CURVE SMOOTH",
"472 -160 OFFCURVE",
"461 -144 OFFCURVE",
"461 -124 CURVE SMOOTH",
"461 -84 OFFCURVE",
"487 -50 OFFCURVE",
"542 0 CURVE SMOOTH",
"564 20 LINE",
"568 28 LINE",
"558 64 OFFCURVE",
"556 144 OFFCURVE",
"556 188 CURVE SMOOTH",
"556 316 LINE SMOOTH",
"556 512 OFFCURVE",
"437 564 OFFCURVE",
"260 564 CURVE SMOOTH",
"188 564 OFFCURVE",
"128 556 OFFCURVE",
"80 544 CURVE",
"80 388 LINE",
"92 388 LINE",
"124 402 OFFCURVE",
"176 412 OFFCURVE",
"236 412 CURVE SMOOTH",
"312 412 OFFCURVE",
"352 396 OFFCURVE",
"352 332 CURVE SMOOTH",
"352 331 LINE",
"333 333 OFFCURVE",
"305 336 OFFCURVE",
"276 336 CURVE SMOOTH",
"140 336 OFFCURVE",
"36 288 OFFCURVE",
"36 164 CURVE SMOOTH",
"36 32 OFFCURVE",
"132 -12 OFFCURVE",
"316 -12 CURVE SMOOTH",
"355 -12 OFFCURVE",
"393 -9 OFFCURVE",
"428 -5 CURVE",
"390 -39 OFFCURVE",
"353 -85 OFFCURVE",
"353 -140 CURVE SMOOTH",
"353 -212 OFFCURVE",
"401 -248 OFFCURVE",
"473 -248 CURVE SMOOTH"
);
},
{
closed = 1;
nodes = (
"256 120 OFFCURVE",
"228 132 OFFCURVE",
"228 168 CURVE SMOOTH",
"228 204 OFFCURVE",
"252 220 OFFCURVE",
"308 220 CURVE SMOOTH",
"329 220 OFFCURVE",
"343 218 OFFCURVE",
"352 217 CURVE",
"352 216 LINE SMOOTH",
"352 179 OFFCURVE",
"356 148 OFFCURVE",
"363 127 CURVE",
"345 122 OFFCURVE",
"323 120 OFFCURVE",
"304 120 CURVE SMOOTH"
);
}
);
};
components = (
{
name = a;
},
{
name = ogonekcomb;
transform = "{1, 0, 0, 1, 135, 32}";
}
);
hints = (
{
horizontal = 1;
place = "{-240, 21}";
target = up;
type = BottomGhost;
},
{
horizontal = 1;
place = "{-12, 132}";
type = Stem;
},
{
horizontal = 1;
place = "{220, 116}";
type = Stem;
},
{
horizontal = 1;
place = "{412, 152}";
type = Stem;
},
{
place = "{36, 192}";
type = Stem;
},
{
place = "{353, 188}";
type = Stem;
},
{
horizontal = 1;
place = "{-248, 88}";
type = Stem;
},
{
horizontal = 1;
place = "{0, 21}";
target = up;
type = BottomGhost;
},
{
place = "{352, 204}";
type = Stem;
}
);
layerId = "F2028F70-0529-41D4-9F63-024EA79743CD";
width = 616;
},
{
components = (
{
name = a;
},
{
name = ogonekcomb;
transform = "{1, 0, 0, 1, 156, 28}";
}
);
hints = (
{
horizontal = 1;
place = "{-248, 64}";
type = Stem;
},
{
horizontal = 1;
place = "{-12, 76}";
type = Stem;
},
{
horizontal = 1;
place = "{256, 76}";
type = Stem;
},
{
horizontal = 1;
place = "{476, 80}";
type = Stem;
},
{
place = "{68, 90}";
type = Stem;
},
{
place = "{426, 92}";
type = Stem;
},
{
place = "{357, 70}";
type = Stem;
}
);
layerId = "3E005A84-7828-4122-B6E8-61930BD9836F";
width = 590;
}
);
leftKerningGroup = a;
note = aogonek;
rightKerningGroup = a;
unicode = 0105;
},
{
color = 4;
glyphname = AE;
lastChange = "2018-12-17 16:08:46 +0000";
layers = (
{
anchors = (
{
name = bottom;
position = "{500, 0}";
},
{
name = top;
position = "{500, 720}";
}
);
background = {
paths = (
{
closed = 1;
nodes = (
"240 0 LINE",
"268 168 LINE",
"456 168 LINE",
"456 0 LINE",
"952 0 LINE",
"952 176 LINE",
"668 176 LINE",
"668 252 LINE",
"896 252 LINE",
"896 424 LINE",
"668 424 LINE",
"668 536 LINE",
"944 536 LINE",
"944 720 LINE",
"604 720 LINE",
"562 725 OFFCURVE",
"517 728 OFFCURVE",
"480 728 CURVE SMOOTH",
"288 728 OFFCURVE",
"147 697 OFFCURVE",
"112 492 CURVE SMOOTH",
"28 0 LINE"
);
},
{
closed = 1;
nodes = (
"316 460 LINE SMOOTH",
"326 523 OFFCURVE",
"356 552 OFFCURVE",
"432 552 CURVE SMOOTH",
"438 552 OFFCURVE",
"448 551 OFFCURVE",
"459 551 CURVE",
"457 532 OFFCURVE",
"456 511 OFFCURVE",
"456 488 CURVE SMOOTH",
"456 336 LINE",
"295 336 LINE"
);
}
);
};
hints = (
{
horizontal = 1;
place = "{0, 176}";
type = Stem;
},
{
horizontal = 1;
place = "{252, 172}";
type = Stem;
},
{
horizontal = 1;
place = "{536, 184}";
type = Stem;
},
{
place = "{456, 212}";
type = Stem;
},
{
horizontal = 1;
place = "{552, 176}";
type = Stem;
},
{
horizontal = 1;
place = "{168, 168}";
type = Stem;
}
);
layerId = "F2028F70-0529-41D4-9F63-024EA79743CD";
paths = (
{
closed = 1;
nodes = (
"240 0 LINE",
"316 460 LINE SMOOTH",
"326 523 OFFCURVE",
"356 552 OFFCURVE",
"432 552 CURVE SMOOTH",
"451 552 OFFCURVE",
"480 550 OFFCURVE",
"493 548 CURVE",
"467 598 LINE",
"460 569 OFFCURVE",
"456 532 OFFCURVE",
"456 488 CURVE SMOOTH",
"456 0 LINE",
"668 0 LINE",
"668 536 LINE SMOOTH",
"668 576 OFFCURVE",
"668 660 OFFCURVE",
"676 696 CURVE",
"674 708 LINE",
"620 720 OFFCURVE",
"540 728 OFFCURVE",
"480 728 CURVE SMOOTH",
"288 728 OFFCURVE",
"147 697 OFFCURVE",
"108 468 CURVE SMOOTH",
"28 0 LINE"
);
},
{
closed = 1;
nodes = (
"556 168 LINE",
"556 336 LINE",
"168 336 LINE",
"168 168 LINE"
);
},
{
closed = 1;
nodes = (
"952 0 LINE",
"952 184 LINE",
"568 184 LINE",
"568 0 LINE"
);
},
{
closed = 1;
nodes = (
"896 268 LINE",
"896 440 LINE",
"568 440 LINE",
"568 268 LINE"
);
},
{
closed = 1;
nodes = (
"944 536 LINE",
"944 720 LINE",
"568 720 LINE",
"568 536 LINE"
);
}
);
width = 1000;
},
{
anchors = (
{
name = bottom;
position = "{495, 0}";
},
{
name = top;
position = "{495, 720}";
}
);
background = {
paths = (
{
closed = 1;
nodes = (
"146 0 LINE",
"182 220 LINE",
"470 220 LINE",
"470 0 LINE",
"938 0 LINE",
"938 84 LINE",
"566 84 LINE",
"566 336 LINE",
"870 336 LINE",
"870 420 LINE",
"566 420 LINE",
"567 636 LINE",
"926 636 LINE",
"926 720 LINE",
"528 720 LINE",
"491 725 OFFCURVE",
"457 728 OFFCURVE",
"422 728 CURVE SMOOTH",
"222 728 OFFCURVE",
"155 640 OFFCURVE",
"128 480 CURVE SMOOTH",
"48 0 LINE"
);
},
{
closed = 1;
nodes = (
"226 484 LINE SMOOTH",
"242 583 OFFCURVE",
"286 644 OFFCURVE",
"418 644 CURVE SMOOTH",
"438 644 OFFCURVE",
"456 643 OFFCURVE",
"471 640 CURVE",
"470 625 OFFCURVE",
"470 609 OFFCURVE",
"470 592 CURVE SMOOTH",
"470 304 LINE",
"196 304 LINE"
);
}
);
};
hints = (
{
horizontal = 1;
place = "{0, 84}";
type = Stem;
},
{
horizontal = 1;
place = "{220, 84}";
type = Stem;
},
{
horizontal = 1;
place = "{336, 84}";
type = Stem;
},
{
horizontal = 1;
place = "{636, 84}";
type = Stem;
},
{
place = "{470, 96}";
type = Stem;
},
{
horizontal = 1;
place = "{644, 84}";
type = Stem;
}
);
layerId = "3E005A84-7828-4122-B6E8-61930BD9836F";
paths = (
{
closed = 1;
nodes = (
"144 0 LINE",
"224 480 LINE SMOOTH",
"243 591 OFFCURVE",
"284 644 OFFCURVE",
"416 644 CURVE SMOOTH",
"445 644 OFFCURVE",
"471 642 OFFCURVE",
"488 634 CURVE",
"472 663 LINE",
"468 642 OFFCURVE",
"468 618 OFFCURVE",
"468 592 CURVE SMOOTH",
"468 0 LINE",
"564 0 LINE",
"564 540 LINE SMOOTH",
"564 580 OFFCURVE",
"564 660 OFFCURVE",
"570 700 CURVE",
"568 712 LINE",
"516 724 OFFCURVE",
"468 728 OFFCURVE",
"420 728 CURVE SMOOTH",
"220 728 OFFCURVE",
"153 640 OFFCURVE",
"126 480 CURVE SMOOTH",
"46 0 LINE"
);
},
{
closed = 1;
nodes = (
"508 220 LINE",
"508 304 LINE",
"146 304 LINE",
"146 220 LINE"
);
},
{
closed = 1;
nodes = (
"936 0 LINE",
"936 84 LINE",
"524 84 LINE",
"524 0 LINE"
);
},
{
closed = 1;
nodes = (
"868 336 LINE",
"868 420 LINE",
"524 420 LINE",
"524 336 LINE"
);
},
{
closed = 1;
nodes = (
"924 636 LINE",
"924 720 LINE",
"524 720 LINE",
"524 636 LINE"
);
}
);
width = 990;
}
);
leftKerningGroup = A;
note = AE;
rightKerningGroup = E;
unicode = 00C6;
},
